<svg id="Layer_1" data-name="Layer 1" xmlns="http://www.w3.org/2000/svg" viewBox="0 0 383.13 363.63"><title>cart-icon-black2</title><g id="Layer_2" data-name="Layer 2"><path d="M383.13,119.73a26.45,26.45,0,0,0-1.7-8.8,27.69,27.69,0,0,0-4.3-7.7,28.51,28.51,0,0,0-6.6-5.9,26.78,26.78,0,0,0-8.1-3.6c-0.7-.2-1.5-0.3-2.2-0.5l-1.1-.2-0.7-.1-2.6-.4-10.5-1.4-21.1-2.8c-28.2-3.8-56.4-7.4-84.8-10.8s-56.7-6.8-85.1-10L95.23,61a4,4,0,0,1-3.5-3.5l-2.3-21.3a12.89,12.89,0,0,0-8.1-10.6l-0.3-.1-30.8-12.2c-10.3-4-20.5-8.2-30.7-12.3A2.57,2.57,0,0,0,19,.83,14.24,14.24,0,0,0,.63,10c-2.3,7.3,1.9,15,9.1,17.6,10.3,3.7,20.5,7.4,30.8,11.1l20.3,7.4a6.27,6.27,0,0,1,4,5l3.9,29.5,4.2,32.5c0.4,5.9.9,11.9,1.4,17.9,2,24.6,4.6,49.4,7.5,73.7v0.1a25.82,25.82,0,0,1-.3,9.2l-4.2,18.9L70,265.43v0.1a12.72,12.72,0,0,0-.2,3.4,11.78,11.78,0,0,0,11.9,10.6l62.4-.3c20.9,0,41.8,0,62.7.3s41.8,0.7,62.7,1,41.8,0.6,62.7.7h0.3a14.31,14.31,0,0,0,14.1-15.3,14.53,14.53,0,0,0-14.9-13.4c-20.8.3-41.5,0.7-62.3,1.2s-41.8,1.1-62.7,1.6-41.8.7-62.7,0.8l-45.2.1a2.39,2.39,0,0,1-2.3-2.9l3.5-15.4,4-17.4a3.65,3.65,0,0,1,3.7-2.8c50.5,2.6,100.9,5.9,151.3,9.1,13.7,0.8,27.4,1.8,41.1,2.5l10.3,0.6,10.3,0.5c3.4,0.2,7,.3,10.5.4s7.3,0.2,11.1.2a23.64,23.64,0,0,0,5.9-1.1,22.53,22.53,0,0,0,4.9-2.5,30.25,30.25,0,0,0,6.3-5.9,50.44,50.44,0,0,0,6.6-11.4,136.72,136.72,0,0,0,7-21.4,362.4,362.4,0,0,0,7.3-41.8c0.9-6.9,1.6-13.9,2.3-20.8l0.2-2.6A17.43,17.43,0,0,0,383.13,119.73Zm-23.7,4.4c-0.6,6.7-1.3,13.4-2.1,20a328.88,328.88,0,0,1-6.8,39.1,117.27,117.27,0,0,1-5.6,17.6,26.46,26.46,0,0,1-3.6,6.4c-0.3.4-.5,0.6-0.7,0.9-2.8,0-5.4,0-8.6-.1-3.4-.1-6.7-0.2-10.1-0.4l-10.2-.6-10.2-.6-20.4-1.3c-6.8-.4-13.6-1-20.4-1.5-13.6-1.1-27.3-2.1-40.9-3.2l-20.5-1.8-20.4-1.8c-22.4-2-44.9-4.2-67.2-6.6a3.61,3.61,0,0,1-3.2-3.1c-2.1-15.7-4.5-31.2-7.2-46.8-0.4-2.1-.8-4.3-1.2-6.5L98.43,119l-4.1-37a2.25,2.25,0,0,1,2.6-2.5l70.6,10.8c25.9,3.9,51.9,7.7,77.8,11.3s52,7.2,78.1,10.5l19.6,2.6,9.8,1.3,2.5,0.3,0.6,0.1h0.2a0.37,0.37,0,0,1,.3.1,6.12,6.12,0,0,1,1.2.5,2.84,2.84,0,0,1,1,.9,7.46,7.46,0,0,1,.7,1.2,5,5,0,0,1,.3,1.3C359.83,120.23,359.63,122.53,359.43,124.13Z"/><circle cx="110.13" cy="334.43" r="29.2"/><circle cx="290.83" cy="334.4" r="29.2" transform="translate(-69.06 75.79) rotate(-13.29)"/></g></svg>