<svg id="Layer_1" data-name="Layer 1" xmlns="http://www.w3.org/2000/svg" viewBox="0 0 278.4 251.81"><title>contact-icon-black2</title><path d="M277.2,105.5l-0.2-43a62.25,62.25,0,0,0-5.2-23.3A62.53,62.53,0,0,0,238.2,6.5a60.63,60.63,0,0,0-23.4-4.6L164.7,0.8C148.1,0.7,131.6.7,115,.5L65.3,0H62.2c-1.1.1-2.3,0-3.5,0.1a55.08,55.08,0,0,0-7.1.7A64.74,64.74,0,0,0,37.9,4.6a63.65,63.65,0,0,0-12.6,6.8,64.48,64.48,0,0,0-10.8,9.4l-0.1-.1A64.29,64.29,0,0,0,2.2,42.1a61.54,61.54,0,0,0-2.8,12c-0.1,1.1-.2,2.1-0.3,3.1l-0.2,3.1v5.8l0.8,42.8L0,130.3V133c0,1,0,2,.1,3,0.1,2,.4,4,0.7,6a65.1,65.1,0,0,0,3.1,11.5,68.31,68.31,0,0,0,11.9,20.4,57.63,57.63,0,0,0,18.7,14.8,40,40,0,0,0,5.7,2.3,24.57,24.57,0,0,0,2.9.9l0.4,0.1h0.1a0.2,0.2,0,0,0,.2.1c0.1,0.1.2,0.1,0.3,0.2a2.63,2.63,0,0,1,1.3,2.9l-6.2,19.9-6.4,20.5-1.6,5.1L30.8,242l-0.1.3-0.1.5c0,0.2-.1.4-0.1,0.6a7.67,7.67,0,0,0,.1,2.6,7,7,0,0,0,2.7,4.3,7.16,7.16,0,0,0,4.9,1.5,7.71,7.71,0,0,0,2.6-.7,10.91,10.91,0,0,0,1.1-.6,3.61,3.61,0,0,0,.5-0.4l1.1-.8,2.1-1.6,4.2-3.3c5.6-4.4,11.2-8.8,16.9-13.1s11.3-8.7,17-13l17.1-12.9,4.3-3.2,2.1-1.6a20.28,20.28,0,0,1,1.8-1.3,30,30,0,0,1,8-3.5,32.46,32.46,0,0,1,4.3-.8c0.8,0,1.5-.1,2.2-0.1h2.4l10.7,0.2,21.4,0.3c14.3,0.2,28.5.3,42.8,0.4h16.4c2-.1,4-0.2,6-0.5a61.8,61.8,0,0,0,22.8-7.8,62.58,62.58,0,0,0,18.2-15.8,63,63,0,0,0,12.9-33.5c0.1-1,.2-2,0.2-3v-8.3ZM36.1,241.5l-0.2.1C35.6,241.8,35.8,241.6,36.1,241.5ZM263,105.1l-0.1,21.4v5.4c0,1-.1,1.7-0.1,2.5a17.7,17.7,0,0,1-.1,2.3,47.08,47.08,0,0,1-1.7,9.1,48.87,48.87,0,0,1-22.3,28.5,46.83,46.83,0,0,1-17.4,6c-1.5.2-3.1,0.3-4.6,0.4H200.9c-14.3.1-28.5,0.2-42.8,0.4l-21.4.3-10.7.2c-0.8,0-1.9,0-3,.1a31.63,31.63,0,0,0-3.2.3,42.85,42.85,0,0,0-6.2,1.4,40.81,40.81,0,0,0-11.3,5.5c-0.9.6-1.7,1.3-2.5,1.9l-2.1,1.7-4.2,3.4L76.8,209.3c-5.5,4.6-11.1,9-16.7,13.4-5.1,4-10.2,8-15.4,12.1L50,218.6l3.3-10.1,1.7-5,0.9-2.5,0.4-1.2a4.65,4.65,0,0,0,.3-0.9c0.1-.4.2-0.7,0.3-1.1a15.19,15.19,0,0,0-.8-8.7,14.79,14.79,0,0,0-5.8-6.8,12.44,12.44,0,0,0-2-1,4.87,4.87,0,0,0-1.1-.4l-0.8-.3a14.16,14.16,0,0,1-2.2-.7,37.89,37.89,0,0,1-4.2-1.8,44.34,44.34,0,0,1-14.3-12,54.37,54.37,0,0,1-9.1-16.7,49,49,0,0,1-2.1-9.2c-0.2-1.6-.3-3.1-0.4-4.7v-4.9l0.3-21.4,0.8-42.8,0.1-2.7,0.1-2.3,0.2-2.3,0.3-2.3a45,45,0,0,1,2.4-8.7,48.08,48.08,0,0,1,9.5-15.2l-0.1-.1A46,46,0,0,1,44.5,20.3a49.28,49.28,0,0,1,10.1-3.1c1.8-.3,3.5-0.5,5.3-0.7,0.9,0,1.8-.1,2.7-0.1h3.1l49.7-.5c16.6-.2,33.1-0.2,49.7-0.3l49.7-.3a61.65,61.65,0,0,1,18.3,3.2,48.93,48.93,0,0,1,26.2,25.7,47.17,47.17,0,0,1,3.9,18.2Z" transform="translate(1.1)"/><path d="M218.3,70.5c-79.4-8.9-155.6-2.3-156.4-2.2A6,6,0,0,0,63,80.2c0.7-.1,75.8-6.5,154,2.2h0.7a6.13,6.13,0,0,0,6-5.3A6.25,6.25,0,0,0,218.3,70.5Z" transform="translate(1.1)"/><path d="M212.8,116.2c-9.6.3-25.1-.1-43.1-0.6-38-1.1-85.3-2.5-105.5,2.8a6,6,0,0,0,1.5,11.8,7.72,7.72,0,0,0,1.5-.2c18.5-4.9,64.8-3.5,102.1-2.5,18.2,0.5,33.8,1,43.8.6a6,6,0,0,0,5.8-6.2A5.85,5.85,0,0,0,212.8,116.2Z" transform="translate(1.1)"/></svg>