<?xml version="1.0" encoding="utf-8"?>
<!-- Generator: Adobe Illustrator 22.0.1, SVG Export Plug-In . SVG Version: 6.00 Build 0)  -->
<svg version="1.1" id="Layer_1" xmlns="http://www.w3.org/2000/svg" xmlns:xlink="http://www.w3.org/1999/xlink" x="0px" y="0px"
	 viewBox="0 0 792 612" style="enable-background:new 0 0 792 612;" xml:space="preserve">
<path d="M509.2,354.7c1.3,2.5,0.3,27.7-5,45.5c-3.7,12.2-8.3,26.8-14.8,39.5c-9.8,19-18.2,19.5-40.3,19.2c-12-0.2-48.8-2.2-86.6-5.3
	c-33.8-2.7-40.8-37.3-44.4-49.1c-7.2-23.3-8.2-38.8-4.9-46.9c-7.7,6.3-23.8,9.6-40.7,10.2c23.5,1.1,25.7,19.3,48,76.8
	c3.7,9.4,10.5,28.6,33.8,28.6s100.5,0.9,123.8,0.9s24.1-20.3,27.7-31.7c3.5-11.4,20.7-62.5,26.4-69.8c0.4-0.5,0.8-0.9,1.4-1.4
	C525.6,368.2,519.2,350.2,509.2,354.7z"/>
<path d="M600,301.2c0-25.2-17.9-68.5-52.7-104c-32.6-33.3-79.4-59.7-155.4-59.7c-129.9,0-200.5,96.3-200.5,157.1
	c0,48.3,32.2,73.9,78,73.4c1,0,2,0,3,0.1c16.9-0.6,33-3.9,40.7-10.2c5.5-4.5,9.1-8.5,17.2-4.6c11.3,5.4,15.1,8.6,26,8.6
	c16.8,0,23.7-9.4,30.7-9.4c6.9,0,13.4,14.7,31.5,14.7c12.4,0,30.4-12,34.9-12c4.4,0,15.3,10.9,25.8,10.9s12.6-8.8,21.6-10.9
	c4.5-1.1,9.2-0.6,13.1,4.2c3.9,4.9,11.3,10.8,19.5,12.1C545.7,361.3,600,359.6,600,301.2z M541.3,348.8c-13.4,0-16-16.2-28.7-16.2
	c-17.3,0-20.5,19.1-31.4,19.1c-13.2,0-12.7-21.3-25.2-21.3s-23.3,21.3-39,21.3c-17.3,0-15.5-26.5-26.5-26.5
	c-14.4,0-25.2,22.8-29.4,22.8c-16.7,0-20.8-18.4-34.7-18.4c-16.1,0-16.3,15.4-27.3,18.4c-10,2.7-21.3,5.2-52.6,0.6
	c-20.7-3.1-38.3-19.5-38.3-50.5c0-55.3,60.8-136.1,190.5-136.1c122,0,182.3,76.7,182.3,138.4C580.9,347.4,548,348.8,541.3,348.8z"/>
</svg>
