<svg id="Layer_1" data-name="Layer 1" xmlns="http://www.w3.org/2000/svg" viewBox="0 0 408.6 336.6"><title>muffin-only-black-nav2</title><path d="M317.8,217.2c1.3,2.5.3,27.7-5,45.5-3.7,12.2-8.3,26.8-14.8,39.5-9.8,19-18.2,19.5-40.3,19.2-12-.2-48.8-2.2-86.6-5.3-33.8-2.7-40.8-37.3-44.4-49.1-7.2-23.3-8.2-38.8-4.9-46.9-7.7,6.3-23.8,9.6-40.7,10.2,23.5,1.1,25.7,19.3,48,76.8,3.7,9.4,10.5,28.6,33.8,28.6s100.5,0.9,123.8.9,24.1-20.3,27.7-31.7,20.7-62.5,26.4-69.8a9.24,9.24,0,0,1,1.4-1.4C334.2,230.7,327.8,212.7,317.8,217.2Z"/><path d="M408.6,163.7c0-25.2-17.9-68.5-52.7-104C323.3,26.4,276.5,0,200.5,0,70.6,0,0,96.3,0,157.1c0,48.3,32.2,73.9,78,73.4,1,0,2,0,3,.1,16.9-.6,33-3.9,40.7-10.2,5.5-4.5,9.1-8.5,17.2-4.6,11.3,5.4,15.1,8.6,26,8.6,16.8,0,23.7-9.4,30.7-9.4s13.4,14.7,31.5,14.7c12.4,0,30.4-12,34.9-12s15.3,10.9,25.8,10.9,12.6-8.8,21.6-10.9c4.5-1.1,9.2-.6,13.1,4.2S333.8,232.7,342,234C354.3,223.8,408.6,222.1,408.6,163.7Zm-58.7,47.6c-13.4,0-16-16.2-28.7-16.2-17.3,0-20.5,19.1-31.4,19.1-13.2,0-12.7-21.3-25.2-21.3s-23.3,21.3-39,21.3c-17.3,0-15.5-26.5-26.5-26.5-14.4,0-25.2,22.8-29.4,22.8-16.7,0-20.8-18.4-34.7-18.4-16.1,0-16.3,15.4-27.3,18.4-10,2.7-21.3,5.2-52.6.6-20.7-3.1-38.3-19.5-38.3-50.5,0-55.3,60.8-136.1,190.5-136.1,122,0,182.3,76.7,182.3,138.4C389.5,209.9,356.6,211.3,349.9,211.3Z"/></svg>