<?xml version="1.0" encoding="utf-8"?>
<!-- Generator: Adobe Illustrator 22.0.1, SVG Export Plug-In . SVG Version: 6.00 Build 0)  -->
<svg version="1.1" id="Layer_2_1_" xmlns="http://www.w3.org/2000/svg" xmlns:xlink="http://www.w3.org/1999/xlink" x="0px" y="0px"
	 viewBox="0 0 250 132.2" style="enable-background:new 0 0 250 132.2;" xml:space="preserve">
<g>
	<path d="M76.8,99.8c-23-2.9-22.3-20.7-20.6-34.4c1.9-15.2,11.9-35.8,10.7-35.9C64.4,29.2,46,51.9,42.3,58.1
		c-3.3,5.5-8,25.5-8.2,26.9c-0.2,1.3-0.6,1.6-2.5,1.4c-1.6-0.2-1.2-1.3-0.9-2.4c5-19.4,16.5-50.5,12.8-51s-29.7,11-33.1,8.3
		c-2.4-1.9,0.1-1.4,5.7-3c7-1.9,22.8-10.4,29.7-9.5s-3.4,21.8-1.7,22c1.6,0.2,21-28.3,25.9-27.7c6.4,0.8-9.1,27.4-11,42.5
		s-0.8,30.3,17.8,32.6c1.3,0.2,2.1,0.3,2,0.9S77.8,99.9,76.8,99.8z"/>
	<path d="M72.9,81.8c4.3,0.4,6.9-3.1,6.9-3c0,0,1.4,1.2,4.2,1.5c6.4,0.6,17.2-11.4,20.2-11.1c3.7,0.4-1.4,11.1,0.8,11.3
		c2.3,0.2,6.1-11.1,7.4-10.9c0.2,2,0.7,4.9,5.7,5.4c8.6,0.9,20.7-7.2,23.2-7c1.9,0.2-3.6,7.5,0,7.9c1.7,0.2,7.3-6.9,7.4-6.8
		c0.1,0.1,0.6,3.4,5,3.8c6.6,0.7,13.1-3.9,13.1-3.9c0.2,3.2,1.3,5.6,5.9,6.1c6.6,0.7,11.5-5.8,11.5-5.8c-0.4,2-1,5.1-1.6,8.9
		c-12.4,11.2-16.9,20.8-17.9,31.3c-0.5,4.9,1.7,9.2,4.8,9.5c9.7,1,10.7-19,15.1-39.7c5-4,14.3-8.5,19.2-13.3
		c5.4-5.2,10.2-12.5,12.4-12.3c1.8,0.2-0.9,6.4-3.6,10.6c-0.7-0.4-1.6-0.7-3.2-0.9c-4-0.4-4.8,5.2-0.6,5.7c1.4,0.1,2.5-0.8,3.7-2.1
		c2.1,1.1,6.5,2.1,9.6,2.1c15.5-0.4,19.2-10.6,18.1-10.6c-1.5,0-2.7,8.3-18.2,8.7c-3.4,0.1-7.2-1.2-8.1-1.9c4-5.3,8.4-14.3,3.8-14.7
		c-5.3-0.5-9.3,10.6-17.9,16.9c-5.6,4.1-6.9,5.1-14.7,9.7c0.6-2.8,1.6-7.4,2.4-10.1c1.9-6.5,3.2-7.4,1.7-7.5s-7.8,13.3-15.8,12.8
		c-3.3-0.2-4.5-2.6-3.9-5.1c0.6-2.6,4.3-6.8,1.6-7c-1.4-0.1-6.7,11.8-17.8,10.7c-7.1-0.7,2.2-9.1-0.9-9.4c-1.6-0.2-7.2,10.2-9,10
		c0.3-3.2,0.8-6.2-1.6-6.4c-4.8-0.5-14.6,8.2-24,7.3c-6.2-0.6,0.2-9-2.5-9.5c-1.8-0.3-6.7,12-7.9,11.9c-0.4,0,3.3-8-1.4-8.5
		c-5.5-0.6-14.9,12-21.5,11.3c-4.2-0.4-2.2-5.2-0.9-8.9c1.3-3.7,2-7.6-1.9-8s-13,7.6-13.7,14.3C67.6,79.3,68.8,81.4,72.9,81.8z
		 M79.8,72.5c-1.4,4.3-3.7,6.6-5.9,6.3c-1.5-0.1-2.5-1.6-2.3-3.9c0.4-4.5,7-12.5,9.3-12.3C83.3,62.9,81.4,68,79.8,72.5z M171,115.6
		c-1.9-0.2-3.8-2.1-3.3-7c1.1-10.9,4.3-17.5,14.5-27.8C179.8,95.4,176.2,116.1,171,115.6z M208.9,67.9c-2.3-0.2-1.6-2.7-0.1-2.5
		c0.5,0.1,1.4,0.2,2.1,1C210.5,67.2,209.9,68,208.9,67.9z"/>
	<path d="M201.3,37.1c1.2,0.4,1.2,0.7,1.1,1.9c0,3-2.2,7.2-3,7.1c-0.9-0.1,0.1-0.7,0.4-3.9C200.2,38.9,198.6,36.1,201.3,37.1z"/>
</g>
</svg>
