<?xml version="1.0" encoding="utf-8"?>
<!-- Generator: Adobe Illustrator 22.0.1, SVG Export Plug-In . SVG Version: 6.00 Build 0)  -->
<svg version="1.1" id="Layer_2" xmlns="http://www.w3.org/2000/svg" xmlns:xlink="http://www.w3.org/1999/xlink" x="0px" y="0px"
	 viewBox="0 0 250 132.2" style="enable-background:new 0 0 250 132.2;" xml:space="preserve">
<g>
	<path d="M76.8,88.8c-23-2.9-22.3-20.7-20.6-34.4c1.9-15.2,11.9-35.8,10.7-35.9c-2.5-0.3-20.9,22.4-24.6,28.6
		c-3.3,5.5-8,25.5-8.2,26.9c-0.2,1.3-0.6,1.6-2.5,1.4c-1.6-0.2-1.2-1.3-0.9-2.4c5-19.4,16.5-50.5,12.8-51c-3.7-0.5-29.7,11-33.1,8.3
		c-2.4-1.9,0.1-1.4,5.7-3c7-1.9,22.8-10.4,29.7-9.5c6.9,0.9-3.4,21.8-1.7,22c1.6,0.2,21-28.3,25.9-27.7c6.4,0.8-9.1,27.4-11,42.5
		s-0.8,30.3,17.8,32.6c1.3,0.2,2.1,0.3,2,0.9S77.8,88.9,76.8,88.8z"/>
	<path d="M72.9,70.8c4.3,0.4,6.9-3.1,6.9-3c0,0,1.4,1.2,4.2,1.5c6.4,0.6,17.2-11.4,20.2-11.1c3.7,0.4-1.4,11.1,0.8,11.3
		c2.3,0.2,6.1-11.1,7.4-10.9c0.2,2,0.7,4.9,5.7,5.4c8.6,0.9,20.7-7.2,23.2-7c1.9,0.2-3.6,7.5,0,7.9c1.7,0.2,7.3-6.9,7.4-6.8
		c0.1,0.1,0.6,3.4,5,3.8c6.6,0.7,13.1-3.9,13.1-3.9c0.2,3.2,1.3,5.6,5.9,6.1c6.6,0.7,11.5-5.8,11.5-5.8c-0.4,2-1,5.1-1.6,8.9
		c-12.4,11.2-16.9,20.8-17.9,31.3c-0.5,4.9,1.7,9.2,4.8,9.5c9.7,1,10.7-19,15.1-39.7c5-4,14.3-8.5,19.2-13.3
		c5.4-5.2,10.2-12.5,12.4-12.3c1.8,0.2-0.9,6.4-3.6,10.6c-0.7-0.4-1.6-0.7-3.2-0.9c-4-0.4-4.8,5.2-0.6,5.7c1.4,0.1,2.5-0.8,3.7-2.1
		c2.1,1.1,6.5,2.1,9.6,2.1c15.5-0.4,19.2-10.6,18.1-10.6c-1.5,0-2.7,8.3-18.2,8.7c-3.4,0.1-7.2-1.2-8.1-1.9c4-5.3,8.4-14.3,3.8-14.7
		c-5.3-0.5-9.3,10.6-17.9,16.9c-5.6,4.1-6.9,5.1-14.7,9.7c0.6-2.8,1.6-7.4,2.4-10.1c1.9-6.5,3.2-7.4,1.7-7.5
		c-1.5-0.1-7.8,13.3-15.8,12.8c-3.3-0.2-4.5-2.6-3.9-5.1c0.6-2.6,4.3-6.8,1.6-7c-1.4-0.1-6.7,11.8-17.8,10.7
		c-7.1-0.7,2.2-9.1-0.9-9.4c-1.6-0.2-7.2,10.2-9,10c0.3-3.2,0.8-6.2-1.6-6.4c-4.8-0.5-14.6,8.2-24,7.3c-6.2-0.6,0.2-9-2.5-9.5
		c-1.8-0.3-6.7,12-7.9,11.9c-0.4,0,3.3-8-1.4-8.5c-5.5-0.6-14.9,12-21.5,11.3c-4.2-0.4-2.2-5.2-0.9-8.9c1.3-3.7,2-7.6-1.9-8
		S68.7,57.4,68,64.1C67.6,68.3,68.8,70.4,72.9,70.8z M79.8,61.5c-1.4,4.3-3.7,6.6-5.9,6.3c-1.5-0.1-2.5-1.6-2.3-3.9
		c0.4-4.5,7-12.5,9.3-12.3C83.3,51.9,81.4,57,79.8,61.5z M171,104.6c-1.9-0.2-3.8-2.1-3.3-7c1.1-10.9,4.3-17.5,14.5-27.8
		C179.8,84.4,176.2,105.1,171,104.6z M208.9,56.9c-2.3-0.2-1.6-2.7-0.1-2.5c0.5,0.1,1.4,0.2,2.1,1C210.5,56.2,209.9,57,208.9,56.9z"
		/>
	<path d="M201.3,26.1c1.2,0.4,1.2,0.7,1.1,1.9c0,3-2.2,7.2-3,7.1c-0.9-0.1,0.1-0.7,0.4-3.9C200.2,27.9,198.6,25.1,201.3,26.1z"/>
</g>
<g>
	<g>
		<path d="M117.4,118.7c0.8-0.1,0-3-0.4-4.6c-0.4-1.5-1-4-1.6-4c-0.6,0,0.1,3.4,0.4,4.7C116.2,116.1,116.9,118.7,117.4,118.7z"/>
		<path d="M120.8,113.4c0.1,2.4,0.2,4.4,0.9,4.4c0.6,0,0.5-2.5,0.4-4.1c-0.1-1.6-0.3-3.6-0.8-3.6
			C120.7,110.2,120.7,111.9,120.8,113.4z"/>
		<path d="M125.4,114.5c0-3.1,0.2-4.1,0.7-4.1c0.9,0,0.6,3.4,0.6,4.4c0,1,0.6,3.7-0.2,3.7C125.7,118.4,125.4,115.9,125.4,114.5z"/>
		<path d="M130,114.8c0-2.1,0.6-4.6,1.6-4.6s-0.4,2.8-0.4,4.5c0,1.7,0.8,4.1-0.2,4.1C130.1,118.8,130,116.4,130,114.8z"/>
	</g>
	<path d="M135.6,107.8c0.2,0.3,0,3.4-0.6,5.6c-0.4,1.5-1,3.3-1.8,4.8c-1.2,2.3-2.2,2.4-4.9,2.4c-1.5,0-6-0.3-10.6-0.6
		c-4.1-0.3-5-4.6-5.4-6c-0.9-2.9-1-4.8-0.6-5.7c-0.9,0.8-2.9,1.2-5,1.3c2.9,0.1,3.1,2.4,5.9,9.4c0.4,1.2,1.3,3.5,4.1,3.5
		c2.9,0,12.3,0.1,15.2,0.1c2.9,0,3-2.5,3.4-3.9c0.4-1.4,2.5-7.7,3.2-8.6c0-0.1,0.1-0.1,0.2-0.2C137.6,109.5,136.8,107.3,135.6,107.8
		z"/>
	<g>
		<g>
			<path d="M113.9,93.8c1.5,0.2,1.7-2.1,2.2-2.3c0.6-0.2,1.5-2.3-1.3-2.3s-4.5,1.2-3.1,1.9C113.5,92,112.5,93.6,113.9,93.8z"/>
			<path d="M108.4,98.5c-0.5,1.2-1.2,2.4-0.6,2.7c0.8,0.4,0.2,0.6,3,0.4c1.4-0.1,3-1.2,0.7-2.4C109.6,98.4,108.9,97.2,108.4,98.5z"
				/>
			<path d="M119.6,100c2.1-1.1,3.5-1.5,4.1-1.5s2.3-1.6-0.4-2.6c-2.7-1-2.5-0.5-3.6,0.6C118.7,97.5,118.3,100.6,119.6,100z"/>
			<path d="M132.1,101.7c1.5,0.8,2.1,0.2,3.2-1.4c0.4-0.5,2.5-3-0.4-2.6c-1.1,0.2-1.3-0.4-2.4,0.7C131.6,99.4,130.9,101,132.1,101.7
				z"/>
			<path d="M126.2,91.7c1.7,1,3.1-0.2,3.7-0.1c0.6,0,2.3-1.6-0.4-2.6c-2.7-1-2.4,0.5-3.9,0.4C124,89.4,125,91,126.2,91.7z"/>
		</g>
		<path d="M146.7,101.3c0-3.1-2.2-8.4-6.5-12.8c-4-4.1-9.7-7.3-19.1-7.3c-15.9,0-24.6,11.8-24.6,19.3c0,5.9,3.9,9.1,9.6,9
			c0.1,0,0.2,0,0.4,0c2.1-0.1,4-0.5,5-1.3c0.7-0.6,1.1-1,2.1-0.6c1.4,0.7,1.9,1.1,3.2,1.1c2.1,0,2.9-1.2,3.8-1.2
			c0.8,0,1.6,1.8,3.9,1.8c1.5,0,3.7-1.5,4.3-1.5s1.9,1.3,3.2,1.3s1.5-1.1,2.7-1.3c0.6-0.1,1.1-0.1,1.6,0.5c0.5,0.6,1.4,1.3,2.4,1.5
			C140.1,108.6,146.7,108.4,146.7,101.3z M139.5,107.1c-1.6,0-2-2-3.5-2c-2.1,0-2.5,2.3-3.8,2.3c-1.6,0-1.6-2.6-3.1-2.6
			c-1.5,0-2.9,2.6-4.8,2.6c-2.1,0-1.9-3.2-3.2-3.2c-1.8,0-3.1,2.8-3.6,2.8c-2,0-2.5-2.3-4.3-2.3c-2,0-2,1.9-3.4,2.3
			c-1.2,0.3-2.6,0.6-6.5,0.1c-2.5-0.4-4.7-2.4-4.7-6.2c0-6.8,7.5-16.7,23.4-16.7c15,0,22.4,9.4,22.4,17
			C144.4,106.9,140.4,107.1,139.5,107.1z"/>
	</g>
</g>
</svg>
