<?xml version="1.0" encoding="utf-8"?>
<!-- Generator: Adobe Illustrator 22.0.1, SVG Export Plug-In . SVG Version: 6.00 Build 0)  -->
<svg version="1.1" id="Layer_1" xmlns="http://www.w3.org/2000/svg" xmlns:xlink="http://www.w3.org/1999/xlink" x="0px" y="0px"
	 viewBox="0 0 554.7 554.7" style="enable-background:new 0 0 554.7 554.7;" xml:space="preserve">
<style type="text/css">
	.st0{display:none;}
	.st1{display:inline;}
	.st2{fill:#010002;}
</style>
<g id="Layer_1_1_" class="st0">
	<g class="st1">
		<g>
			<path class="st2" d="M468.7,197.8c3.5,4.3,4.7,9.5,3.9,15.5l-16.4,94c-0.6,4.9-2.8,8.9-6.7,12.1c-3.9,3.2-8.3,4.7-13.2,4.7H197.4
				l-4.7,26.7h227.7c5.5,0,10.2,1.9,14.2,5.8s6,8.7,6,14.4s-2,10.6-6,14.4c-4,3.9-8.8,5.8-14.2,5.8H168.5c-6,0-11.2-2.4-15.5-7.3
				c-4-4.9-5.6-10.5-4.7-16.8l10.8-58.7l-16.4-164.8l-46.6-14.7c-5.5-1.7-9.4-5-11.9-9.9c-2.4-4.9-2.9-10.1-1.5-15.5
				c1.7-5.5,5.1-9.4,10.1-11.9c5-2.4,10.1-2.9,15.3-1.5l59.5,19c3.7,1.2,6.8,3.3,9.3,6.5c2.4,3.2,4,6.8,4.5,10.8l3.5,32.8l270,30.2
				C460.9,190.4,465.5,193.2,468.7,197.8z M199.1,402.6c8.6,0,16,3,22,9.1c6,6,9.1,13.4,9.1,22s-3,16-9.1,22.2
				c-6,6.2-13.4,9.3-22,9.3s-16-3.1-22-9.3c-6-6.2-9.1-13.6-9.1-22.2s3-16,9.1-22C183.2,405.7,190.5,402.6,199.1,402.6z
				 M383.3,402.6c8.6,0,16,3,22,9.1c6,6,9.1,13.4,9.1,22s-3,16-9.1,22.2c-6,6.2-13.4,9.3-22,9.3s-16-3.1-22-9.3
				c-6-6.2-9.1-13.6-9.1-22.2s3-16,9.1-22S374.7,402.6,383.3,402.6z"/>
		</g>
	</g>
</g>
<path d="M441.1,214c-0.8-0.6-1.7-1.1-2.7-1.4c-0.4-0.1-1.1-0.2-1-0.2h-0.3l-1.1-0.1l-17-2.3l-34.5-4.9l-34-4.7l-17-2.4l-1-0.1
	l-0.7-1.4l-3.8-7.7l-7.5-15.4l-7.4-15.5l-14.8-31c-2.5-5.1-4.9-10.3-7.5-15.4l-3.8-7.7l-0.2-0.5l-0.1-0.2c0.1,0.1-0.1-0.3-0.5-0.9
	c-0.6-1-1.5-1.9-2.6-2.6c-1-0.6-2.2-1-3.4-1.2c-2.3-0.3-4.9,0.4-6.8,2.1c-0.5,0.4-0.9,0.9-1.3,1.4c-0.3,0.4-0.7,1.2-0.8,1.3
	l-0.2,0.5l-1.9,3.9c-5,10.3-9.9,20.6-14.8,31l-27.9,59.8l-0.6,0.1l-4.3,0.6l-8.5,1.2l-17,2.3l-34,4.7c-11.3,1.6-22.7,3.2-34,4.9
	l-4.3,0.6l-1.1,0.2l-0.5,0.1c0.2-0.1-1.5,0.2-2.6,0.7c-1.2,0.5-2.3,1.3-3.1,2.3c-0.9,1-1.5,2.1-1.8,3.3c-0.7,2.4-0.3,5.3,1.2,7.4
	c0.4,0.5,0.8,1,1.2,1.4l0.2,0.2l0.4,0.4l0.8,0.7l1.5,1.5l3.1,3l12.4,11.9l24.8,23.8l24.9,23.7l6.2,5.9l1.4,1.4l-2.5,15.9l-5.4,33.9
	l-5.5,33.9l-2.8,17l-0.3,2.1l-0.1,0.7c-0.2,1.2-0.1,2.5,0.3,3.7c0.7,2.5,2.5,4.4,4.7,5.4c1.1,0.5,2.3,0.8,3.6,0.8s2.6-0.3,3.6-0.8
	c0.8-0.4,0.4-0.2,0.6-0.3l0.2,0l0.5-0.3l1.9-1l7.6-4l15.2-8l15.3-7.9l30.5-15.8l15.2-8l6-3.2l1.6,0.8c10.2,5.3,20.4,10.4,30.7,15.5
	l30.8,15.2l15.4,7.6l7.7,3.8l3.8,1.9l1.9,1l1,0.5l0.2,0.1c0.3,0.2,0.9,0.5,1.5,0.6c1.1,0.3,2.4,0.4,3.6,0.2c2.4-0.4,4.5-1.8,5.8-3.8
	c0.6-1,1-2.2,1.2-3.4c0-0.6,0.1-1.2,0-1.8c-0.1-0.7-0.1-0.9-0.1-0.9l-0.4-2.1l-0.8-4.2l-1.6-8.4l-3.2-16.9l-6.3-33.8l-6.3-33.8
	l-0.8-4l4.6-4.6l12.1-12.2l48.6-48.6l6.1-6.1l3-3c-0.1,0,0.5-0.6,0.7-0.9c0.3-0.4,0.6-0.8,0.8-1.3c0.4-1,0.6-2,0.6-3
	C443.5,217.3,442.7,215.3,441.1,214z M330.3,197.6C330.3,197.6,330.3,197.6,330.3,197.6C330.2,197.6,330.3,197.6,330.3,197.6z
	 M330.2,197.6C330.2,197.6,330.1,197.6,330.2,197.6C330.1,197.6,330.2,197.6,330.2,197.6z M284.6,109.6c0,0,0,0.1-0.1,0.3
	L284.6,109.6z M124.7,228.3C124.7,228.3,124.7,228.3,124.7,228.3L124.7,228.3z M191.2,406.5c-0.1,0.3,0-0.1,0-0.1v-0.3l0.1-0.4
	C191.2,406,191.2,406.3,191.2,406.5z M372.6,404.4c0-0.1-0.1-0.3-0.1-0.5l0.2,0.9C372.7,405,372.7,405,372.6,404.4z M375.4,273.4
	l-12.3,12l-6.1,6l-0.5,0.5c-0.8,0.8-1.3,1.8-1.7,2.8c-0.4,1-0.5,2.1-0.4,3.2c0.1,0.7,0.1,0.7,0.1,0.8v0.3l0.4,2.1l0.7,4.2l5.9,33.9
	l5.8,33.9l2.9,16.9l0.5,3.2l-4-2.1l-15.1-8.1l-30.3-16.3c-10.1-5.4-20.2-10.7-30.4-16l-3.8-2l-1-0.5l-0.2-0.1
	c-0.3-0.2-1.2-0.5-1.8-0.7c-1.4-0.4-2.8-0.5-4.2-0.3c-0.7,0.1-1.3,0.2-2,0.5c-0.7,0.3-1.3,0.7-1.2,0.6l-0.5,0.3l-0.9,0.5l-7.6,4.1
	l-15.1,8.2l-30,16.7l-15,8.4l-14.5,8l1.2-7.4l5.5-33.9l5.6-33.9l2.8-16.9l0.4-2.1c0,0.2,0.1-0.9,0.1-1.4c0-0.7-0.1-1.3-0.2-1.9
	c-0.2-1.2-0.8-2.4-1.5-3.4c-0.2-0.4-1-1.2-1-1.2l-0.2-0.2l-0.4-0.4l-3.1-3l-6.2-6l-24.7-23.9L146.6,235l-9.2-8.8
	c9-1.4,18-2.9,27.1-4.4l33.9-5.7l16.9-2.9l8.5-1.4l4.2-0.7l2.1-0.4l0.5-0.1h0.3c-0.1,0,0.2,0,0.9-0.2c2.1-0.6,3.9-2.1,4.8-4
	l30.8-61.5c4-8.1,8-16.2,11.9-24.3c2.2,4.3,4.4,8.5,6.6,12.8l16.1,30.4l8,15.2l8.5,15.4l3.9,7.6l1,1.9l0.5,1l0.2,0.5
	c0.1,0.2,0,0,0.3,0.6c0.3,0.4,0.6,0.8,0.9,1.2c0.7,0.7,1.5,1.3,2.4,1.7c0.4,0.2,0.9,0.3,1.4,0.4l0.5,0.1l1.1,0.1l2.1,0.3l17,2.3
	l34,4.6l34,4.8l9.2,1.3l-2.5,2.5L375.4,273.4z M365.3,300.8C365.3,300.8,365.3,300.8,365.3,300.8
	C365.3,300.8,365.3,300.8,365.3,300.8z"/>
</svg>
