<svg id="Layer_1" data-name="Layer 1" xmlns="http://www.w3.org/2000/svg" viewBox="0 0 329.23 315.77"><title>specials-icon-black2</title><path d="M326.73,115.67a8.67,8.67,0,0,0-2.7-1.4c-0.4-.1-1.1-0.2-1-0.2h-0.3l-1.1-.1-17-2.3-34.5-4.9-34-4.7-17-2.4-1-.1-0.7-1.4-3.8-7.7-7.5-15.4-7.4-15.5-14.8-31c-2.5-5.1-4.9-10.3-7.5-15.4l-3.8-7.7-0.2-.5-0.1-.2a2.27,2.27,0,0,0-.5-0.9,8.07,8.07,0,0,0-2.6-2.6,9.85,9.85,0,0,0-3.4-1.2,8.83,8.83,0,0,0-8.1,3.5c-0.3.4-.7,1.2-0.8,1.3l-0.2.5-1.9,3.9c-5,10.3-9.9,20.6-14.8,31l-27.9,59.8-0.6.1-4.3.6-8.5,1.2-17,2.3-34,4.7c-11.3,1.6-22.7,3.2-34,4.9l-4.3.6-1.1.2-0.5.1a8.53,8.53,0,0,0-2.6.7,7.88,7.88,0,0,0-3.1,2.3,7.68,7.68,0,0,0-1.8,3.3,8.86,8.86,0,0,0,1.2,7.4,17.41,17.41,0,0,0,1.2,1.4l0.2,0.2,0.4,0.4,0.8,0.7,1.5,1.5,3.1,3,12.4,11.9,24.8,23.8,24.9,23.7L77,201l1.4,1.4-2.5,15.9-5.4,33.9L65,286.07l-2.8,17-0.3,2.1-0.1.7a7.79,7.79,0,0,0,.3,3.7,8.47,8.47,0,0,0,4.7,5.4,8.63,8.63,0,0,0,3.6.8A8.29,8.29,0,0,0,74,315l0.6-.3h0.2l0.5-.3,1.9-1,7.6-4,15.2-8,15.3-7.9,30.5-15.8,15.2-8,6-3.2,1.6,0.8c10.2,5.3,20.4,10.4,30.7,15.5l30.8,15.2,15.4,7.6,7.7,3.8,3.8,1.9,1.9,1,1,0.5,0.2,0.1a4.24,4.24,0,0,0,1.5.6,8.48,8.48,0,0,0,9.4-3.6,9.85,9.85,0,0,0,1.2-3.4,10.82,10.82,0,0,0,0-1.8,8.14,8.14,0,0,1-.1-0.9l-0.4-2.1-0.8-4.2-1.6-8.4-3.2-16.9-6.3-33.8-6.3-33.8-0.8-4,4.6-4.6,12.1-12.2,48.6-48.6,6.1-6.1,3-3a7.61,7.61,0,0,1,.7-0.9,5.67,5.67,0,0,0,.8-1.3,8,8,0,0,0,.6-3A7.19,7.19,0,0,0,326.73,115.67Zm-110.8-16.4h0Zm-0.1,0h0Zm-45.6-88a0.77,0.77,0,0,1-.1.3ZM10.33,130h0Zm66.5,178.2c-0.1.3,0-.1,0-0.1v-0.3l0.1-.4A2.48,2.48,0,0,0,76.83,308.17Zm181.4-2.1a4.33,4.33,0,0,1-.1-0.5l0.2,0.9C258.33,306.67,258.33,306.67,258.23,306.07Zm2.8-131-12.3,12-6.1,6-0.5.5a8.11,8.11,0,0,0-1.7,2.8,6.91,6.91,0,0,0-.4,3.2,6,6,0,0,1,.1.8v0.3l0.4,2.1,0.7,4.2,5.9,33.9,5.8,33.9,2.9,16.9,0.5,3.2-4-2.1-15.1-8.1-30.3-16.3c-10.1-5.4-20.2-10.7-30.4-16l-3.8-2-1-.5-0.2-.1a11.32,11.32,0,0,0-1.8-.7,10,10,0,0,0-4.2-.3,7.34,7.34,0,0,0-2,.5c-0.7.3-1.3,0.7-1.2,0.6l-0.5.3-0.9.5-7.6,4.1-15.1,8.2-30,16.7-15,8.4-14.5,8,1.2-7.4,5.5-33.9,5.6-33.9,2.8-16.9,0.4-2.1a11.35,11.35,0,0,0,.1-1.4,11.08,11.08,0,0,0-.2-1.9,8.65,8.65,0,0,0-1.5-3.4,7.61,7.61,0,0,0-1-1.2l-0.2-.2-0.4-.4-3.1-3-6.2-6L57,160.47l-24.8-23.8-9.2-8.8c9-1.4,18-2.9,27.1-4.4l33.9-5.7,16.9-2.9,8.5-1.4,4.2-.7,2.1-.4,0.5-.1h0.3a7.2,7.2,0,0,0,.9-0.2,7.7,7.7,0,0,0,4.8-4L153,46.57c4-8.1,8-16.2,11.9-24.3,2.2,4.3,4.4,8.5,6.6,12.8l16.1,30.4,8,15.2,8.5,15.4,3.9,7.6,1,1.9,0.5,1,0.2,0.5,0.3,0.6,0.9,1.2a8.07,8.07,0,0,0,2.4,1.7,5.73,5.73,0,0,0,1.4.4l0.5,0.1,1.1,0.1,2.1,0.3,17,2.3,34,4.6,34,4.8,9.2,1.3-2.5,2.5Zm-10.1,27.4h0Z"/></svg>