<?xml version="1.0" encoding="utf-8"?>
<!-- Generator: Adobe Illustrator 22.1.0, SVG Export Plug-In . SVG Version: 6.00 Build 0)  -->
<svg version="1.1" id="Layer_1" xmlns="http://www.w3.org/2000/svg" xmlns:xlink="http://www.w3.org/1999/xlink" x="0px" y="0px"
	 viewBox="0 0 554.7 554.7" style="enable-background:new 0 0 554.7 554.7;" xml:space="preserve">
<style type="text/css">
	.st0{display:none;}
	.st1{display:inline;}
	.st2{fill:#010002;}
	.st3{fill:#4B2418;}
</style>
<g id="Layer_1_1_" class="st0">
	<g class="st1">
		<g>
			<path class="st2" d="M468.7,197.8c3.5,4.3,4.7,9.5,3.9,15.5l-16.4,94c-0.6,4.9-2.8,8.9-6.7,12.1c-3.9,3.2-8.3,4.7-13.2,4.7H197.4
				l-4.7,26.7h227.7c5.5,0,10.2,1.9,14.2,5.8s6,8.7,6,14.4s-2,10.6-6,14.4c-4,3.9-8.8,5.8-14.2,5.8H168.5c-6,0-11.2-2.4-15.5-7.3
				c-4-4.9-5.6-10.5-4.7-16.8l10.8-58.7l-16.4-164.8l-46.6-14.7c-5.5-1.7-9.4-5-11.9-9.9c-2.4-4.9-2.9-10.1-1.5-15.5
				c1.7-5.5,5.1-9.4,10.1-11.9c5-2.4,10.1-2.9,15.3-1.5l59.5,19c3.7,1.2,6.8,3.3,9.3,6.5c2.4,3.2,4,6.8,4.5,10.8l3.5,32.8l270,30.2
				C460.9,190.4,465.5,193.2,468.7,197.8z M199.1,402.6c8.6,0,16,3,22,9.1c6,6,9.1,13.4,9.1,22s-3,16-9.1,22.2
				c-6,6.2-13.4,9.3-22,9.3s-16-3.1-22-9.3c-6-6.2-9.1-13.6-9.1-22.2s3-16,9.1-22C183.2,405.7,190.5,402.6,199.1,402.6z
				 M383.3,402.6c8.6,0,16,3,22,9.1c6,6,9.1,13.4,9.1,22s-3,16-9.1,22.2c-6,6.2-13.4,9.3-22,9.3s-16-3.1-22-9.3
				c-6-6.2-9.1-13.6-9.1-22.2s3-16,9.1-22S374.7,402.6,383.3,402.6z"/>
		</g>
	</g>
</g>
<path class="st3" d="M420.8,214.3c-0.1-3-0.6-6-1.7-8.8c-1-2.8-2.5-5.4-4.3-7.7c-1.9-2.3-4.1-4.3-6.6-5.9c-2.5-1.6-5.2-2.9-8.1-3.6
	c-0.7-0.2-1.5-0.3-2.2-0.5l-1.1-0.2l-0.7-0.1l-2.6-0.4l-10.5-1.4l-21.1-2.8c-28.2-3.8-43.2-4.9-71.6-8.3
	c-28.4-3.5-16.8-2.7-45.2-5.9l-59.1-6.5c-4.1-1.5-6.4-11-7.6-14.2s-3.5-8.8-8.1-10.6l-0.3-0.1l-30.8-12.2
	c-10.3-4-20.5-8.2-30.7-12.3c-0.1-0.1-0.3-0.1-0.5-0.2c-7.6-2.7-13.8-1.3-15.5,2.5c-2,6.1,0.8,11,8,13.6
	c10.3,3.7,20.5,7.4,30.8,11.1l28.1,10.2c7.4,2,18.6,107.8,12.1,170.1c-2,19.6-13.8,56.9,9.2,56.1c92.2-3.3,190.6,2.2,198.2,2.2
	c7.6,0,16.7-1.6,16.7-8.1c0-7.8-10-9.2-19.6-9.6c-9.6-0.4-188.6-2.6-188.6-2.6c-1.5,0-2.6-1.4-2.3-2.9l2.9-36.6
	c0.4-1.7,2-2.9,3.7-2.8c50.5,2.6,54.5,2.3,104.9,5.5c13.7,0.8,27.4,1.8,41.1,2.5l10.3,0.6l10.3,0.5c3.4,0.2,7,0.3,10.5,0.4
	c3.4,0.2,7.3,0.2,11.1,0.2c1.9-0.1,4.1-0.5,5.9-1.1c1.8-0.7,3.5-1.5,4.9-2.5c2.8-1.9,4.7-4,6.3-5.9c3.1-4,5-7.7,6.6-11.4
	c3.2-7.3,5.2-14.4,7-21.4c3.4-14,5.6-27.9,7.3-41.8c0.9-6.9,1.6-13.9,2.3-20.8l0.2-2.6C420.7,217.6,420.8,215.7,420.8,214.3z
	 M383.5,308c-9.2,5.4-168.3-7.1-189.3-9.4c-1.7-0.2-3-1.5-3.2-3.1c1.1-34.1-5-113.3-5-113.3c-0.2-1.5,1.1-2.7,2.6-2.5
	c0,0,176.3,13.3,204.2,21.6c7.8,2.3,11.1,11.4,11.6,16.1C406.5,240.3,400.3,298.3,383.5,308z"/>
<g>
	<path class="st3" d="M189.2,392.7c3.9,0,7.8,0.8,11.4,2.3c3.6,1.5,6.9,3.7,9.6,6.5c5.5,5.5,8.5,13.3,8.4,21c0,3.8-0.9,7.7-2.4,11.2
		c-1.5,3.5-3.7,6.7-6.4,9.4c-5.4,5.4-13,8.5-20.6,8.4c-7.6,0-15.2-3.1-20.6-8.4c-2.7-2.7-4.9-5.9-6.4-9.4c-1.5-3.5-2.3-7.4-2.4-11.2
		c-0.1-7.7,3-15.5,8.4-21c2.7-2.8,6-5,9.6-6.5C181.4,393.4,185.3,392.7,189.2,392.7z M189.2,406.7c-4.2,0-8.2,1.6-11.2,4.5
		c-3,2.9-4.8,7-4.9,11.2c-0.1,4.2,1.5,8.5,4.5,11.6c1.5,1.5,3.3,2.8,5.3,3.6c2,0.8,4.1,1.3,6.3,1.3c2.2,0,4.3-0.4,6.3-1.3
		c2-0.8,3.8-2.1,5.3-3.6c3-3.1,4.6-7.3,4.5-11.6c-0.1-4.3-1.9-8.3-4.9-11.2C197.4,408.3,193.3,406.6,189.2,406.7z"/>
</g>
<g>
	<path class="st3" d="M389.1,435.4c-2,3.4-4.6,6.5-7.8,8.9c-3.2,2.4-6.8,4.1-10.6,5.1c-3.8,1-7.8,1.1-11.7,0.6
		c-3.9-0.6-7.6-2-10.9-4c-6.6-4-11.4-10.7-13.2-18c-1.9-7.3-0.8-15.3,2.9-21.8c3.7-6.5,9.9-11.6,17.2-13.7
		c7.2-2.2,15.4-1.5,22.2,2.1c3.4,1.8,6.5,4.3,9,7.3c2.5,3,4.4,6.5,5.5,10.3c1.1,3.8,1.5,7.8,1.1,11.8
		C392.3,428.1,391,431.9,389.1,435.4z M376,428c2-3.5,2.7-7.7,1.7-11.8c-0.9-4-3.4-7.7-7-10c-1.8-1.2-3.9-2-6-2.4
		c-2.1-0.4-4.4-0.3-6.6,0.2c-2.2,0.5-4.2,1.5-6,2.8c-1.8,1.3-3.3,3.1-4.4,5c-1.1,2-1.8,4.2-2,6.4c-0.2,2.2,0,4.5,0.7,6.6
		c0.7,2.1,1.8,4.1,3.2,5.7c1.4,1.7,3.2,3,5.1,3.9c3.9,1.9,8.3,2.2,12.2,0.9C370.8,434.2,374,431.5,376,428z"/>
</g>
</svg>
