<?xml version="1.0" encoding="utf-8"?>
<!-- Generator: Adobe Illustrator 22.0.1, SVG Export Plug-In . SVG Version: 6.00 Build 0)  -->
<svg version="1.1" id="Layer_1" xmlns="http://www.w3.org/2000/svg" xmlns:xlink="http://www.w3.org/1999/xlink" x="0px" y="0px"
	 viewBox="0 0 554.7 554.7" style="enable-background:new 0 0 554.7 554.7;" xml:space="preserve">
<style type="text/css">
	.st0{display:none;}
	.st1{display:inline;}
	.st2{fill:#010002;}
	.st3{fill:#4B2418;}
</style>
<g id="Layer_1_1_" class="st0">
	<g class="st1">
		<g>
			<path class="st2" d="M468.7,197.8c3.5,4.3,4.7,9.5,3.9,15.5l-16.4,94c-0.6,4.9-2.8,8.9-6.7,12.1c-3.9,3.2-8.3,4.7-13.2,4.7H197.4
				l-4.7,26.7h227.7c5.5,0,10.2,1.9,14.2,5.8s6,8.7,6,14.4s-2,10.6-6,14.4c-4,3.9-8.8,5.8-14.2,5.8H168.5c-6,0-11.2-2.4-15.5-7.3
				c-4-4.9-5.6-10.5-4.7-16.8l10.8-58.7l-16.4-164.8l-46.6-14.7c-5.5-1.7-9.4-5-11.9-9.9c-2.4-4.9-2.9-10.1-1.5-15.5
				c1.7-5.5,5.1-9.4,10.1-11.9c5-2.4,10.1-2.9,15.3-1.5l59.5,19c3.7,1.2,6.8,3.3,9.3,6.5c2.4,3.2,4,6.8,4.5,10.8l3.5,32.8l270,30.2
				C460.9,190.4,465.5,193.2,468.7,197.8z M199.1,402.6c8.6,0,16,3,22,9.1c6,6,9.1,13.4,9.1,22s-3,16-9.1,22.2
				c-6,6.2-13.4,9.3-22,9.3s-16-3.1-22-9.3c-6-6.2-9.1-13.6-9.1-22.2s3-16,9.1-22C183.2,405.7,190.5,402.6,199.1,402.6z
				 M383.3,402.6c8.6,0,16,3,22,9.1c6,6,9.1,13.4,9.1,22s-3,16-9.1,22.2c-6,6.2-13.4,9.3-22,9.3s-16-3.1-22-9.3
				c-6-6.2-9.1-13.6-9.1-22.2s3-16,9.1-22S374.7,402.6,383.3,402.6z"/>
		</g>
	</g>
</g>
<g id="Layer_2_1_">
	<g>
		<path class="st3" d="M474,220.9c-0.1-3-0.6-6-1.7-8.8c-1-2.8-2.5-5.4-4.3-7.7c-1.9-2.3-4.1-4.3-6.6-5.9c-2.5-1.6-5.2-2.9-8.1-3.6
			c-0.7-0.2-1.5-0.3-2.2-0.5l-1.1-0.2l-0.7-0.1l-2.6-0.4l-10.5-1.4l-21.1-2.8c-28.2-3.8-56.4-7.4-84.8-10.8
			c-28.4-3.5-56.7-6.8-85.1-10l-59.1-6.5c-1.8-0.2-3.3-1.7-3.5-3.5l-2.3-21.3c-0.5-4.6-3.5-8.8-8.1-10.6l-0.3-0.1l-30.8-12.2
			c-10.3-4-20.5-8.2-30.7-12.3c-0.1-0.1-0.3-0.1-0.5-0.2c-7.6-2.7-16,1.4-18.4,9.2c-2.3,7.3,1.9,15,9.1,17.6
			c10.3,3.7,20.5,7.4,30.8,11.1l20.3,7.4c2.1,0.8,3.7,2.7,4,5l3.9,29.5l4.2,32.5c0.4,5.9,0.9,11.9,1.4,17.9
			c2,24.6,4.6,49.4,7.5,73.7v0.1c0.4,3.1,0.4,6.2-0.3,9.2l-4.2,18.9l-7.3,32.5v0.1c-0.2,1.1-0.3,2.2-0.2,3.4
			c0.5,6.1,5.8,10.6,11.9,10.6l62.4-0.3c20.9,0,41.8,0,62.7,0.3c20.9,0.3,41.8,0.7,62.7,1c20.9,0.4,41.8,0.6,62.7,0.7
			c0.1,0,0.2,0,0.3,0c8.2-0.1,14.6-7,14.1-15.3c-0.5-7.7-7.2-13.6-14.9-13.4c-20.8,0.3-41.5,0.7-62.3,1.2
			c-20.9,0.5-41.8,1.1-62.7,1.6c-20.9,0.5-41.8,0.7-62.7,0.8l-45.2,0.1c-1.5,0-2.6-1.4-2.3-2.9l3.5-15.4l4-17.4
			c0.4-1.7,2-2.9,3.7-2.8c50.5,2.6,100.9,5.9,151.3,9.1c13.7,0.8,27.4,1.8,41.1,2.5l10.3,0.6l10.3,0.5c3.4,0.2,7,0.3,10.5,0.4
			c3.4,0.2,7.3,0.2,11.1,0.2c1.9-0.1,4.1-0.5,5.9-1.1c1.8-0.7,3.5-1.5,4.9-2.5c2.8-1.9,4.7-4,6.3-5.9c3.1-4,5-7.7,6.6-11.4
			c3.2-7.3,5.2-14.4,7-21.4c3.4-14,5.6-27.9,7.3-41.8c0.9-6.9,1.6-13.9,2.3-20.8l0.2-2.6C473.9,224.2,474,222.3,474,220.9z
			 M450.3,225.3c-0.6,6.7-1.3,13.4-2.1,20c-1.6,13.3-3.7,26.5-6.8,39.1c-1.5,6.2-3.4,12.4-5.6,17.6c-1.1,2.6-2.4,5-3.6,6.4
			c-0.3,0.4-0.5,0.6-0.7,0.9c-2.8,0-5.4,0-8.6-0.1c-3.4-0.1-6.7-0.2-10.1-0.4l-10.2-0.6l-10.2-0.6l-20.4-1.3
			c-6.8-0.4-13.6-1-20.4-1.5c-13.6-1.1-27.3-2.1-40.9-3.2l-20.5-1.8c-6.8-0.6-13.6-1.2-20.4-1.8c-22.4-2-44.9-4.2-67.2-6.6
			c-1.7-0.2-3-1.5-3.2-3.1c-2.1-15.7-4.5-31.2-7.2-46.8c-0.4-2.1-0.8-4.3-1.2-6.5l-1.7-14.8l-4.1-37c-0.2-1.5,1.1-2.7,2.6-2.5
			l70.6,10.8c25.9,3.9,51.9,7.7,77.8,11.3c26,3.7,52,7.2,78.1,10.5l19.6,2.6l9.8,1.3l2.5,0.3l0.6,0.1c0.1,0,0.1,0,0.2,0
			s0.2,0,0.3,0.1c0.4,0.1,0.8,0.3,1.2,0.5c0.4,0.2,0.7,0.5,1,0.9s0.5,0.8,0.7,1.2c0.1,0.4,0.3,0.8,0.3,1.3
			C450.7,221.4,450.5,223.7,450.3,225.3z"/>
		<circle class="st3" cx="201" cy="435.6" r="29.2"/>
		<ellipse class="st3" cx="381.7" cy="435.6" rx="29.2" ry="29.2"/>
	</g>
</g>
</svg>
