<?xml version="1.0" encoding="utf-8"?>
<!-- Generator: Adobe Illustrator 22.0.1, SVG Export Plug-In . SVG Version: 6.00 Build 0)  -->
<svg version="1.1" id="Layer_1" xmlns="http://www.w3.org/2000/svg" xmlns:xlink="http://www.w3.org/1999/xlink" x="0px" y="0px"
	 viewBox="0 0 554.7 554.7" style="enable-background:new 0 0 554.7 554.7;" xml:space="preserve">
<style type="text/css">
	.st0{display:none;}
	.st1{display:inline;}
	.st2{fill:#010002;}
	.st3{fill:#4B2418;}
</style>
<g id="Layer_1_1_" class="st0">
	<g class="st1">
		<g>
			<path class="st2" d="M468.7,197.8c3.5,4.3,4.7,9.5,3.9,15.5l-16.4,94c-0.6,4.9-2.8,8.9-6.7,12.1c-3.9,3.2-8.3,4.7-13.2,4.7H197.4
				l-4.7,26.7h227.7c5.5,0,10.2,1.9,14.2,5.8s6,8.7,6,14.4s-2,10.6-6,14.4c-4,3.9-8.8,5.8-14.2,5.8H168.5c-6,0-11.2-2.4-15.5-7.3
				c-4-4.9-5.6-10.5-4.7-16.8l10.8-58.7l-16.4-164.8l-46.6-14.7c-5.5-1.7-9.4-5-11.9-9.9c-2.4-4.9-2.9-10.1-1.5-15.5
				c1.7-5.5,5.1-9.4,10.1-11.9c5-2.4,10.1-2.9,15.3-1.5l59.5,19c3.7,1.2,6.8,3.3,9.3,6.5c2.4,3.2,4,6.8,4.5,10.8l3.5,32.8l270,30.2
				C460.9,190.4,465.5,193.2,468.7,197.8z M199.1,402.6c8.6,0,16,3,22,9.1c6,6,9.1,13.4,9.1,22s-3,16-9.1,22.2
				c-6,6.2-13.4,9.3-22,9.3s-16-3.1-22-9.3c-6-6.2-9.1-13.6-9.1-22.2s3-16,9.1-22C183.2,405.7,190.5,402.6,199.1,402.6z
				 M383.3,402.6c8.6,0,16,3,22,9.1c6,6,9.1,13.4,9.1,22s-3,16-9.1,22.2c-6,6.2-13.4,9.3-22,9.3s-16-3.1-22-9.3
				c-6-6.2-9.1-13.6-9.1-22.2s3-16,9.1-22S374.7,402.6,383.3,402.6z"/>
		</g>
	</g>
</g>
<g>
	<path class="st3" d="M421.1,237.1l-0.2-43c-0.2-8-2-16-5.2-23.3s-7.9-14-13.6-19.6c-5.8-5.6-12.6-10.1-20-13.1
		c-7.4-3.1-15.4-4.6-23.4-4.6l-50.1-1.1c-16.6-0.1-33.1-0.1-49.7-0.3l-49.7-0.5h-3.1c-1.1,0.1-2.3,0-3.5,0.1
		c-2.4,0.1-4.8,0.3-7.1,0.7c-4.7,0.8-9.3,2-13.7,3.8c-4.5,1.8-8.7,4.1-12.6,6.8c-3.9,2.7-7.6,5.9-10.8,9.4l-0.1-0.1
		c-5.4,6.3-9.6,13.6-12.2,21.4c-1.3,3.9-2.3,7.9-2.8,12c-0.1,1.1-0.2,2.1-0.3,3.1l-0.2,3.1v3.1v2.7l0.8,42.8l0.3,21.4v2.7
		c0,1,0,2,0.1,3c0.1,2,0.4,4,0.7,6c0.7,3.9,1.7,7.8,3.1,11.5c2.8,7.5,6.8,14.4,11.9,20.4c5.1,6.1,11.4,11.2,18.7,14.8
		c1.9,0.9,3.7,1.7,5.7,2.3c0.9,0.4,1.9,0.6,2.9,0.9l0.4,0.1h0.1c0.1,0.1,0.1,0.1,0.2,0.1c0.1,0.1,0.2,0.1,0.3,0.2
		c0.9,0.4,1.6,1.7,1.3,2.9l-6.2,19.9l-6.4,20.5l-1.6,5.1l-0.4,1.3l-0.1,0.3l-0.1,0.5c0,0.2-0.1,0.4-0.1,0.6
		c-0.1,0.8-0.1,1.7,0.1,2.6c0.3,1.8,1.4,3.3,2.7,4.3c1.4,1.1,3.1,1.6,4.9,1.5c0.9-0.1,1.8-0.3,2.6-0.7c0.4-0.2,0.8-0.4,1.1-0.6
		c0.4-0.3,0.4-0.3,0.5-0.4l1.1-0.8l2.1-1.6l4.2-3.3c5.6-4.4,11.2-8.8,16.9-13.1c5.7-4.3,11.3-8.7,17-13l17.1-12.9l4.3-3.2l2.1-1.6
		c0.6-0.5,1.2-0.9,1.8-1.3c2.5-1.6,5.2-2.7,8-3.5c1.4-0.4,2.9-0.6,4.3-0.8c0.8,0,1.5-0.1,2.2-0.1c0.8,0,1.4,0,2.4,0l10.7,0.2
		l21.4,0.3c14.3,0.2,28.5,0.3,42.8,0.4h10.7h2.7c0.5,0,1,0,1.5,0h1.5c2-0.1,4-0.2,6-0.5c8-1.1,15.8-3.7,22.8-7.8
		c7-4,13.2-9.4,18.2-15.8s8.7-13.8,10.8-21.6c1.1-3.9,1.8-7.9,2.1-11.9c0.1-1,0.2-2,0.2-3s0-2.1,0-2.9v-5.4L421.1,237.1z M180,373.1
		l-0.2,0.1C179.5,373.4,179.7,373.2,180,373.1z M406.9,236.7l-0.1,21.4v5.4c0,1-0.1,1.7-0.1,2.5s0,1.5-0.1,2.3
		c-0.3,3.1-0.8,6.1-1.7,9.1c-3.4,11.9-11.6,22.3-22.3,28.5c-5.3,3.1-11.3,5.2-17.4,6c-1.5,0.2-3.1,0.3-4.6,0.4h-1.2
		c-0.4,0-0.7,0-1.2,0h-2.7h-10.7c-14.3,0.1-28.5,0.2-42.8,0.4l-21.4,0.3l-10.7,0.2c-0.8,0-1.9,0-3,0.1c-1.1,0-2.2,0.2-3.2,0.3
		c-2.1,0.3-4.2,0.8-6.2,1.4c-4,1.2-7.8,3.1-11.3,5.5c-0.9,0.6-1.7,1.3-2.5,1.9l-2.1,1.7l-4.2,3.4l-16.7,13.4
		c-5.5,4.6-11.1,9-16.7,13.4c-5.1,4-10.2,8-15.4,12.1l5.3-16.2l3.3-10.1l1.7-5l0.9-2.5l0.4-1.2c0.1-0.1,0.2-0.6,0.3-0.9
		c0.1-0.4,0.2-0.7,0.3-1.1c0.6-2.9,0.3-6-0.8-8.7c-1.2-2.8-3.2-5.2-5.8-6.8c-0.6-0.4-1.3-0.7-2-1c-0.4-0.2-0.7-0.3-1.1-0.4l-0.8-0.3
		c-0.8-0.2-1.5-0.4-2.2-0.7c-1.4-0.5-2.8-1.1-4.2-1.8c-5.5-2.8-10.3-7-14.3-12s-7.1-10.7-9.1-16.7c-1-3-1.7-6.1-2.1-9.2
		c-0.2-1.6-0.3-3.1-0.4-4.7c0-0.8,0-1.5,0-2.3v-2.6l0.3-21.4l0.8-42.8l0.1-2.7l0.1-2.3l0.2-2.3l0.3-2.3c0.5-2.9,1.3-5.9,2.4-8.7
		c2.2-5.6,5.4-10.8,9.5-15.2l-0.1-0.1c4.6-5.4,10.3-9.7,16.8-12.5c3.2-1.4,6.6-2.4,10.1-3.1c1.8-0.3,3.5-0.5,5.3-0.7
		c0.9,0,1.8-0.1,2.7-0.1h3.1l49.7-0.5c16.6-0.2,33.1-0.2,49.7-0.3l49.7-0.3c6.3,0.1,12.6,1.3,18.3,3.2c5.8,2.4,11.1,5.9,15.6,10.3
		c4.5,4.4,8.1,9.7,10.6,15.4s3.8,11.9,3.9,18.2L406.9,236.7z"/>
	<path class="st3" d="M362.2,202.1c-79.4-8.9-155.6-2.3-156.4-2.2c-3.3,0.3-5.7,3.2-5.4,6.5s3.2,5.7,6.5,5.4
		c0.7-0.1,75.8-6.5,154,2.2c0.2,0,0.5,0,0.7,0c3,0,5.6-2.3,6-5.3C367.8,205.5,365.5,202.5,362.2,202.1z"/>
	<path class="st3" d="M356.7,247.8c-9.6,0.3-25.1-0.1-43.1-0.6c-38-1.1-85.3-2.5-105.5,2.8c-3.2,0.8-5.1,4.1-4.3,7.3
		c0.7,2.7,3.1,4.5,5.8,4.5c0.5,0,1-0.1,1.5-0.2c18.5-4.9,64.8-3.5,102.1-2.5c18.2,0.5,33.8,1,43.8,0.6c3.3-0.1,5.9-2.9,5.8-6.2
		C362.8,250.3,360,247.7,356.7,247.8z"/>
</g>
</svg>
