<?xml version="1.0" encoding="utf-8"?>
<!-- Generator: Adobe Illustrator 22.1.0, SVG Export Plug-In . SVG Version: 6.00 Build 0)  -->
<svg version="1.1" id="Layer_1" xmlns="http://www.w3.org/2000/svg" xmlns:xlink="http://www.w3.org/1999/xlink" x="0px" y="0px"
	 viewBox="0 0 554.7 554.7" style="enable-background:new 0 0 554.7 554.7;" xml:space="preserve">
<style type="text/css">
	.st0{display:none;}
	.st1{display:inline;}
	.st2{fill:#010002;}
	.st3{fill:#783E2C;}
</style>
<g id="Layer_1_1_" class="st0">
	<g class="st1">
		<g>
			<path class="st2" d="M468.7,197.8c3.5,4.3,4.7,9.5,3.9,15.5l-16.4,94c-0.6,4.9-2.8,8.9-6.7,12.1c-3.9,3.2-8.3,4.7-13.2,4.7H197.4
				l-4.7,26.7h227.7c5.5,0,10.2,1.9,14.2,5.8s6,8.7,6,14.4s-2,10.6-6,14.4c-4,3.9-8.8,5.8-14.2,5.8H168.5c-6,0-11.2-2.4-15.5-7.3
				c-4-4.9-5.6-10.5-4.7-16.8l10.8-58.7l-16.4-164.8l-46.6-14.7c-5.5-1.7-9.4-5-11.9-9.9c-2.4-4.9-2.9-10.1-1.5-15.5
				c1.7-5.5,5.1-9.4,10.1-11.9c5-2.4,10.1-2.9,15.3-1.5l59.5,19c3.7,1.2,6.8,3.3,9.3,6.5c2.4,3.2,4,6.8,4.5,10.8l3.5,32.8l270,30.2
				C460.9,190.4,465.5,193.2,468.7,197.8z M199.1,402.6c8.6,0,16,3,22,9.1c6,6,9.1,13.4,9.1,22s-3,16-9.1,22.2
				c-6,6.2-13.4,9.3-22,9.3s-16-3.1-22-9.3c-6-6.2-9.1-13.6-9.1-22.2s3-16,9.1-22C183.2,405.7,190.5,402.6,199.1,402.6z
				 M383.3,402.6c8.6,0,16,3,22,9.1c6,6,9.1,13.4,9.1,22s-3,16-9.1,22.2c-6,6.2-13.4,9.3-22,9.3s-16-3.1-22-9.3
				c-6-6.2-9.1-13.6-9.1-22.2s3-16,9.1-22S374.7,402.6,383.3,402.6z"/>
		</g>
	</g>
</g>
<g>
	<path class="st3" d="M447.7,272l-0.2-52.7c-0.2-9.8-2.5-19.6-6.4-28.5s-9.7-17.2-16.7-24c-7.1-6.9-15.4-12.4-24.5-16
		c-9.1-3.8-18.9-5.6-28.7-5.6l-61.4-1.3c-20.3-0.1-40.6-0.1-60.9-0.4l-60.9-0.6h-3.8c-1.3,0.1-2.8,0-4.3,0.1
		c-2.9,0.1-5.9,0.4-8.7,0.9c-5.8,1-11.4,2.5-16.8,4.7c-5.5,2.2-10.7,5-15.4,8.3c-4.8,3.3-9.3,7.2-13.2,11.5l-0.1-0.1
		c-6.6,7.7-11.8,16.7-14.9,26.2c-1.6,4.8-2.8,9.7-3.4,14.7c-0.1,1.3-0.2,2.6-0.4,3.8l-0.2,3.8v3.8v3.3l1,52.4l0.4,26.2v3.3
		c0,1.2,0,2.5,0.1,3.7c0.1,2.5,0.5,4.9,0.9,7.4c0.9,4.8,2.1,9.6,3.8,14.1c3.4,9.2,8.3,17.6,14.6,25c6.2,7.5,14,13.7,22.9,18.1
		c2.3,1.1,4.5,2.1,7,2.8c1.1,0.5,2.3,0.7,3.6,1.1l0.5,0.1h0.1c0.1,0.1,0.1,0.1,0.2,0.1c0.1,0.1,0.2,0.1,0.4,0.2
		c1.1,0.5,2,2.1,1.6,3.6l-7.6,24.4l-7.8,25.1l-2,6.2l-0.5,1.6l-0.1,0.4l-0.1,0.6c0,0.2-0.1,0.5-0.1,0.7c-0.1,1-0.1,2.1,0.1,3.2
		c0.4,2.2,1.7,4,3.3,5.3c1.7,1.3,3.8,2,6,1.8c1.1-0.1,2.2-0.4,3.2-0.9c0.5-0.2,1-0.5,1.3-0.7c0.5-0.4,0.5-0.4,0.6-0.5l1.3-1l2.6-2
		l5.1-4c6.9-5.4,13.7-10.8,20.7-16c7-5.3,13.8-10.7,20.8-15.9l20.9-15.8l5.3-3.9l2.6-2c0.7-0.6,1.5-1.1,2.2-1.6
		c3.1-2,6.4-3.3,9.8-4.3c1.7-0.5,3.6-0.7,5.3-1c1,0,1.8-0.1,2.7-0.1c1,0,1.7,0,2.9,0l13.1,0.2l26.2,0.4c17.5,0.2,34.9,0.4,52.4,0.5
		h13.1h3.3c0.6,0,1.2,0,1.8,0h1.8c2.5-0.1,4.9-0.2,7.4-0.6c9.8-1.3,19.4-4.5,27.9-9.6c8.6-4.9,16.2-11.5,22.3-19.4
		c6.1-7.8,10.7-16.9,13.2-26.5c1.3-4.8,2.2-9.7,2.6-14.6c0.1-1.2,0.2-2.5,0.2-3.7s0-2.6,0-3.6v-6.6V272z M152.3,438.6l-0.2,0.1
		C151.7,439,152,438.7,152.3,438.6z M430.3,271.5l-0.1,26.2v6.6c0,1.2-0.1,2.1-0.1,3.1s0,1.8-0.1,2.8c-0.4,3.8-1,7.5-2.1,11.1
		c-4.2,14.6-14.2,27.3-27.3,34.9c-6.5,3.8-13.8,6.4-21.3,7.4c-1.8,0.2-3.8,0.4-5.6,0.5h-1.5c-0.5,0-0.9,0-1.5,0h-3.3h-13.1
		c-17.5,0.1-34.9,0.2-52.4,0.5l-26.2,0.4l-13.1,0.2c-1,0-2.3,0-3.7,0.1c-1.3,0-2.7,0.2-3.9,0.4c-2.6,0.4-5.1,1-7.6,1.7
		c-4.9,1.5-9.6,3.8-13.8,6.7c-1.1,0.7-2.1,1.6-3.1,2.3l-2.6,2.1l-5.1,4.2l-20.5,16.4c-6.7,5.6-13.6,11-20.5,16.4
		c-6.2,4.9-12.5,9.8-18.9,14.8l6.5-19.8l4-12.4l2.1-6.1l1.1-3.1l0.5-1.5c0.1-0.1,0.2-0.7,0.4-1.1c0.1-0.5,0.2-0.9,0.4-1.3
		c0.7-3.6,0.4-7.4-1-10.7c-1.5-3.4-3.9-6.4-7.1-8.3c-0.7-0.5-1.6-0.9-2.5-1.2c-0.5-0.2-0.9-0.4-1.3-0.5l-1-0.4
		c-1-0.2-1.8-0.5-2.7-0.9c-1.7-0.6-3.4-1.3-5.1-2.2c-6.7-3.4-12.6-8.6-17.5-14.7s-8.7-13.1-11.1-20.5c-1.2-3.7-2.1-7.5-2.6-11.3
		c-0.2-2-0.4-3.8-0.5-5.8c0-1,0-1.8,0-2.8v-3.2l0.4-26.2l1-52.4l0.1-3.3l0.1-2.8l0.2-2.8l0.4-2.8c0.6-3.6,1.6-7.2,2.9-10.7
		c2.7-6.9,6.6-13.2,11.6-18.6l-0.1-0.1c5.6-6.6,12.6-11.9,20.6-15.3c3.9-1.7,8.1-2.9,12.4-3.8c2.2-0.4,4.3-0.6,6.5-0.9
		c1.1,0,2.2-0.1,3.3-0.1h3.8l60.9-0.6c20.3-0.2,40.6-0.2,60.9-0.4l60.9-0.4c7.7,0.1,15.4,1.6,22.4,3.9c7.1,2.9,13.6,7.2,19.1,12.6
		c5.5,5.4,9.9,11.9,13,18.9s4.7,14.6,4.8,22.3L430.3,271.5z"/>
	<path class="st3" d="M375.5,229.1c-97.3-10.9-190.6-2.8-191.6-2.7c-4,0.4-7,3.9-6.6,8c0.4,4,3.9,7,8,6.6c0.9-0.1,92.9-8,188.7,2.7
		c0.2,0,0.6,0,0.9,0c3.7,0,6.9-2.8,7.4-6.5C382.4,233.3,379.6,229.6,375.5,229.1z"/>
	<path class="st3" d="M368.8,285.1c-11.8,0.4-30.8-0.1-52.8-0.7c-46.6-1.3-104.5-3.1-129.2,3.4c-3.9,1-6.2,5-5.3,8.9
		c0.9,3.3,3.8,5.5,7.1,5.5c0.6,0,1.2-0.1,1.8-0.2c22.7-6,79.4-4.3,125.1-3.1c22.3,0.6,41.4,1.2,53.7,0.7c4-0.1,7.2-3.6,7.1-7.6
		C376.3,288.2,372.9,285,368.8,285.1z"/>
</g>
</svg>
