<?xml version="1.0" encoding="utf-8"?>
<!-- Generator: Adobe Illustrator 22.1.0, SVG Export Plug-In . SVG Version: 6.00 Build 0)  -->
<svg version="1.1" id="Layer_1" xmlns="http://www.w3.org/2000/svg" xmlns:xlink="http://www.w3.org/1999/xlink" x="0px" y="0px"
	 viewBox="0 0 554.7 554.7" style="enable-background:new 0 0 554.7 554.7;" xml:space="preserve">
<style type="text/css">
	.st0{display:none;}
	.st1{display:inline;}
	.st2{fill:#010002;}
	.st3{fill:#4B2418;}
</style>
<g id="Layer_1_1_" class="st0">
	<g class="st1">
		<g>
			<path class="st2" d="M468.7,197.8c3.5,4.3,4.7,9.5,3.9,15.5l-16.4,94c-0.6,4.9-2.8,8.9-6.7,12.1c-3.9,3.2-8.3,4.7-13.2,4.7H197.4
				l-4.7,26.7h227.7c5.5,0,10.2,1.9,14.2,5.8s6,8.7,6,14.4s-2,10.6-6,14.4c-4,3.9-8.8,5.8-14.2,5.8H168.5c-6,0-11.2-2.4-15.5-7.3
				c-4-4.9-5.6-10.5-4.7-16.8l10.8-58.7l-16.4-164.8l-46.6-14.7c-5.5-1.7-9.4-5-11.9-9.9c-2.4-4.9-2.9-10.1-1.5-15.5
				c1.7-5.5,5.1-9.4,10.1-11.9c5-2.4,10.1-2.9,15.3-1.5l59.5,19c3.7,1.2,6.8,3.3,9.3,6.5c2.4,3.2,4,6.8,4.5,10.8l3.5,32.8l270,30.2
				C460.9,190.4,465.5,193.2,468.7,197.8z M199.1,402.6c8.6,0,16,3,22,9.1c6,6,9.1,13.4,9.1,22s-3,16-9.1,22.2
				c-6,6.2-13.4,9.3-22,9.3s-16-3.1-22-9.3c-6-6.2-9.1-13.6-9.1-22.2s3-16,9.1-22C183.2,405.7,190.5,402.6,199.1,402.6z
				 M383.3,402.6c8.6,0,16,3,22,9.1c6,6,9.1,13.4,9.1,22s-3,16-9.1,22.2c-6,6.2-13.4,9.3-22,9.3s-16-3.1-22-9.3
				c-6-6.2-9.1-13.6-9.1-22.2s3-16,9.1-22S374.7,402.6,383.3,402.6z"/>
		</g>
	</g>
</g>
<g>
	<path class="st3" d="M332.9,234.9c-3.9-0.2-7.9,0.5-11.6,1.9c-3.7,1.4-7.1,3.7-10,6.4c-2.9,2.8-5.2,6.2-6.7,9.9
		c-1.5,3.7-2.3,7.8-2.3,11.8c0,4,0.9,8,2.5,11.7c1.6,3.7,4,7,6.8,9.7c2.9,2.7,6.3,4.8,9.9,6.2c3.7,1.4,7.6,2,11.4,1.8
		c7.7-0.3,15.1-3.7,20.1-9.2c2.6-2.7,4.6-5.9,5.9-9.4c1.3-3.4,2.1-7.1,2.2-10.8c0.3-7.4-2.5-15-7.7-20.5
		C348.3,238.8,340.8,235.1,332.9,234.9z M348.9,271.5c-1,2-2.3,3.9-4,5.4c-3.3,3-7.8,4.4-12,4.1c-4.3-0.3-8.1-2.3-10.8-5.3
		c-2.7-3-4.1-6.9-4-10.8c0.1-3.9,1.6-7.6,4.3-10.5c2.7-2.8,6.4-4.6,10.5-4.9c2-0.1,4.1,0.1,6.1,0.7c2,0.6,3.9,1.7,5.5,3.1
		c1.6,1.4,3,3.2,4,5.1c1,2,1.5,4.2,1.7,6.4C350.2,267.2,349.9,269.5,348.9,271.5z"/>
	<path class="st3" d="M207.4,235c-3.9,0-7.8,0.8-11.4,2.3c-3.6,1.5-6.9,3.7-9.7,6.5c-2.8,2.7-5,6-6.5,9.7c-1.5,3.6-2.3,7.5-2.4,11.5
		c0,3.9,0.7,7.9,2.2,11.5c1.5,3.7,3.7,7,6.4,9.9c2.8,2.8,6.1,5.1,9.8,6.7c3.7,1.6,7.7,2.4,11.7,2.4c8,0.1,16.1-3.1,21.7-8.8
		c2.8-2.8,5.1-6.3,6.6-10c1.5-3.7,2.2-7.8,2.2-11.7c-0.1-8-3.5-15.9-9.2-21.4C223.2,238,215.3,234.9,207.4,235z M217.9,275.3
		c-2.7,2.7-6.5,4.4-10.4,4.5c-3.9,0.1-7.8-1.4-10.7-4.2c-2.9-2.7-4.6-6.6-4.7-10.7c-0.1-4.1,1.5-8.1,4.4-11c2.9-3,6.9-4.6,11-4.5
		c4.1,0.1,8,1.8,10.8,4.8c2.7,2.9,4.3,6.8,4.1,10.8C222.3,268.9,220.6,272.6,217.9,275.3z"/>
	<path class="st3" d="M425.2,358.2C425.2,358.2,425.2,358.2,425.2,358.2L425.2,358.2C425.2,358.1,425.2,358.1,425.2,358.2
		C425.2,358.1,425.2,358.1,425.2,358.2z"/>
	<path class="st3" d="M437.9,251.9l-1-37.3l-1.1-37.2l-2.1-73.7c0-0.1,0-0.1,0-0.2c0-0.6,0-1.2-0.2-1.8c-0.7-4-4.4-6.9-8.5-6.6
		c-0.4,0-0.7,0.1-1.1,0.2L391,94.8c-11.7-0.1-23.3-0.4-35-0.6l-35-0.6c-11.7-0.2-23.3-0.4-35-0.5C274.4,93,262.7,92.8,251,93
		l-4.4,0.1c-1.5,0-2.9,0-4.6,0.2c-0.8,0.1-1.6,0.1-2.5,0.2l-2.4,0.3c-1.6,0.2-3.2,0.6-4.7,0.9c-6.2,1.3-12.1,3.5-17.7,5.9
		c-5.6,2.4-11,5.2-16.3,8.1c-5.3,3-10.3,6.1-15.3,9.5c-5,3.3-9.8,6.8-14.6,10.4c-2.4,1.8-4.8,3.6-7.1,5.5l-3.5,2.8
		c-0.3,0.2-0.6,0.5-0.9,0.7c-0.4,0-0.8,0.1-1.2,0.1c-7.5,1-14.5,5.2-18.9,11.2c-2.2,3-3.9,6.5-4.8,10.2c-0.4,1.8-0.7,3.7-0.8,5.6
		c-0.1,1.1,0,1.6-0.1,2.3l0,2l-0.3,32l-0.5,64.1l-0.5,64.1l-0.3,32l-0.1,16l-0.1,8l0,4l0,2l0,0.5l0,0.7l0.1,1.5
		c0.3,4,1.3,8,3.2,11.6c1.8,3.6,4.3,6.9,7.4,9.5c3.1,2.6,6.7,4.7,10.6,5.9c1,0.3,2,0.5,3,0.8c1,0.2,2,0.3,3,0.5c1,0.1,2,0.1,3,0.2
		l2.1,0l32,0.3l64.1,0.7l64.1,0.7l32,0.3c10.7,0.1,21.4,0.1,32,0v-0.1c4.3-0.1,8.6-1,12.5-2.7c3.9-1.7,7.5-4.3,10.4-7.4
		c2.9-3.1,5.2-6.8,6.7-10.7c0.8-2,1.3-4,1.6-6.1l0.2-1.6c0.1-0.5,0.1-1.1,0.1-1.6l0.1-1.7l0-0.8l0-0.1c0.3-0.3,0.5-0.6,0.8-0.9
		c2.2-2.7,4.2-5.3,6-8c3.7-5.4,7-10.9,10.1-16.5l1.2-2.1c0.2-0.3,0.4-0.8,0.5-1.1c0.2-0.4,0.3-0.8,0.4-1c0.2-0.5,0.3-1.2,0.4-1.6
		l0.3-1.4c0.1-0.5,0.1-0.9,0.2-1.3c0.1-0.9,0.2-1.7,0.3-2.6c0.3-3.3,0.5-6.5,0.6-9.7c0.2-6.3,0.4-12.6,0.4-18.8
		C439.1,301.6,438.4,276.7,437.9,251.9z M190.9,129.3c4.6-3.3,9.3-6.5,14.1-9.4c4.8-2.9,9.7-5.5,14.8-7.8c5-2.2,10.2-4.1,15.3-5.2
		c1.3-0.2,2.6-0.6,3.9-0.7l1.9-0.3c0.6-0.1,1.3-0.1,1.9-0.1c1.2-0.1,2.7-0.1,4.1-0.1l4.3-0.1c11.5-0.1,23.1,0.1,34.8,0.3
		c11.6,0.3,23.2,0.5,34.9,0.9l34.9,1.3c11.6,0.4,23.3,0.9,34.9,1.5c6.6,0.3,13.2,0.6,19.8,1l-20.9,27.9c-0.4-0.1-0.7-0.1-1.1-0.2
		c-0.6-0.1-1.3-0.1-1.9-0.2l-0.5,0l-0.3,0l-0.5,0l-4,0l-32,0.3c-21.4,0.2-42.7,0.3-64.1,0.1c-21.4-0.1-42.7-0.4-64.1-0.6l-32-0.3
		l-8.5-0.1C183.8,134.7,187.3,132,190.9,129.3z M193.7,401.2l-32,0.3l-1.9,0c-0.3,0-0.6,0-1,0c-0.3-0.1-0.6-0.1-0.9-0.1
		c-0.3-0.1-0.6-0.2-0.9-0.2c-1.2-0.4-2.4-1-3.4-1.8c-2-1.7-3.3-4.1-3.5-6.7l-1.1-127.5l-0.5-64.1l-0.3-32l0-2c0-0.6,0-1.5,0-1.7
		c0-0.8,0.1-1.6,0.3-2.3c0.3-1.5,1-2.9,1.9-4.2c1.8-2.6,4.7-4.4,7.8-4.8c0.3-0.1,0.7-0.1,1.1-0.1c0.5,0,0.9,0,1.4-0.1l0.4,0l4,0
		l8-0.1l16-0.1l32-0.3c14-0.1,28.1-0.3,42.1-0.4c-0.6,3.5-1.1,7.1-1.6,10.6l-1.1,8.2l-0.9,8.2c-0.6,5.5-1.1,11-1.6,16.4
		c-0.2,2.7-0.5,5.5-0.7,8.2c-0.2,2.7-0.4,5.5-0.6,8.2c-1.4,22-1.7,44-1.7,66.1c0.1,11,0.3,22.1,0.8,33.2c0.5,11.1,1.2,22.1,2.1,33.2
		c1.1,11.1,2.3,22.2,4.2,33.2c1.2,7.4,2.7,14.7,4.5,22l-8.8,0.1L193.7,401.2z M394.4,392.1l0,0.2c0,0.1,0,0.2,0,0.3
		c0,0.2-0.1,0.5-0.1,0.8c-0.1,0.5-0.3,1.1-0.5,1.6c-0.4,1-1.1,1.9-1.9,2.6c-1.6,1.5-3.7,2.2-5.8,2v-0.1c-10.7-0.1-21.4,0-32,0
		l-32,0.3l-38,0.4l-0.1-0.6c-0.4-2.6-0.8-5.2-1.2-7.8l-1-7.9l-0.8-8c-0.9-10.7-1.6-21.4-2-32.2c-0.5-10.8-0.7-21.6-0.8-32.4
		c-0.2-10.8-0.1-21.7,0-32.5c0.1-21.7,1-43.4,1.4-65.2c0.4-20.3,0.8-40.7,0.6-61.1c1.7,0,3.4,0,5,0c21.4-0.2,42.7-0.1,64.1,0.1
		l32,0.3l4,0l0.5,0l0.3,0c0,0,0,0,0,0c0,0,0.1,0,0.1,0c0,0,0,0,0.1,0c0,0,0.2,0.1,0.6,0.5c0.3,0.4,0.7,1,1.1,1.7
		c0.8,1.5,1.5,3.6,2,5.8c0.5,2.2,0.9,4.5,1.1,6.9c0.2,2.4,0.4,4.9,0.4,7.3l0,1.9l0,2l0.1,4l0.3,16l0.6,32l1,64.1
		c0.3,21.4,0.7,42.7,0.8,64.1l0.3,32C394.4,391.8,394.4,392,394.4,392.1z M427.7,326.4c-0.1,6.2-0.2,12.3-0.7,18.4
		c-0.2,3-0.5,6-0.9,8.9c-0.1,0.7-0.2,1.4-0.3,2.1c-0.1,0.3-0.1,0.7-0.2,1l-0.2,0.8c-0.1,0.2-0.1,0.4-0.2,0.6c0,0,0,0,0,0l0,0
		c0,0,0,0,0,0c0,0.1,0,0.1,0,0L424,360c-2.3,3.7-4.8,7.3-7.5,10.7l-0.6-11.5c-1.2-21.3-2.2-42.7-3.2-64l-3.1-64l-1.4-32l-0.7-16
		l-0.2-4l-0.1-2l-0.1-2.1c-0.1-2.9-0.3-5.8-0.7-8.7c-0.4-2.9-0.9-5.8-1.6-8.8c-0.7-2.8-1.7-5.7-3.2-8.7l17.7-23.6
		c0.4,5.2,0.7,10.5,1.1,15.7l1.2,18.6l1.1,18.6c0.7,12.4,1.4,24.8,2,37.1c0.6,12.4,1.1,24.8,1.6,37.1c0.5,12.4,0.9,24.8,1.1,37.1
		C427.6,301.7,427.8,314.1,427.7,326.4z"/>
</g>
</svg>
