<?xml version="1.0" encoding="utf-8"?>
<!-- Generator: Adobe Illustrator 22.1.0, SVG Export Plug-In . SVG Version: 6.00 Build 0)  -->
<svg version="1.1" id="Layer_2_1_" xmlns="http://www.w3.org/2000/svg" xmlns:xlink="http://www.w3.org/1999/xlink" x="0px" y="0px"
	 viewBox="0 0 1492.8 1177.5" style="enable-background:new 0 0 1492.8 1177.5;" xml:space="preserve">
<style type="text/css">
	.st0{fill:#FFFFFF;}
	.st1{fill:#783E2C;}
	.st2{fill:none;}
	.st3{enable-background:new    ;}
</style>
<g>
	<path class="st0" d="M464.7,958.3c-9.1,0-15.8-9-16.8-22.8c8.5-2.1,18.1-6.7,23.8-11.6c5.4-4.6,9.1-10.8,9.1-16.8
		c0-7-4.9-11.7-12.7-11.7c-6.7,0-13.9,3.4-19.6,8.1c-9.9,8.2-14.9,19.2-15.8,29.5c-3.5,3-7.7,4.4-12.2,4.4c2.3-6,3.7-12.7,3.7-19.2
		c0-14.7-6.7-24.4-15.8-24.4c-9.9,0-15.8,11.7-15.8,23c0,11.9,6.5,22.2,16.8,25.9c-3.3,9.5-9.5,15.8-16,15.8
		c-9.5,0-12.6-12.9-12.6-24c0-9.6,2.3-21,3.7-28.2c0.8-3.9,1.1-5.9,1.1-7c0-2.4-1.3-3.6-3.4-3.6c-3.4,0-9.6,2.9-12.6,5.1
		c-1.4,7.2-2.8,14.9-3.6,22.3c-3.3,9.9-9.8,14.7-18,15.2c1.8-5.2,2.8-11.1,2.8-17c0-19.7-11.6-26.9-20.4-26.9
		c-9.3,0-16.6,7.8-16.6,20.4c0,14.8,10.3,25.9,22.7,29.5c-2.4,7.8-7.3,14-14.3,14c-11.1,0-17.3-15.5-17.3-30.3
		c0-8.1,1.8-17.1,7.3-21.4l-1.6-3.3c-13,5.1-20.5,17.6-20.5,32.1c0,2.7,0.3,5.3,0.8,7.7c-5.4,12.3-11.2,15.6-14.8,15.6
		c-5.4,0-9.9-7.2-9.9-24.4c0-5.5,0.5-11.9,1.1-18.4c18.6-7,29.8-31,29.8-50.4c0-9.8-2.9-22.5-9.1-25.8c-0.7-0.5-1.5-0.7-2.1-0.7
		c-2.4,0-9.8,3.7-15,7.7c-4.4,9.8-8,21.8-9.9,29c-5.5,20.2-10.1,44.5-10.1,59.7c0,24.6,11.7,30.6,20.4,30.6
		c9.3,0,16.5-6.9,21.7-16.3c4.5,10.5,14,16.6,23.9,16.6c12.7,0,22.5-9.9,28.2-21c6.8,0,14.6-2.3,20.2-9.6c0,0.3,0,0.6,0,1
		c0,19.9,10.6,29.5,23,29.5c13.7,0,23.5-11.2,29.2-22h1.3c4.3,0,9.4-1.1,14-4.1c1.6,16.5,14.1,25.9,26.9,25.9
		c15.8,0,33.1-14.7,39.6-50.7l-4.6-0.5C489,944.8,475.8,958.3,464.7,958.3z M451.3,913.3c2.6-6,6.5-9.9,11.1-9.9
		c3.7,0,5.9,2.8,5.9,7.5c0,11.4-11.9,17.3-20.4,19.1C448.1,924.8,449.2,918.4,451.3,913.3z M274.9,874.4c1.8-7.8,3.9-15.2,6.7-23
		c3.7,5.9,5.4,14,5.4,21.5c0,15.6-6.8,32.1-18.9,36.8C269.9,897.2,272.5,884.5,274.9,874.4z M338.2,936.8c-10.4-3.4-18.1-13-18.1-23
		c0-4.1,1.3-9.9,5.7-9.9c6.7,0,12.7,13.5,12.7,27.2C338.5,933.1,338.4,935,338.2,936.8z M411.5,935c-8-4.6-12.1-14.8-12.1-22.7
		c0-4.6,1-9,4.7-9c4.7,0,8.1,10.1,8.1,22.3C412.4,929,412,932.1,411.5,935z"/>
	<path class="st0" d="M553,872.6c0-5.4-4.2-9.6-9.6-9.6c-5.4,0-9.5,4.2-9.5,9.6c0,5.2,4.1,9.5,9.5,9.5
		C548.8,882.1,553,877.8,553,872.6z"/>
	<path class="st0" d="M623.9,958.5c-4.6,0-6.7-7.8-6.7-18.3c0-13,3.4-24.8,5.7-35.4c-3.9-5.1-9.3-8.3-15.6-9.9
		c-13,2-24.4,17.1-29.5,41.2h-0.5c0.3-3.4,0.8-7.8,1.5-12.2c1.6-10.6,3.7-19.7,3.7-23.8c0-2.9-1.1-4.4-3.6-4.4
		c-3.3,0-9.3,2.6-12.6,4.7c-0.4,5.1-1,10.4-1.7,15.7c-5.8,31.5-13.4,42.3-18.7,42.3c-4.6,0-6.5-7.8-6.5-16.5
		c0-8.3,1.6-18.4,3.1-26.9c1.1-6.7,2.3-12.5,2.3-15c0-2.9-1.1-4.4-3.6-4.4c-3.3,0-9.3,2.6-12.6,4.7c-1.3,13.9-4.4,29.5-4.4,41.1
		c0,16.8,8,24.4,17.3,24.4c7.3,0,14.5-4.9,20.7-22c0,7.8,1,21.7,7.5,21.7c1.8,0,5.9-1.1,9.8-3.3c-0.2-10.1,2-23.8,5.7-34.7
		c2.9-8.5,7-15.6,11.1-19.7c2-1.8,3.9-2.9,5.9-2.9c2.6,0,3.3,1.8,3.3,3.9c0,4.2-3.7,18.4-3.7,31.3c0,18.1,8.6,25.8,17.6,25.8
		c10.3,0,20.5-9.6,27.9-50.5l-4.6-0.5C636.8,947.4,629.1,958.5,623.9,958.5z"/>
	<path class="st0" d="M900.9,905c0-5.1-3.7-9.5-10.1-9.5c-9.5,0-16.5,12.2-22.8,29.8l-0.5-0.2c1.5-5.7,3.6-15.3,3.6-21.8
		c0-3.9-0.7-7.7-4.2-7.7c-3.1,0-9,2.6-12.2,4.7c0.3,2.3,0.5,4.2,0.5,7.3c0,2.9-0.1,5.9-0.4,9c-5.9,28.5-18.8,41.5-29.6,41.5
		c-9.1,0-15.8-9-16.8-22.8c8.5-2.1,18.1-6.7,23.8-11.6c5.4-4.6,9.1-10.8,9.1-16.8c0-7-4.9-11.7-12.7-11.7c-6.7,0-13.9,3.4-19.6,8.1
		c-9.9,8.2-14.9,19.2-15.8,29.5c-3.5,3-7.7,4.4-12.2,4.4c2.3-6,3.7-12.7,3.7-19.2c0-14.7-6.7-24.4-15.8-24.4
		c-9.9,0-15.8,11.7-15.8,23c0,11.9,6.5,22.2,16.8,25.9c-3.3,9.5-9.5,15.8-16,15.8c-9.5,0-12.6-12.9-12.6-24c0-9.6,2.3-21,3.7-28.2
		c0.8-3.9,1.1-5.9,1.1-7c0-2.4-1.3-3.6-3.4-3.6c-3.4,0-9.6,2.9-12.6,5.1c-1.4,7.2-2.8,14.9-3.6,22.3c-6.4,24.1-18.1,35.2-28.1,35.2
		c-9.1,0-15.8-9-16.8-22.8c8.5-2.1,18.1-6.7,23.8-11.6c5.4-4.6,9.1-10.8,9.1-16.8c0-7-4.9-11.7-12.7-11.7c-6.7,0-13.9,3.4-19.6,8.1
		c-11.1,9.1-16,21.8-16,33.1c0,18.7,13.4,29.5,27.1,29.5c11.6,0,24-7.9,32.4-26.4c1,17.9,11.1,26.6,22.9,26.6
		c13.7,0,23.5-11.2,29.2-22h1.3c4.3,0,9.4-1.1,14-4.1c1.6,16.5,14.1,25.9,26.9,25.9c11.3,0,23.4-7.6,31.8-25.1
		c-0.8,5.9-1.5,11-1.5,14.2c0,4.9,1.5,11.2,5.9,11.2c2.1,0,5.5-1.5,9-2.8c0.5-13.5,2.4-25.3,6.2-35.7c4.2-11.7,9.5-18.4,14.2-18.4
		c2.8,0,4.6,2.1,5.7,6.2C896.6,913.8,900.9,910.3,900.9,905z M811.7,913.3c2.6-6,6.5-9.9,11.1-9.9c3.7,0,5.9,2.8,5.9,7.5
		c0,11.4-11.9,17.3-20.4,19.1C808.4,924.8,809.6,918.4,811.7,913.3z M685,913.3c2.6-6,6.5-9.9,11.1-9.9c3.7,0,5.9,2.8,5.9,7.5
		c0,11.4-11.9,17.3-20.4,19.1C681.8,924.8,682.9,918.4,685,913.3z M771.9,935c-8-4.6-12.1-14.8-12.1-22.7c0-4.6,1-9,4.7-9
		c4.7,0,8.2,10.1,8.2,22.3C772.7,929,772.4,932.1,771.9,935z"/>
	<path class="st0" d="M959.2,895.7c-3.3,0-9.3,2.6-12.6,4.7c-0.3,7.8-2,20.2-4.7,31.6c-3.4,13.7-8.5,25.8-15.3,25.8
		c-4.6,0-7.7-5.4-7.7-16.3c0-12.1,3.7-27.7,3.7-36.3c0-5.5-1.8-9.5-5.9-9.5c-3.6,0-8.8,3.1-11.4,5.4c0.8,2.4,1.1,6.2,1.1,10.6
		c0,13.2-2.9,23.8-2.9,31.8c0,14,8.8,22.7,17.8,22.7c9.3,0,17.6-9,21.4-20.4h0.3c0,6.7-0.2,15.2-1,23.6c-0.8,9.6-2.4,19.1-5.4,25.9
		s-7.7,11.7-14.7,11.7c-10.3,0-19.7-10.1-19.7-23.3c0-3.9,0.8-7,3.3-10.1l-2.1-2c-6.7,5.5-11.1,14.3-11.1,22
		c0,11.1,9.1,21.4,22.2,21.4c10.9,0,22-7,28-14.8c5.9-7.7,9.5-18.6,12.5-39.4c2.4-16.8,2.6-22.8,6.5-51.3c1-7,1.1-8.2,1.1-9.3
		C962.8,897.2,961.7,895.7,959.2,895.7z"/>
	<path class="st0" d="M1102,872.6c0-5.4-4.2-9.6-9.6-9.6s-9.5,4.2-9.5,9.6c0,5.2,4.1,9.5,9.5,9.5S1102,877.8,1102,872.6z"/>
	<path class="st0" d="M1182.8,958.3c-9.1,0-15.8-9-16.8-22.8c8.5-2.1,18.1-6.7,23.8-11.6c5.4-4.6,9.1-10.8,9.1-16.8
		c0-7-4.9-11.7-12.7-11.7c-6.7,0-13.9,3.4-19.6,8.1c-11.1,9.1-16,21.8-16,33.1c0,2.6,0.3,5.1,0.8,7.4c-4.7,10.3-10,14.8-14.3,14.8
		c-5.5,0-9.3-7.5-9.3-24.1c0-9.8,1.5-21.5,3.4-33.3l19.4-0.8c0.8-1.3,1.1-2.4,1.1-3.4c0-1-0.3-2-0.8-2.8l-18.6,1.5
		c2.3-11.7,5.1-23.8,5.1-27.4c0-2.3-1-3.4-3.3-3.4c-3.3,0-9.5,2.8-13,5.1c-1.3,6.8-1.8,11.2-4.4,26.6l-10.4,0.5
		c-0.2,0.5-0.3,1.6-0.3,2.4c0,1,0.2,2,0.7,2.9l9.1-0.5c-1,5.5-1.9,11-2.6,16.3c-5.8,29.8-13.1,40.1-18.3,40.1
		c-4.6,0-6.5-7.8-6.5-16.5c0-8.3,1.6-18.4,3.1-26.9c1.1-6.7,2.3-12.5,2.3-15c0-2.9-1.1-4.4-3.6-4.4c-3.3,0-9.3,2.6-12.6,4.7
		c-0.6,6.4-1.6,13.2-2.5,19.8c-2.6,11.3-9.9,18.8-20,19.7c2.4-5.9,3.7-11.7,3.7-17.4c0-11.4-5.5-24-17.8-24
		c-11.4,0-18.1,11.1-18.1,21.7c0,12.4,9,22.7,21,25.6c-3.1,7.5-8.8,13.2-15.5,13.2c-10.8,0-15.6-14.3-15.6-30.2c0-7,1-15.6,2.4-24.8
		c17.1-5.4,29.8-24.4,29.8-41.7c0-10.6-4.9-20.4-10.4-22.7c-0.8-0.3-1.5-0.5-2.1-0.5c-3.1,0-10.8,4.1-15.5,7.8
		c-3.9,8.3-7.3,18.4-10.1,28.2c-5.4,18.9-9.5,41.1-9.5,55.6c0,25.1,12.2,35.7,25.8,35.7c13,0,22.8-9.6,28.5-19.9
		c7.4-0.2,15.8-3.2,21.6-11.1c-0.1,2.1-0.2,4.1-0.2,6.1c0,16.8,8,24.4,17.3,24.4c7.6,0,15.1-5.3,21.4-24.1
		c1.7,19.3,12.4,24.2,20.8,24.2c5.3,0,13.6-2,20.8-15.6c4.7,10,14.3,15.6,24.1,15.6c15.8,0,33.1-14.7,39.6-50.7l-4.6-0.5
		C1207.1,944.8,1193.9,958.3,1182.8,958.3z M1169.5,913.3c2.6-6,6.5-9.9,11.1-9.9c3.7,0,5.9,2.8,5.9,7.5c0,11.4-11.9,17.3-20.4,19.1
		C1166.2,924.8,1167.4,918.4,1169.5,913.3z M1022,873.3c2-7.7,4.4-17,6.8-23.6c4.2,4.7,6.2,11.7,6.2,18.4c0,12.9-7.2,26.2-18.6,30.3
		C1018.1,889.4,1018.9,885.3,1022,873.3z M1046.4,938.8c-9.8-3.1-16.8-12.2-16.8-20.9c0-4.2,1.6-9.9,6.8-9.9
		c8.5,0,10.8,15.6,10.8,23C1047.2,933.6,1046.9,936.2,1046.4,938.8z"/>
	<path class="st0" d="M382.3,118.9c7.6,0.6-55.2,129.8-67.1,225.2c-10.7,85.9-15.1,197.6,129.2,215.8c6.2,0.7,11.9-0.6,12.5-4.5
		c0.7-3.7-4.3-4.3-12.5-5.6C327.7,535.4,320.8,440,332.7,345.3c11.9-94.7,109.2-261.6,69-266.6C371,75,249.2,253.8,239.3,252.5
		c-10.6-1.2,54-132.4,10.7-138c-43.3-5.6-142.4,47.7-186.3,59.6c-35.2,10-50.9,6.9-35.8,18.8c21.4,16.9,184.5-55.2,207.7-52.1
		c23.2,3.2-48.9,198.3-80.3,320c-1.9,6.9-4.4,13.8,5.6,15.1c11.9,1.2,14.4-0.6,15.7-8.8c1.2-8.8,30.7-134.3,51.4-168.8
		C251.2,259.4,366.6,117,382.3,118.9z"/>
	<path class="st0" d="M1469.4,300.9c-9.4,0-16.9,52.1-114.2,54.6c-21.3,0.6-45.2-7.5-50.8-11.9c25.1-33.3,52.7-89.7,23.8-92.2
		c-33.3-3.1-58.3,66.5-112.3,106c-35.1,25.7-43.3,32-92.2,60.9c3.8-17.6,10-46.4,15.1-63.4c11.9-40.8,20.1-46.4,10.7-47.1
		c-9.4-0.6-48.9,83.4-99.1,80.3c-20.7-1.3-28.2-16.3-24.5-32c3.8-16.3,27-42.7,10-43.9c-8.8-0.6-42,74-111.7,67.1
		c-44.5-4.4,13.8-57.1-5.6-59c-10-1.3-45.2,64-56.5,62.7c1.9-20.1,5-38.9-10-40.2c-30.1-3.1-91.6,51.4-150.6,45.8
		c-38.9-3.8,1.3-56.5-15.7-59.6c-11.3-1.9-42,75.3-49.6,74.7c-2.5,0,20.7-50.2-8.8-53.3c-34.5-3.8-93.5,75.3-134.9,70.9
		c-26.3-2.5-13.8-32.6-5.6-55.8c8.2-23.2,12.5-47.7-11.9-50.2c-24.4-2.5-81.6,47.7-86,89.7c-2.4,26.3,5.2,39.5,30.9,42
		c27,2.5,43.3-19.4,43.3-18.8c0,0,8.8,7.5,26.3,9.4c40.2,3.8,107.9-71.5,126.7-69.6c23.2,2.5-8.8,69.6,5,70.9
		c14.4,1.3,38.3-69.6,46.4-68.4c1.3,12.5,4.4,30.7,35.8,33.9c54,5.6,129.9-45.2,145.6-43.9c11.9,1.3-22.6,47.1,0,49.6
		c10.7,1.3,45.8-43.3,46.4-42.7c0.6,0.6,3.8,21.3,31.4,23.8c41.4,4.4,82.2-24.5,82.2-24.5c1.3,20.1,8.2,35.1,37,38.3
		c41.4,4.4,72.1-36.4,72.1-36.4c-2.5,12.5-6.3,32-10,55.8c-77.8,70.3-106,130.5-112.3,196.4c-3.1,30.7,10.7,57.7,30.1,59.6
		c60.9,6.3,67.1-119.2,94.7-249.1c31.4-25.1,89.7-53.3,120.5-83.4c33.9-32.6,64-78.4,77.8-77.2c11.3,1.3-5.6,40.2-22.6,66.5
		c-4.4-2.5-10-4.4-20.1-5.6c-25.1-2.5-30.1,32.6-3.8,35.8c8.8,0.6,15.7-5,23.2-13.2c13.2,6.9,40.8,13.2,60.2,13.2
		C1453,364.9,1476.3,300.9,1469.4,300.9z M426.2,428.2c-9.4-0.6-15.7-10-14.4-24.5c2.5-28.2,43.9-78.4,58.3-77.2
		c15,1.9,3.1,33.9-6.9,62.2C454.4,415.7,440,430.1,426.2,428.2z M1035.4,659.1c-11.9-1.3-23.8-13.2-20.7-43.9
		c6.9-68.4,27-109.8,91-174.4C1090.6,532.3,1068,662.2,1035.4,659.1z M1273.1,359.8c-14.4-1.3-10-16.9-0.6-15.7
		c3.1,0.6,8.8,1.3,13.2,6.3C1283.2,355.4,1279.4,360.4,1273.1,359.8z"/>
	<path class="st0" d="M1213.5,223c5,0.7,18.8-25.7,18.8-44.5c0.6-7.5,0.6-9.4-6.9-11.9c-16.9-6.3-6.9,11.3-9.4,31.9
		C1214.1,218.6,1207.9,222.4,1213.5,223z"/>
	<path class="st0" d="M686.5,674.7c-3.8,0,0.6,21.3,2.5,29.5c2.5,8.2,6.9,24.5,10,24.5c5-0.6,0-18.8-2.5-28.9
		C694.1,690.4,690.3,674.7,686.5,674.7z"/>
	<path class="st0" d="M723.5,674.7c-3.8,0.6-3.8,11.3-3.1,20.7c0.6,15.1,1.3,27.6,5.6,27.6c3.8,0,3.1-15.7,2.5-25.7
		S726.7,674.7,723.5,674.7z"/>
	<path class="st0" d="M753.7,676.6c-3.1,0-4.4,6.3-4.4,25.7c0,8.8,1.9,24.5,6.9,25.1c5,0,1.3-16.9,1.3-23.2S759.3,676.6,753.7,676.6
		z"/>
	<path class="st0" d="M788.2,675.4c-6.3,0-10,15.7-10,28.9c0,10,0.6,25.1,6.3,25.1c6.3,0,1.3-15.1,1.3-25.7
		C785.7,692.9,794.4,675.4,788.2,675.4z"/>
	<path class="st0" d="M663.4,555.5c11.3,5.6,5,15.7,13.8,16.9c9.4,1.3,10.7-13.2,13.8-14.4c3.7-1.2,9.3-14.4-8.2-14.4
		C665.2,543.6,654.6,551.1,663.4,555.5z"/>
	<path class="st0" d="M638.9,618.9c5,2.5,1.3,3.8,18.8,2.5c8.8-0.6,18.8-7.5,4.4-15c-11.9-5-16.3-12.5-19.4-4.4
		C639.6,609.5,635.2,617.1,638.9,618.9z"/>
	<path class="st0" d="M712.9,611.5c13.2-6.9,22-9.4,25.7-9.4c3.8-0.1,14.4-10.2-2.5-16.4c-16.9-6.3-15.7-3.1-22.6,3.8
		C707.2,595.8,704.7,615.2,712.9,611.5z"/>
	<path class="st0" d="M791.3,622.1c9.4,5,13.2,1.3,20.1-8.8c2.5-3.2,15.7-18.9-2.5-16.3c-6.9,1.3-8.2-2.5-15.1,4.4
		C788.2,607.7,783.8,617.7,791.3,622.1z"/>
	<path class="st0" d="M754.3,559.3c10.7,6.3,19.4-1.3,23.2-0.6c3.8,0,14.4-10.1-2.5-16.3c-16.9-6.3-15.1,3.1-24.5,2.5
		C740.5,544.9,746.7,554.9,754.3,559.3z"/>
	<path class="st0" d="M628.2,671c0.6,0,1.3,0,2.5,0c0.6,0,0.6,0,1.3,0c17.6,1.3,19.4,16.3,37,59.6c2.5,7.5,8.2,22,25.7,22
		c18.2,0,77.2,0.6,95.4,0.6s18.8-15.7,21.3-24.5s11.3-43.3,21.3-55.8c4.4-5.6,50.2-8.8,50.2-53.3c0-19.5-13.8-52.8-40.8-80.4
		c-25.1-25.7-60.9-45.8-119.8-45.8c-99.8,0-154.3,74-154.3,121.1C568,651.5,592.5,671.6,628.2,671z M809.5,695.4
		c-2.5,9.4-6.3,20.7-11.3,30.1c-7.5,14.4-13.8,15.1-30.7,15.1c-9.4,0-37.6-1.9-66.5-3.8c-25.7-1.9-31.4-28.9-33.9-37.6
		c-5.6-17.6-6.9-30.7-4.4-37c4.4-3.8,6.9-5.6,12.5-3.1c8.8,4.4,11.9,6.9,20.1,6.9c13.2,0,18.2-7.5,23.8-7.5c5,0,10,11.3,24.5,11.3
		c9.4,0,23.2-9.4,27-9.4s11.9,8.2,20.1,8.2s9.4-6.9,16.9-8.2c1.9-0.6,3.8-0.6,5.6,0C814.5,662.8,813.3,681.6,809.5,695.4z
		 M727.9,512.2c94.1,0,140.5,59,140.5,106.7c0.1,35.8-25,37-30.7,37c-10,0-12.5-12.5-22-12.5c-13.2,0-15.7,14.4-23.8,14.4
		c-10,0-10-16.3-19.4-16.3s-18.2,16.3-30.1,16.3c-13.2,0-11.9-20.1-20.1-20.1c-11.3,0-19.4,17.6-22.6,17.6
		c-12.5,0-15.7-14.4-27-14.4c-12.5,0-12.5,11.9-21.3,14.4c-7.5,1.9-16.3,3.8-40.8,0.6c-15.7-2.5-29.5-15.1-29.5-38.9
		C581.1,574.3,628.2,512.2,727.9,512.2z"/>
	<polygon class="st0" points="1221.6,868.4 1226.8,868.4 1226.8,883.5 1229,883.5 1229,868.4 1234.2,868.4 1234.2,866.6 
		1221.6,866.6 	"/>
	<path class="st0" d="M1249,866.6l-3,8.2c-0.8,2.1-1.4,4-1.8,5.7h-0.1c-0.4-1.8-1-3.6-1.7-5.7l-2.9-8.2h-2.8l-1.2,16.9h2.1l0.5-7.3
		c0.2-2.5,0.3-5.4,0.3-7.5h0.1c0.5,2,1.2,4.2,2,6.6l2.7,8.1h1.7l3-8.2c0.9-2.3,1.6-4.4,2.1-6.4h0.1c0,2.1,0.1,4.9,0.3,7.3l0.4,7.4
		h2.1l-1.1-16.9H1249z"/>
</g>
<g>
	<path class="st1" d="M-1779.8,559.9c-144.3-18.2-139.9-129.9-129.2-215.8c11.9-95.4,74.7-224.6,67.1-225.2
		c-15.7-1.9-131.1,140.5-154.3,179.4c-20.7,34.5-50.2,160-51.4,168.8c-1.3,8.2-3.8,10-15.7,8.8c-10-1.3-7.5-8.2-5.6-15.1
		c31.4-121.7,103.5-316.8,80.3-320c-23.2-3.1-186.3,69-207.7,52.1c-15.1-11.9,0.6-8.8,35.8-18.8c43.9-11.9,143-65.2,186.3-59.6
		c43.3,5.6-21.3,136.8-10.7,138c9.9,1.3,131.7-177.5,162.4-173.8c40.2,5-57.1,171.9-69,266.6s-5,190.1,111.7,204.5
		c8.2,1.3,13.2,1.9,12.5,5.6C-1767.9,559.3-1773.6,560.6-1779.8,559.9z"/>
	<path class="st1" d="M-1804.3,447c27,2.5,43.3-19.4,43.3-18.8c0,0,8.8,7.5,26.3,9.4c40.2,3.8,107.9-71.5,126.7-69.6
		c23.2,2.5-8.8,69.6,5,70.9c14.4,1.3,38.3-69.6,46.4-68.4c1.3,12.5,4.4,30.7,35.8,33.9c54,5.6,129.9-45.2,145.6-43.9
		c11.9,1.3-22.6,47.1,0,49.6c10.7,1.3,45.8-43.3,46.4-42.7c0.6,0.6,3.8,21.3,31.4,23.8c41.4,4.4,82.2-24.5,82.2-24.5
		c1.3,20.1,8.2,35.1,37,38.3c41.4,4.4,72.1-36.4,72.1-36.4c-2.5,12.5-6.3,32-10,55.8c-77.8,70.3-106,130.5-112.3,196.4
		c-3.1,30.7,10.7,57.7,30.1,59.6c60.9,6.3,67.1-119.2,94.7-249.1c31.4-25.1,89.7-53.3,120.5-83.4c33.9-32.6,64-78.4,77.8-77.2
		c11.3,1.3-5.6,40.2-22.6,66.5c-4.4-2.5-10-4.4-20.1-5.6c-25.1-2.5-30.1,32.6-3.8,35.8c8.8,0.6,15.7-5,23.2-13.2
		c13.2,6.9,40.8,13.2,60.2,13.2c97.2-2.5,120.5-66.5,113.6-66.5c-9.4,0-16.9,52.1-114.2,54.6c-21.3,0.6-45.2-7.5-50.8-11.9
		c25.1-33.3,52.7-89.7,23.8-92.2c-33.3-3.1-58.3,66.5-112.3,106c-35.1,25.7-43.3,32-92.2,60.9c3.8-17.6,10-46.4,15.1-63.4
		c11.9-40.8,20.1-46.4,10.7-47.1c-9.4-0.6-48.9,83.4-99.1,80.3c-20.7-1.3-28.2-16.3-24.5-32c3.8-16.3,27-42.7,10-43.9
		c-8.8-0.6-42,74-111.7,67.1c-44.5-4.4,13.8-57.1-5.6-59c-10-1.3-45.2,64-56.5,62.7c1.9-20.1,5-38.9-10-40.2
		c-30.1-3.1-91.6,51.4-150.6,45.8c-38.9-3.8,1.3-56.5-15.7-59.6c-11.3-1.9-42,75.3-49.6,74.7c-2.5,0,20.7-50.2-8.8-53.3
		c-34.5-3.8-93.5,75.3-134.9,70.9c-26.3-2.5-13.8-32.6-5.6-55.8c8.2-23.2,12.5-47.7-11.9-50.2c-24.4-2.5-81.6,47.7-86,89.7
		C-1837.6,431.3-1830,444.5-1804.3,447z M-1761,388.7c-8.8,27-23.2,41.4-37,39.5c-9.4-0.6-15.7-10-14.4-24.5
		c2.5-28.2,43.9-78.4,58.3-77.2C-1739.1,328.4-1751,360.4-1761,388.7z M-1188.8,659.1c-11.9-1.3-23.8-13.2-20.7-43.9
		c6.9-68.4,27-109.8,91-174.4C-1133.6,532.3-1156.2,662.2-1188.8,659.1z M-951.1,359.8c-14.4-1.3-10-16.9-0.6-15.7
		c3.1,0.6,8.8,1.3,13.2,6.3C-941,355.4-944.8,360.4-951.1,359.8z"/>
	<path class="st1" d="M-998.8,166.6c7.5,2.5,7.5,4.4,6.9,11.9c0,18.8-13.8,45.2-18.8,44.5c-5.6-0.6,0.6-4.4,2.5-24.5
		C-1005.7,177.9-1015.7,160.3-998.8,166.6z"/>
</g>
<g>
	<path class="st1" d="M-1537.7,674.7c-3.8,0,0.6,21.3,2.5,29.5c2.5,8.2,6.9,24.5,10,24.5c5-0.6,0-18.8-2.5-28.9
		C-1530.1,690.4-1533.9,674.7-1537.7,674.7z"/>
	<path class="st1" d="M-1500.7,674.7c-3.8,0.6-3.8,11.3-3.1,20.7c0.6,15.1,1.3,27.6,5.6,27.6c3.8,0,3.1-15.7,2.5-25.7
		S-1497.5,674.7-1500.7,674.7z"/>
	<path class="st1" d="M-1470.5,676.6c-3.1,0-4.4,6.3-4.4,25.7c0,8.8,1.9,24.5,6.9,25.1c5,0,1.3-16.9,1.3-23.2
		S-1464.9,676.6-1470.5,676.6z"/>
	<path class="st1" d="M-1436,675.4c-6.3,0-10,15.7-10,28.9c0,10,0.6,25.1,6.3,25.1c6.3,0,1.3-15.1,1.3-25.7
		C-1438.5,692.9-1429.8,675.4-1436,675.4z"/>
	<path class="st1" d="M-1541.4,543.6c-17.6,0-28.2,7.5-19.4,11.9c11.3,5.6,5,15.7,13.8,16.9c9.4,1.3,10.7-13.2,13.8-14.4
		C-1529.5,556.8-1523.9,543.6-1541.4,543.6z"/>
	<path class="st1" d="M-1562.1,606.4c-11.9-5-16.3-12.5-19.4-4.4c-3.1,7.5-7.5,15.1-3.8,16.9c5,2.5,1.3,3.8,18.8,2.5
		C-1557.7,620.8-1547.7,613.9-1562.1,606.4z"/>
	<path class="st1" d="M-1488.1,585.7c-16.9-6.3-15.7-3.1-22.6,3.8c-6.3,6.3-8.8,25.7-0.6,22c13.2-6.9,22-9.4,25.7-9.4
		C-1481.8,602-1471.2,591.9-1488.1,585.7z"/>
	<path class="st1" d="M-1415.3,597c-6.9,1.3-8.2-2.5-15.1,4.4c-5.6,6.3-10,16.3-2.5,20.7c9.4,5,13.2,1.3,20.1-8.8
		C-1410.3,610.1-1397.1,594.4-1415.3,597z"/>
	<path class="st1" d="M-1449.2,542.4c-16.9-6.3-15.1,3.1-24.5,2.5c-10,0-3.8,10,3.8,14.4c10.7,6.3,19.4-1.3,23.2-0.6
		C-1442.9,558.7-1432.3,548.6-1449.2,542.4z"/>
	<path class="st1" d="M-1382.1,539.2c-25.1-25.7-60.9-45.8-119.8-45.8c-99.8,0-154.3,74-154.3,121.1c0,37,24.5,57.1,60.2,56.5
		c0.6,0,1.3,0,2.5,0c0.6,0,0.6,0,1.3,0c17.6,1.3,19.4,16.3,37,59.6c2.5,7.5,8.2,22,25.7,22c18.2,0,77.2,0.6,95.4,0.6
		c18.2,0,18.8-15.7,21.3-24.5s11.3-43.3,21.3-55.8c4.4-5.6,50.2-8.8,50.2-53.3C-1341.3,600.1-1355.1,566.8-1382.1,539.2z
		 M-1414.7,695.4c-2.5,9.4-6.3,20.7-11.3,30.1c-7.5,14.4-13.8,15.1-30.7,15.1c-9.4,0-37.6-1.9-66.5-3.8
		c-25.7-1.9-31.4-28.9-33.9-37.6c-5.6-17.6-6.9-30.7-4.4-37c4.4-3.8,6.9-5.6,12.5-3.1c8.8,4.4,11.9,6.9,20.1,6.9
		c13.2,0,18.2-7.5,23.8-7.5c5,0,10,11.3,24.5,11.3c9.4,0,23.2-9.4,27-9.4c3.8,0,11.9,8.2,20.1,8.2s9.4-6.9,16.9-8.2
		c1.9-0.6,3.8-0.6,5.6,0C-1409.7,662.8-1410.9,681.6-1414.7,695.4z M-1386.5,655.9c-10,0-12.5-12.5-22-12.5
		c-13.2,0-15.7,14.4-23.8,14.4c-10,0-10-16.3-19.4-16.3s-18.2,16.3-30.1,16.3c-13.2,0-11.9-20.1-20.1-20.1
		c-11.3,0-19.4,17.6-22.6,17.6c-12.5,0-15.7-14.4-27-14.4c-12.5,0-12.5,11.9-21.3,14.4c-7.5,1.9-16.3,3.8-40.8,0.6
		c-15.7-2.5-29.5-15.1-29.5-38.9c0-42.7,47.1-104.8,146.8-104.8c94.1,0,140.5,59,140.5,106.7
		C-1355.7,654.7-1380.8,655.9-1386.5,655.9z"/>
</g>
<rect x="-2166.3" y="879.3" class="st2" width="1351.4" height="233.4"/>
<text transform="matrix(1 0 0 1 -1981.584 989.8187)" class="st1" style="font-family:'GrafolitaScript-Bold'; font-size:144.2973px;">Love in Every Bite</text>
<rect x="-1001.9" y="889.3" class="st2" width="82.2" height="82.2"/>
<text transform="matrix(1 0 0 1 -1002.2032 907.39)" class="st1" style="font-family:'MyriadPro-Regular'; font-size:25.0952px;">TM</text>
</svg>
