<?xml version="1.0" encoding="utf-8"?>
<!-- Generator: Adobe Illustrator 22.0.1, SVG Export Plug-In . SVG Version: 6.00 Build 0)  -->
<svg version="1.1" id="Layer_1" xmlns="http://www.w3.org/2000/svg" xmlns:xlink="http://www.w3.org/1999/xlink" x="0px" y="0px"
	 viewBox="0 0 792 612" style="enable-background:new 0 0 792 612;" xml:space="preserve">
<style type="text/css">
	.st0{fill:#4B2418;}
</style>
<path class="st0" d="M547.3,197.2c-32.6-33.3-79.4-59.7-155.4-59.7c-129.9,0-200.5,96.3-200.5,157.1c0,48.3,32.2,73.9,78,73.4
	c1,0,2,0,3,0.1c0.8,0,1.7-0.1,2.5-0.1c21.3,2.3,24.1,21.2,45.6,76.6c3.7,9.4,10.5,28.6,33.8,28.6s100.5,0.9,123.8,0.9
	s24.1-20.3,27.7-31.7c3.5-11.4,20.7-62.5,26.4-69.8c0.3-0.4,0.7-0.7,1.1-1.1h0.1c12.3-10.2,66.6-11.9,66.6-70.3
	C600,276,582.1,232.7,547.3,197.2z M504.2,400.2c-3.7,12.2-8.3,26.8-14.8,39.5c-9.8,19-18.2,19.5-40.3,19.2
	c-12-0.2-48.8-2.2-86.6-5.3c-33.8-2.7-40.8-37.3-44.4-49.1c-7.1-23-8.2-38.4-5-46.6l0,0c5.5-4.5,9.1-8.5,17.2-4.6
	c11.3,5.4,15.1,8.6,26,8.6c16.8,0,23.7-9.4,30.7-9.4c6.9,0,13.4,14.7,31.5,14.7c12.4,0,30.4-12,34.9-12c4.4,0,15.3,10.9,25.8,10.9
	s12.6-8.8,21.6-10.9c2.9-0.7,5.9-0.7,8.7,0.6C510.3,361.4,509.1,383.9,504.2,400.2z M541.3,348.8c-13.4,0-16-16.2-28.7-16.2
	c-17.3,0-20.5,19.1-31.4,19.1c-13.2,0-12.7-21.3-25.2-21.3s-23.3,21.3-39,21.3c-17.3,0-15.5-26.5-26.5-26.5
	c-14.4,0-25.2,22.8-29.4,22.8c-16.7,0-20.8-18.4-34.7-18.4c-16.1,0-16.3,15.4-27.3,18.4c-10,2.7-21.3,5.2-52.6,0.6
	c-20.7-3.1-38.3-19.5-38.3-50.5c0-55.3,60.8-136.1,190.5-136.1c122,0,182.3,76.7,182.3,138.4C580.9,347.4,548,348.8,541.3,348.8z"/>
</svg>
