<?xml version="1.0" encoding="utf-8"?>
<!-- Generator: Adobe Illustrator 22.1.0, SVG Export Plug-In . SVG Version: 6.00 Build 0)  -->
<svg version="1.1" id="Layer_2_1_" xmlns="http://www.w3.org/2000/svg" xmlns:xlink="http://www.w3.org/1999/xlink" x="0px" y="0px"
	 viewBox="0 0 1492.8 1177.5" style="enable-background:new 0 0 1492.8 1177.5;" xml:space="preserve">
<style type="text/css">
	.st0{fill:#FFFFFF;}
</style>
<g>
	<path class="st0" d="M444.4,559.9C300.1,541.7,304.5,430,315.2,344.1c11.9-95.4,74.7-224.6,67.1-225.2
		C366.6,117,251.2,259.4,228,298.3c-20.7,34.5-50.2,160-51.4,168.8c-1.3,8.2-3.8,10-15.7,8.8c-10-1.3-7.5-8.2-5.6-15.1
		c31.4-121.7,103.5-316.8,80.3-320c-23.2-3.1-186.3,69-207.7,52.1c-15.1-11.9,0.6-8.8,35.8-18.8c43.9-11.9,143-65.2,186.3-59.6
		s-21.3,136.8-10.7,138C249.2,253.8,371,75,401.7,78.7c40.2,5-57.1,171.9-69,266.6s-5,190.1,111.7,204.5c8.2,1.3,13.2,1.9,12.5,5.6
		C456.3,559.3,450.6,560.6,444.4,559.9z"/>
	<path class="st0" d="M419.9,447c27,2.5,43.3-19.4,43.3-18.8c0,0,8.8,7.5,26.3,9.4c40.2,3.8,107.9-71.5,126.7-69.6
		c23.2,2.5-8.8,69.6,5,70.9c14.4,1.3,38.3-69.6,46.4-68.4c1.3,12.5,4.4,30.7,35.8,33.9c54,5.6,129.9-45.2,145.6-43.9
		c11.9,1.3-22.6,47.1,0,49.6c10.7,1.3,45.8-43.3,46.4-42.7c0.6,0.6,3.8,21.3,31.4,23.8c41.4,4.4,82.2-24.5,82.2-24.5
		c1.3,20.1,8.2,35.1,37,38.3c41.4,4.4,72.1-36.4,72.1-36.4c-2.5,12.5-6.3,32-10,55.8c-77.8,70.3-106,130.5-112.3,196.4
		c-3.1,30.7,10.7,57.7,30.1,59.6c60.9,6.3,67.1-119.2,94.7-249.1c31.4-25.1,89.7-53.3,120.5-83.4c33.9-32.6,64-78.4,77.8-77.2
		c11.3,1.3-5.6,40.2-22.6,66.5c-4.4-2.5-10-4.4-20.1-5.6c-25.1-2.5-30.1,32.6-3.8,35.8c8.8,0.6,15.7-5,23.2-13.2
		c13.2,6.9,40.8,13.2,60.2,13.2c97.2-2.5,120.5-66.5,113.6-66.5c-9.4,0-16.9,52.1-114.2,54.6c-21.3,0.6-45.2-7.5-50.8-11.9
		c25.1-33.3,52.7-89.7,23.8-92.2c-33.3-3.1-58.3,66.5-112.3,106c-35.1,25.7-43.3,32-92.2,60.9c3.8-17.6,10-46.4,15.1-63.4
		c11.9-40.8,20.1-46.4,10.7-47.1c-9.4-0.6-48.9,83.4-99.1,80.3c-20.7-1.3-28.2-16.3-24.5-32c3.8-16.3,27-42.7,10-43.9
		c-8.8-0.6-42,74-111.7,67.1c-44.5-4.4,13.8-57.1-5.6-59c-10-1.3-45.2,64-56.5,62.7c1.9-20.1,5-38.9-10-40.2
		c-30.1-3.1-91.6,51.4-150.6,45.8c-38.9-3.8,1.3-56.5-15.7-59.6c-11.3-1.9-42,75.3-49.6,74.7c-2.5,0,20.7-50.2-8.8-53.3
		c-34.5-3.8-93.5,75.3-134.9,70.9c-26.3-2.5-13.8-32.6-5.6-55.8c8.2-23.2,12.5-47.7-11.9-50.2S393.4,363,389,405
		C386.6,431.3,394.2,444.5,419.9,447z M463.2,388.7c-8.8,27-23.2,41.4-37,39.5c-9.4-0.6-15.7-10-14.4-24.5
		c2.5-28.2,43.9-78.4,58.3-77.2C485.1,328.4,473.2,360.4,463.2,388.7z M1035.4,659.1c-11.9-1.3-23.8-13.2-20.7-43.9
		c6.9-68.4,27-109.8,91-174.4C1090.6,532.3,1068,662.2,1035.4,659.1z M1273.1,359.8c-14.4-1.3-10-16.9-0.6-15.7
		c3.1,0.6,8.8,1.3,13.2,6.3C1283.2,355.4,1279.4,360.4,1273.1,359.8z"/>
	<path class="st0" d="M1225.4,166.6c7.5,2.5,7.5,4.4,6.9,11.9c0,18.8-13.8,45.2-18.8,44.5c-5.6-0.6,0.6-4.4,2.5-24.5
		C1218.5,177.9,1208.5,160.3,1225.4,166.6z"/>
</g>
<g>
	<path class="st0" d="M686.5,674.7c-3.8,0,0.6,21.3,2.5,29.5c2.5,8.2,6.9,24.5,10,24.5c5-0.6,0-18.8-2.5-28.9
		C694.1,690.4,690.3,674.7,686.5,674.7z"/>
	<path class="st0" d="M723.5,674.7c-3.8,0.6-3.8,11.3-3.1,20.7c0.6,15.1,1.3,27.6,5.6,27.6c3.8,0,3.1-15.7,2.5-25.7
		S726.7,674.7,723.5,674.7z"/>
	<path class="st0" d="M753.7,676.6c-3.1,0-4.4,6.3-4.4,25.7c0,8.8,1.9,24.5,6.9,25.1c5,0,1.3-16.9,1.3-23.2S759.3,676.6,753.7,676.6
		z"/>
	<path class="st0" d="M788.2,675.4c-6.3,0-10,15.7-10,28.9c0,10,0.6,25.1,6.3,25.1c6.3,0,1.3-15.1,1.3-25.7
		C785.7,692.9,794.4,675.4,788.2,675.4z"/>
	<path class="st0" d="M682.8,543.6c-17.6,0-28.2,7.5-19.4,11.9c11.3,5.6,5,15.7,13.8,16.9c9.4,1.3,10.7-13.2,13.8-14.4
		C694.7,556.8,700.3,543.6,682.8,543.6z"/>
	<path class="st0" d="M662.1,606.4c-11.9-5-16.3-12.5-19.4-4.4c-3.1,7.5-7.5,15.1-3.8,16.9c5,2.5,1.3,3.8,18.8,2.5
		C666.5,620.8,676.5,613.9,662.1,606.4z"/>
	<path class="st0" d="M736.1,585.7c-16.9-6.3-15.7-3.1-22.6,3.8c-6.3,6.3-8.8,25.7-0.6,22c13.2-6.9,22-9.4,25.7-9.4
		C742.4,602,753,591.9,736.1,585.7z"/>
	<path class="st0" d="M808.9,597c-6.9,1.3-8.2-2.5-15.1,4.4c-5.6,6.3-10,16.3-2.5,20.7c9.4,5,13.2,1.3,20.1-8.8
		C813.9,610.1,827.1,594.4,808.9,597z"/>
	<path class="st0" d="M775,542.4c-16.9-6.3-15.1,3.1-24.5,2.5c-10,0-3.8,10,3.8,14.4c10.7,6.3,19.4-1.3,23.2-0.6
		C781.3,558.7,791.9,548.6,775,542.4z"/>
	<path class="st0" d="M842.1,539.2c-25.1-25.7-60.9-45.8-119.8-45.8c-99.8,0-154.3,74-154.3,121.1c0,37,24.5,57.1,60.2,56.5
		c0.6,0,1.3,0,2.5,0c0.6,0,0.6,0,1.3,0c17.6,1.3,19.4,16.3,37,59.6c2.5,7.5,8.2,22,25.7,22c18.2,0,77.2,0.6,95.4,0.6
		s18.8-15.7,21.3-24.5s11.3-43.3,21.3-55.8c4.4-5.6,50.2-8.8,50.2-53.3C882.9,600.1,869.1,566.8,842.1,539.2z M809.5,695.4
		c-2.5,9.4-6.3,20.7-11.3,30.1c-7.5,14.4-13.8,15.1-30.7,15.1c-9.4,0-37.6-1.9-66.5-3.8c-25.7-1.9-31.4-28.9-33.9-37.6
		c-5.6-17.6-6.9-30.7-4.4-37c4.4-3.8,6.9-5.6,12.5-3.1c8.8,4.4,11.9,6.9,20.1,6.9c13.2,0,18.2-7.5,23.8-7.5c5,0,10,11.3,24.5,11.3
		c9.4,0,23.2-9.4,27-9.4s11.9,8.2,20.1,8.2s9.4-6.9,16.9-8.2c1.9-0.6,3.8-0.6,5.6,0C814.5,662.8,813.3,681.6,809.5,695.4z
		 M837.7,655.9c-10,0-12.5-12.5-22-12.5c-13.2,0-15.7,14.4-23.8,14.4c-10,0-10-16.3-19.4-16.3s-18.2,16.3-30.1,16.3
		c-13.2,0-11.9-20.1-20.1-20.1c-11.3,0-19.4,17.6-22.6,17.6c-12.5,0-15.7-14.4-27-14.4c-12.5,0-12.5,11.9-21.3,14.4
		c-7.5,1.9-16.3,3.8-40.8,0.6c-15.7-2.5-29.5-15.1-29.5-38.9c0-42.7,47.1-104.8,146.8-104.8c94.1,0,140.5,59,140.5,106.7
		C868.5,654.7,843.4,655.9,837.7,655.9z"/>
</g>
<g>
	<path class="st0" d="M339,1005.5c-7.6,0-15.9-5.2-27.9-13.6c-8.1-5.6-11.3-8.2-22.1-16c5.2-7.6,8.8-17.7,10.8-25.4
		c3.5-13,3.9-24.5,5.8-37.2c3-20.8,7.5-27,13.6-27c7.8,0,10.7,10.7,10.7,19.2c0,11.7-5.3,28.4-16,35.5l1.9,2.6
		c15.3-8.4,25.3-26.1,25.3-41.1c0-12.7-7.2-23.1-18.3-23.1c-13.7,0-25.3,15.6-30.3,33.8c-2.9,10.2-5.2,30.6-6.1,36.5
		c-1,6.9-2.6,14.9-4.9,21.1c-6.1-3.8-10.2-5.3-15.2-5.3c-10.4,0-21.2,7.1-21.2,15.4c0,6.8,7.2,11.8,16.9,11.8
		c7.1,0,13.3-2.7,18.5-7.2c10.4,8.5,18.3,15,22.5,18c12.4,9.1,19.8,14.3,27.9,14.3c8.7,0,16.9-5.9,23.8-15.7l-2.6-2.3
		C348.8,1003.2,344.1,1005.5,339,1005.5z M264.6,986.9c-6.3,0-11.5-4.9-11.5-9.4c0-2.5,1.4-4.9,5.3-4.9c4,0,8.8,2.7,16.9,8.8
		C272.2,985.1,268.6,986.9,264.6,986.9z"/>
	<path class="st0" d="M482,984.2c-8.1,0-14-7.9-14.9-20.2c7.5-1.9,16-5.9,21.1-10.2c4.8-4,8.1-9.5,8.1-14.9
		c0-6.2-4.3-10.4-11.3-10.4c-5.9,0-12.3,3-17.3,7.2c-8.8,7.2-13.2,17-14,26.1c-3.1,2.7-6.8,3.9-10.8,3.9c2-5.3,3.3-11.3,3.3-17
		c0-13-5.9-21.6-14-21.6c-8.8,0-14,10.4-14,20.3c0,10.5,5.8,19.6,14.9,22.9c-2.9,8.4-8.4,14-14.1,14c-8.4,0-11.1-11.4-11.1-21.2
		c0-8.5,2-18.6,3.3-25c0.7-3.5,1-5.2,1-6.2c0-2.2-1.2-3.2-3-3.2c-3,0-8.5,2.6-11.1,4.5c-1.2,6.4-2.4,13.2-3.2,19.8
		c-2.9,8.8-8.7,13-16,13.4c1.6-4.6,2.5-9.8,2.5-15c0-17.5-10.2-23.8-18-23.8c-8.2,0-14.7,6.9-14.7,18c0,13.1,9.1,22.9,20.1,26.1
		c-2.2,6.9-6.5,12.4-12.7,12.4c-9.8,0-15.3-13.7-15.3-26.8c0-7.2,1.6-15.2,6.5-18.9l-1.4-2.9c-11.5,4.5-18.2,15.6-18.2,28.4
		c0,17,11.4,27.4,23.7,27.4c11.3,0,19.9-8.8,25-18.6c6,0,12.9-2,17.9-8.5c0,0.3,0,0.6,0,0.8c0,17.6,9.4,26.1,20.3,26.1
		c12.1,0,20.8-10,25.8-19.5h1.2c3.8,0,8.3-1,12.4-3.6c1.4,14.6,12.5,22.9,23.8,22.9c14,0,29.3-13,35.1-44.9l-4-0.4
		C503.5,972.2,491.8,984.2,482,984.2z M470.2,944.4c2.3-5.3,5.8-8.8,9.8-8.8c3.3,0,5.2,2.5,5.2,6.6c0,10.1-10.5,15.3-18,16.9
		C467.3,954.5,468.3,948.8,470.2,944.4z M370.1,965.1c-9.2-3-16-11.5-16-20.3c0-3.6,1.2-8.8,5.1-8.8c5.9,0,11.3,12,11.3,24.1
		C370.3,961.8,370.2,963.6,370.1,965.1z M435,963.6c-7.1-4-10.7-13.1-10.7-20.1c0-4,0.9-7.9,4.2-7.9c4.2,0,7.2,8.9,7.2,19.8
		C435.7,958.2,435.4,961,435,963.6z"/>
	<path class="st0" d="M551.7,916.7c4.8,0,8.5-3.8,8.5-8.4c0-4.8-3.8-8.5-8.5-8.5c-4.8,0-8.4,3.8-8.4,8.5
		C543.4,912.9,547,916.7,551.7,916.7z"/>
	<path class="st0" d="M623,984.3c-4,0-5.9-6.9-5.9-16.2c0-11.5,3-21.9,5.1-31.3c-3.5-4.5-8.2-7.4-13.9-8.8
		c-11.5,1.7-21.6,15.2-26.1,36.5h-0.4c0.3-3,0.7-6.9,1.3-10.8c1.4-9.4,3.3-17.5,3.3-21.1c0-2.6-1-3.9-3.2-3.9
		c-2.9,0-8.2,2.3-11.1,4.2c-0.3,4.6-0.9,9.2-1.5,14c-5.2,27.9-11.8,37.4-16.5,37.4c-4,0-5.8-6.9-5.8-14.6c0-7.4,1.4-16.3,2.7-23.8
		c1-5.9,2-11.1,2-13.3c0-2.6-1-3.9-3.2-3.9c-2.9,0-8.2,2.3-11.1,4.2c-1.2,12.3-3.9,26.1-3.9,36.4c0,14.9,7.1,21.6,15.3,21.6
		c6.5,0,12.9-4.3,18.3-19.5c0,6.9,0.8,19.2,6.6,19.2c1.6,0,5.2-1,8.7-2.9c-0.1-8.9,1.7-21.1,5.1-30.7c2.6-7.5,6.2-13.9,9.8-17.5
		c1.7-1.6,3.5-2.6,5.2-2.6c2.3,0,2.9,1.6,2.9,3.5c0,3.8-3.3,16.3-3.3,27.7c0,16,7.6,22.8,15.6,22.8c9.1,0,18.2-8.5,24.7-44.7l-4-0.4
		C634.4,974.5,627.6,984.3,623,984.3z"/>
	<path class="st0" d="M732.2,950.6c0.1,1.3,0.3,2.3,0.3,3.9c0,8.4-3.6,15.7-8.1,20.8c-5.5,6.1-12.8,9.4-20.9,9.4
		c-14.9,0-26.1-11.1-26.1-25.7c0-14.7,11.5-26,32.8-27.7c0.3-1.3,0.4-2.6,0.4-3.8c-15.3-5.5-25.3-14.4-25.3-25.4
		c0-10.1,8.7-16.2,18.2-16.2c10.7,0,17.6,7.5,17.6,16.3c0,3-0.9,5.3-2.3,6.9l1.9,1.7c5.6-2.6,10.1-8.1,10.1-14.9
		c0-10.8-11.4-16.6-22.7-16.6c-16.2,0-35.1,12.1-35.1,29.4c0,10.8,7.4,18,15.4,22.7v0.3c-15.2,5.9-26.4,17.6-26.4,32
		c0,18.9,19.2,27.9,35.9,27.9c11.8,0,23.1-4.6,30.7-11.8c6.5-6.1,10-13.3,10-20.1c0-4.2-1.3-7.4-3.8-10.1L732.2,950.6z"/>
	<path class="st0" d="M903.4,937c0-4.5-3.3-8.4-8.9-8.4c-8.4,0-14.6,10.8-20.2,26.4l-0.4-0.1c1.3-5.1,3.2-13.6,3.2-19.3
		c0-3.5-0.6-6.8-3.8-6.8c-2.7,0-7.9,2.3-10.8,4.2c0.3,2,0.4,3.8,0.4,6.5c0,2.6-0.1,5.3-0.3,8c-5.2,25.2-16.6,36.7-26.2,36.7
		c-8.1,0-14-7.9-14.9-20.2c7.5-1.9,16-5.9,21.1-10.2c4.8-4,8.1-9.5,8.1-14.9c0-6.2-4.3-10.4-11.3-10.4c-5.9,0-12.3,3-17.3,7.2
		c-8.8,7.2-13.2,17-14,26.1c-3.1,2.7-6.8,3.9-10.8,3.9c2-5.3,3.3-11.3,3.3-17c0-13-5.9-21.6-14-21.6c-8.8,0-14,10.4-14,20.3
		c0,10.5,5.8,19.6,14.9,22.9c-2.9,8.4-8.4,14-14.1,14c-8.4,0-11.1-11.4-11.1-21.2c0-8.5,2-18.6,3.3-25c0.7-3.5,1-5.2,1-6.2
		c0-2.2-1.2-3.2-3-3.2c-3,0-8.5,2.6-11.1,4.5c-2,10.5-4,22.2-4,31.9c0,17.6,9.4,26.1,20.3,26.1c12.1,0,20.8-10,25.8-19.5h1.2
		c3.8,0,8.3-1,12.4-3.6c1.4,14.6,12.5,22.9,23.8,22.9c10,0,20.8-6.7,28.1-22.2c-0.7,5.3-1.3,9.7-1.3,12.6c0,4.3,1.3,10,5.2,10
		c1.9,0,4.9-1.3,7.9-2.5c0.4-12,2.2-22.4,5.5-31.6c3.8-10.4,8.4-16.3,12.6-16.3c2.5,0,4,1.9,5.1,5.5
		C899.6,944.8,903.4,941.6,903.4,937z M824.4,944.4c2.3-5.3,5.8-8.8,9.8-8.8c3.3,0,5.2,2.5,5.2,6.6c0,10.1-10.5,15.3-18,16.9
		C821.6,954.5,822.6,948.8,824.4,944.4z M789.2,963.6c-7.1-4-10.7-13.1-10.7-20.1c0-4,0.9-7.9,4.2-7.9c4.2,0,7.2,8.9,7.2,19.8
		C790,958.2,789.7,961,789.2,963.6z"/>
	<path class="st0" d="M955,928.8c-2.9,0-8.2,2.3-11.1,4.2c-0.3,6.9-1.7,17.9-4.2,28c-3,12.1-7.5,22.8-13.6,22.8
		c-4,0-6.8-4.8-6.8-14.4c0-10.7,3.3-24.5,3.3-32.2c0-4.9-1.6-8.4-5.2-8.4c-3.2,0-7.8,2.7-10.1,4.8c0.7,2.2,1,5.5,1,9.4
		c0,11.7-2.6,21.1-2.6,28.1c0,12.4,7.8,20.1,15.7,20.1c8.2,0,15.6-7.9,18.9-18h0.3c0,5.9-0.1,13.4-0.9,20.9
		c-0.7,8.5-2.2,16.9-4.8,22.9c-2.6,6.1-6.8,10.4-13,10.4c-9.1,0-17.5-8.9-17.5-20.6c0-3.5,0.7-6.2,2.9-8.9l-1.9-1.7
		c-5.9,4.9-9.8,12.7-9.8,19.5c0,9.8,8.1,18.9,19.6,18.9c9.7,0,19.5-6.2,24.8-13.1c5.2-6.8,8.4-16.5,11.1-34.9
		c2.2-14.9,2.3-20.2,5.8-45.5c0.9-6.2,1-7.2,1-8.2C958.2,930.1,957.2,928.8,955,928.8z"/>
	<path class="st0" d="M1059.6,930.7v-0.3c11.1-4.2,22.1-13.7,22.1-26.6c0-18-21.2-24.5-37.5-24.5c-12.4,0-25.7,3.8-36.5,11.4
		c-12.1,8.5-20.6,21.4-20.6,34.6c0,14,9.7,23.4,22.1,23.4l0.9-2.6c-8.7-4.8-11.5-14.9-11.5-23.2c0-11,4.8-20.6,13-27.4
		c7.6-6.3,18-10.1,29.3-10.1c15.7,0,27.3,7.4,27.3,20.9c0,14.9-14,24-27.3,24l-0.1,3.8c16.3,0,29.1,9.1,29.1,25.3
		c0,16.7-14,24.7-29.4,24.7c-10.8,0-12.4-3.9-12.4-11.8c0-13.1,4.5-36.4,7.1-49.2c2.3-11.7,3.8-17.3,3.8-19.2c0-1.7-1.2-2.7-2.9-2.7
		c-2.7,0-8.2,2.5-11.3,4.5c-2.9,18.6-4.6,28.1-6.2,37.1c-4.2,23.8-4.2,33-4.2,36.4c0,7.5,1.4,12.8,5.9,12.8c2,0,5-1.2,7.8-2.3
		c2.3,0.4,4.6,0.7,7.8,0.7c19.8,0,48.9-11.1,48.9-34.2C1084.6,941.2,1072.5,932.7,1059.6,930.7z"/>
	<path class="st0" d="M1111.4,916.7c4.8,0,8.5-3.8,8.5-8.4c0-4.8-3.8-8.5-8.5-8.5s-8.4,3.8-8.4,8.5
		C1103.1,912.9,1106.7,916.7,1111.4,916.7z"/>
	<path class="st0" d="M1191.5,984.2c-8.1,0-14-7.9-14.9-20.2c7.5-1.9,16-5.9,21.1-10.2c4.8-4,8.1-9.5,8.1-14.9
		c0-6.2-4.3-10.4-11.3-10.4c-5.9,0-12.3,3-17.3,7.2c-9.8,8.1-14.1,19.3-14.1,29.3c0,2.3,0.2,4.5,0.7,6.5
		c-4.2,9.1-8.8,13.1-12.6,13.1c-4.9,0-8.2-6.6-8.2-21.4c0-8.7,1.3-19,3-29.4l17.2-0.7c0.7-1.2,1-2.2,1-3s-0.3-1.7-0.7-2.5l-16.5,1.3
		c2-10.4,4.5-21.1,4.5-24.2c0-2-0.9-3-2.9-3c-2.9,0-8.4,2.5-11.5,4.5c-1.2,6.1-1.6,10-3.9,23.5l-9.2,0.4c-0.1,0.4-0.3,1.4-0.3,2.2
		c0,0.9,0.1,1.7,0.6,2.6l8.1-0.4c-0.8,4.9-1.6,9.7-2.3,14.4c-5.1,26.4-11.6,35.6-16.2,35.6c-4,0-5.8-6.9-5.8-14.6
		c0-7.4,1.4-16.3,2.7-23.8c1-5.9,2-11.1,2-13.3c0-2.6-1-3.9-3.2-3.9c-2.9,0-8.2,2.3-11.1,4.2c-1.2,12.3-3.9,26.1-3.9,36.4
		c0,14.9,7.1,21.6,15.3,21.6c6.8,0,13.4-4.7,19-21.3c1.5,17.1,11,21.5,18.4,21.5c4.7,0,12-1.8,18.4-13.8
		c4.1,8.9,12.7,13.8,21.4,13.8c14,0,29.3-13,35.1-44.9l-4-0.4C1213,972.2,1201.3,984.2,1191.5,984.2z M1179.7,944.4
		c2.3-5.3,5.8-8.8,9.8-8.8c3.3,0,5.2,2.5,5.2,6.6c0,10.1-10.5,15.3-18,16.9C1176.8,954.5,1177.8,948.8,1179.7,944.4z"/>
	<polygon class="st0" points="1222,892.3 1227.1,892.3 1227.1,907.4 1229.4,907.4 1229.4,892.3 1234.5,892.3 1234.5,890.5 
		1222,890.5 	"/>
	<path class="st0" d="M1252.2,890.5h-2.8l-3,8.2c-0.8,2.1-1.4,4-1.8,5.7h-0.1c-0.4-1.8-1-3.6-1.7-5.7l-2.9-8.2h-2.8l-1.2,16.9h2.1
		l0.5-7.3c0.2-2.5,0.3-5.4,0.3-7.5h0.1c0.5,2,1.2,4.2,2,6.6l2.7,8.1h1.7l3-8.2c0.9-2.3,1.6-4.4,2.1-6.4h0.1c0,2.1,0.1,4.9,0.3,7.3
		l0.4,7.4h2.1L1252.2,890.5z"/>
</g>
</svg>
