<?xml version="1.0" encoding="utf-8"?>
<!-- Generator: Adobe Illustrator 22.1.0, SVG Export Plug-In . SVG Version: 6.00 Build 0)  -->
<svg version="1.1" id="Layer_2_1_" xmlns="http://www.w3.org/2000/svg" xmlns:xlink="http://www.w3.org/1999/xlink" x="0px" y="0px"
	 viewBox="0 0 250 197.2" style="enable-background:new 0 0 250 197.2;" xml:space="preserve">
<style type="text/css">
	.st0{fill:#FFFFFF;}
	.st1{fill:none;}
	.st2{font-family:'GrafolitaScript-Bold';}
	.st3{font-size:23px;}
	.st4{font-family:'MyriadPro-Regular';}
	.st5{font-size:4px;}
</style>
<g>
	<g>
		<path class="st0" d="M76.8,99.8c-23-2.9-22.3-20.7-20.6-34.4c1.9-15.2,11.9-35.8,10.7-35.9C64.4,29.2,46,51.9,42.3,58.1
			c-3.3,5.5-8,25.5-8.2,26.9c-0.2,1.3-0.6,1.6-2.5,1.4c-1.6-0.2-1.2-1.3-0.9-2.4c5-19.4,16.5-50.5,12.8-51s-29.7,11-33.1,8.3
			c-2.4-1.9,0.1-1.4,5.7-3c7-1.9,22.8-10.4,29.7-9.5s-3.4,21.8-1.7,22c1.6,0.2,21-28.3,25.9-27.7c6.4,0.8-9.1,27.4-11,42.5
			s-0.8,30.3,17.8,32.6c1.3,0.2,2.1,0.3,2,0.9S77.8,99.9,76.8,99.8z"/>
		<path class="st0" d="M72.9,81.8c4.3,0.4,6.9-3.1,6.9-3c0,0,1.4,1.2,4.2,1.5c6.4,0.6,17.2-11.4,20.2-11.1
			c3.7,0.4-1.4,11.1,0.8,11.3c2.3,0.2,6.1-11.1,7.4-10.9c0.2,2,0.7,4.9,5.7,5.4c8.6,0.9,20.7-7.2,23.2-7c1.9,0.2-3.6,7.5,0,7.9
			c1.7,0.2,7.3-6.9,7.4-6.8c0.1,0.1,0.6,3.4,5,3.8c6.6,0.7,13.1-3.9,13.1-3.9c0.2,3.2,1.3,5.6,5.9,6.1c6.6,0.7,11.5-5.8,11.5-5.8
			c-0.4,2-1,5.1-1.6,8.9c-12.4,11.2-16.9,20.8-17.9,31.3c-0.5,4.9,1.7,9.2,4.8,9.5c9.7,1,10.7-19,15.1-39.7c5-4,14.3-8.5,19.2-13.3
			c5.4-5.2,10.2-12.5,12.4-12.3c1.8,0.2-0.9,6.4-3.6,10.6c-0.7-0.4-1.6-0.7-3.2-0.9c-4-0.4-4.8,5.2-0.6,5.7c1.4,0.1,2.5-0.8,3.7-2.1
			c2.1,1.1,6.5,2.1,9.6,2.1c15.5-0.4,19.2-10.6,18.1-10.6c-1.5,0-2.7,8.3-18.2,8.7c-3.4,0.1-7.2-1.2-8.1-1.9
			c4-5.3,8.4-14.3,3.8-14.7c-5.3-0.5-9.3,10.6-17.9,16.9c-5.6,4.1-6.9,5.1-14.7,9.7c0.6-2.8,1.6-7.4,2.4-10.1
			c1.9-6.5,3.2-7.4,1.7-7.5s-7.8,13.3-15.8,12.8c-3.3-0.2-4.5-2.6-3.9-5.1c0.6-2.6,4.3-6.8,1.6-7c-1.4-0.1-6.7,11.8-17.8,10.7
			c-7.1-0.7,2.2-9.1-0.9-9.4c-1.6-0.2-7.2,10.2-9,10c0.3-3.2,0.8-6.2-1.6-6.4c-4.8-0.5-14.6,8.2-24,7.3c-6.2-0.6,0.2-9-2.5-9.5
			c-1.8-0.3-6.7,12-7.9,11.9c-0.4,0,3.3-8-1.4-8.5c-5.5-0.6-14.9,12-21.5,11.3c-4.2-0.4-2.2-5.2-0.9-8.9c1.3-3.7,2-7.6-1.9-8
			s-13,7.6-13.7,14.3C67.6,79.3,68.8,81.4,72.9,81.8z M79.8,72.5c-1.4,4.3-3.7,6.6-5.9,6.3c-1.5-0.1-2.5-1.6-2.3-3.9
			c0.4-4.5,7-12.5,9.3-12.3C83.3,62.9,81.4,68,79.8,72.5z M171,115.6c-1.9-0.2-3.8-2.1-3.3-7c1.1-10.9,4.3-17.5,14.5-27.8
			C179.8,95.4,176.2,116.1,171,115.6z M208.9,67.9c-2.3-0.2-1.6-2.7-0.1-2.5c0.5,0.1,1.4,0.2,2.1,1C210.5,67.2,209.9,68,208.9,67.9z
			"/>
		<path class="st0" d="M201.3,37.1c1.2,0.4,1.2,0.7,1.1,1.9c0,3-2.2,7.2-3,7.1c-0.9-0.1,0.1-0.7,0.4-3.9
			C200.2,38.9,198.6,36.1,201.3,37.1z"/>
	</g>
	<g>
		<path class="st0" d="M115.4,118.1c-0.6,0,0.1,3.4,0.4,4.7c0.4,1.3,1.1,3.9,1.6,3.9c0.8-0.1,0-3-0.4-4.6
			C116.6,120.6,116,118.1,115.4,118.1z"/>
		<path class="st0" d="M121.3,118.1c-0.6,0.1-0.6,1.8-0.5,3.3c0.1,2.4,0.2,4.4,0.9,4.4c0.6,0,0.5-2.5,0.4-4.1
			C122,120.1,121.8,118.1,121.3,118.1z"/>
		<path class="st0" d="M126.1,118.4c-0.5,0-0.7,1-0.7,4.1c0,1.4,0.3,3.9,1.1,4c0.8,0,0.2-2.7,0.2-3.7S127,118.4,126.1,118.4z"/>
		<path class="st0" d="M131.6,118.2c-1,0-1.6,2.5-1.6,4.6c0,1.6,0.1,4,1,4c1,0,0.2-2.4,0.2-4.1S132.6,118.2,131.6,118.2z"/>
		<path class="st0" d="M114.8,97.2c-2.8,0-4.5,1.2-3.1,1.9c1.8,0.9,0.8,2.5,2.2,2.7c1.5,0.2,1.7-2.1,2.2-2.3
			C116.7,99.3,117.6,97.2,114.8,97.2z"/>
		<path class="st0" d="M111.5,107.2c-1.9-0.8-2.6-2-3.1-0.7c-0.5,1.2-1.2,2.4-0.6,2.7c0.8,0.4,0.2,0.6,3,0.4
			C112.2,109.5,113.8,108.4,111.5,107.2z"/>
		<path class="st0" d="M123.3,103.9c-2.7-1-2.5-0.5-3.6,0.6c-1,1-1.4,4.1-0.1,3.5c2.1-1.1,3.5-1.5,4.1-1.5S126,104.9,123.3,103.9z"
			/>
		<path class="st0" d="M134.9,105.7c-1.1,0.2-1.3-0.4-2.4,0.7c-0.9,1-1.6,2.6-0.4,3.3c1.5,0.8,2.1,0.2,3.2-1.4
			C135.7,107.8,137.8,105.3,134.9,105.7z"/>
		<path class="st0" d="M129.5,97c-2.7-1-2.4,0.5-3.9,0.4c-1.6,0-0.6,1.6,0.6,2.3c1.7,1,3.1-0.2,3.7-0.1
			C130.5,99.6,132.2,98,129.5,97z"/>
		<path class="st0" d="M140.2,96.5c-4-4.1-9.7-7.3-19.1-7.3c-15.9,0-24.6,11.8-24.6,19.3c0,5.9,3.9,9.1,9.6,9c0.1,0,0.2,0,0.4,0
			c0.1,0,0.1,0,0.2,0c2.8,0.2,3.1,2.6,5.9,9.5c0.4,1.2,1.3,3.5,4.1,3.5c2.9,0,12.3,0.1,15.2,0.1s3-2.5,3.4-3.9s1.8-6.9,3.4-8.9
			c0.7-0.9,8-1.4,8-8.5C146.7,106.2,144.5,100.9,140.2,96.5z M135,121.4c-0.4,1.5-1,3.3-1.8,4.8c-1.2,2.3-2.2,2.4-4.9,2.4
			c-1.5,0-6-0.3-10.6-0.6c-4.1-0.3-5-4.6-5.4-6c-0.9-2.8-1.1-4.9-0.7-5.9c0.7-0.6,1.1-0.9,2-0.5c1.4,0.7,1.9,1.1,3.2,1.1
			c2.1,0,2.9-1.2,3.8-1.2c0.8,0,1.6,1.8,3.9,1.8c1.5,0,3.7-1.5,4.3-1.5c0.6,0,1.9,1.3,3.2,1.3s1.5-1.1,2.7-1.3
			c0.3-0.1,0.6-0.1,0.9,0C135.8,116.2,135.6,119.2,135,121.4z M139.5,115.1c-1.6,0-2-2-3.5-2c-2.1,0-2.5,2.3-3.8,2.3
			c-1.6,0-1.6-2.6-3.1-2.6s-2.9,2.6-4.8,2.6c-2.1,0-1.9-3.2-3.2-3.2c-1.8,0-3.1,2.8-3.6,2.8c-2,0-2.5-2.3-4.3-2.3
			c-2,0-2,1.9-3.4,2.3c-1.2,0.3-2.6,0.6-6.5,0.1c-2.5-0.4-4.7-2.4-4.7-6.2c0-6.8,7.5-16.7,23.4-16.7c15,0,22.4,9.4,22.4,17
			C144.4,114.9,140.4,115.1,139.5,115.1z"/>
	</g>
	<rect x="15.2" y="150.7" class="st1" width="215.4" height="37.2"/>
	<text transform="matrix(1 0 0 1 44.647 168.3205)" class="st0 st2 st3">Love in Every Bite</text>
	<rect x="200.8" y="152.3" class="st1" width="13.1" height="13.1"/>
	<text transform="matrix(1 0 0 1 200.7535 155.1816)" class="st0 st4 st5">TM</text>
</g>
</svg>
