<?xml version="1.0" encoding="utf-8"?>
<!-- Generator: Adobe Illustrator 22.0.1, SVG Export Plug-In . SVG Version: 6.00 Build 0)  -->
<svg version="1.1" id="Layer_2_1_" xmlns="http://www.w3.org/2000/svg" xmlns:xlink="http://www.w3.org/1999/xlink" x="0px" y="0px"
	 viewBox="0 0 250 132.2" style="enable-background:new 0 0 250 132.2;" xml:space="preserve">
<style type="text/css">
	.st0{fill:#4B2418;}
</style>
<g>
	<path class="st0" d="M74.8,103c-23.9-3-23.2-21.5-21.4-35.8c2-15.8,12.4-37.3,11.1-37.4c-2.6-0.3-21.8,23.3-25.6,29.8
		c-3.4,5.7-8.3,26.5-8.5,28c-0.2,1.4-0.6,1.7-2.6,1.5c-1.7-0.2-1.2-1.4-0.9-2.5C32,66.3,44,34,40.2,33.4s-31,11.5-34.5,8.7
		c-2.5-2,0.1-1.5,5.9-3.1c7.3-2,23.7-10.8,30.9-9.9S39,51.8,40.8,52c1.7,0.2,21.9-29.5,27-28.8c6.7,0.8-9.5,28.5-11.5,44.2
		s-0.8,31.5,18.5,33.9c1.4,0.2,2.2,0.3,2.1,0.9C76.8,102.9,75.9,103.1,74.8,103z"/>
	<path class="st0" d="M70.8,84.3c4.5,0.4,7.2-3.2,7.2-3.1c0,0,1.5,1.2,4.4,1.6c6.7,0.6,17.9-11.9,21-11.6c3.9,0.4-1.5,11.6,0.8,11.8
		c2.4,0.2,6.4-11.6,7.7-11.3c0.2,2.1,0.7,5.1,5.9,5.6c9,0.9,21.5-7.5,24.2-7.3c2,0.2-3.7,7.8,0,8.2c1.8,0.2,7.6-7.2,7.7-7.1
		c0.1,0.1,0.6,3.5,5.2,4c6.9,0.7,13.6-4.1,13.6-4.1c0.2,3.3,1.4,5.8,6.1,6.4c6.9,0.7,12-6,12-6c-0.4,2.1-1,5.3-1.7,9.3
		c-12.9,11.7-17.6,21.7-18.6,32.6c-0.5,5.1,1.8,9.6,5,9.9c10.1,1,11.1-19.8,15.7-41.3c5.2-4.2,14.9-8.8,20-13.8
		c5.6-5.4,10.6-13,12.9-12.8c1.9,0.2-0.9,6.7-3.7,11c-0.7-0.4-1.7-0.7-3.3-0.9c-4.2-0.4-5,5.4-0.6,5.9c1.5,0.1,2.6-0.8,3.9-2.2
		c2.2,1.1,6.8,2.2,10,2.2c16.1-0.4,20-11,18.8-11c-1.6,0-2.8,8.6-18.9,9.1c-3.5,0.1-7.5-1.2-8.4-2c4.2-5.5,8.7-14.9,4-15.3
		c-5.5-0.5-9.7,11-18.6,17.6c-5.8,4.3-7.2,5.3-15.3,10.1c0.6-2.9,1.7-7.7,2.5-10.5c2-6.8,3.3-7.7,1.8-7.8
		c-1.6-0.1-8.1,13.8-16.4,13.3c-3.4-0.2-4.7-2.7-4.1-5.3c0.6-2.7,4.5-7.1,1.7-7.3c-1.5-0.1-7,12.3-18.5,11.1
		c-7.4-0.7,2.3-9.5-0.9-9.8c-1.7-0.2-7.5,10.6-9.4,10.4c0.3-3.3,0.8-6.5-1.7-6.7c-5-0.5-15.2,8.5-25,7.6c-6.5-0.6,0.2-9.4-2.6-9.9
		c-1.9-0.3-7,12.5-8.2,12.4c-0.4,0,3.4-8.3-1.5-8.8c-6-0.9-15.8,12.2-22.7,11.5c-4.4-0.4-2.3-5.4-0.9-9.3s2.1-7.9-2-8.3
		c-4.1-0.4-13.5,7.9-14.3,14.9C65.2,81.6,66.5,83.8,70.8,84.3z M77.9,74.6c-1.5,4.5-3.9,6.9-6.1,6.6c-1.6-0.1-2.6-1.7-2.4-4.1
		c0.4-4.7,7.3-13,9.7-12.8C81.6,64.6,79.6,69.9,77.9,74.6z M172.9,119.4c-2-0.2-4-2.2-3.4-7.3c1.1-11.3,4.5-18.2,15.1-28.9
		C182.1,98.4,178.3,120,172.9,119.4z M212.3,69.8c-2.4-0.2-1.7-2.8-0.1-2.6c0.5,0.1,1.5,0.2,2.2,1C214,69.1,213.4,69.9,212.3,69.8z"
		/>
	<path class="st0" d="M204.4,37.7c1.2,0.4,1.2,0.7,1.1,2c0,3.1-2.3,7.5-3.1,7.4c-0.9-0.1,0.1-0.7,0.4-4.1
		C203.3,39.6,201.6,36.7,204.4,37.7z"/>
</g>
</svg>
