<?xml version="1.0" encoding="utf-8"?>
<!-- Generator: Adobe Illustrator 22.1.0, SVG Export Plug-In . SVG Version: 6.00 Build 0)  -->
<svg version="1.1" id="Layer_1" xmlns="http://www.w3.org/2000/svg" xmlns:xlink="http://www.w3.org/1999/xlink" x="0px" y="0px"
	 viewBox="0 0 554.7 554.7" style="enable-background:new 0 0 554.7 554.7;" xml:space="preserve">
<style type="text/css">
	.st0{display:none;}
	.st1{display:inline;}
	.st2{fill:#010002;}
	.st3{fill:#FFFFFF;}
</style>
<g id="Layer_1_1_" class="st0">
	<g class="st1">
		<g>
			<path class="st2" d="M468.7,197.8c3.5,4.3,4.7,9.5,3.9,15.5l-16.4,94c-0.6,4.9-2.8,8.9-6.7,12.1c-3.9,3.2-8.3,4.7-13.2,4.7H197.4
				l-4.7,26.7h227.7c5.5,0,10.2,1.9,14.2,5.8s6,8.7,6,14.4s-2,10.6-6,14.4c-4,3.9-8.8,5.8-14.2,5.8H168.5c-6,0-11.2-2.4-15.5-7.3
				c-4-4.9-5.6-10.5-4.7-16.8l10.8-58.7l-16.4-164.8l-46.6-14.7c-5.5-1.7-9.4-5-11.9-9.9c-2.4-4.9-2.9-10.1-1.5-15.5
				c1.7-5.5,5.1-9.4,10.1-11.9c5-2.4,10.1-2.9,15.3-1.5l59.5,19c3.7,1.2,6.8,3.3,9.3,6.5c2.4,3.2,4,6.8,4.5,10.8l3.5,32.8l270,30.2
				C460.9,190.4,465.5,193.2,468.7,197.8z M199.1,402.6c8.6,0,16,3,22,9.1c6,6,9.1,13.4,9.1,22s-3,16-9.1,22.2
				c-6,6.2-13.4,9.3-22,9.3s-16-3.1-22-9.3c-6-6.2-9.1-13.6-9.1-22.2s3-16,9.1-22C183.2,405.7,190.5,402.6,199.1,402.6z
				 M383.3,402.6c8.6,0,16,3,22,9.1c6,6,9.1,13.4,9.1,22s-3,16-9.1,22.2c-6,6.2-13.4,9.3-22,9.3s-16-3.1-22-9.3
				c-6-6.2-9.1-13.6-9.1-22.2s3-16,9.1-22S374.7,402.6,383.3,402.6z"/>
		</g>
	</g>
</g>
<path class="st3" d="M395.5,200.2C370.2,174.4,334,154,275.1,154c-100.6,0-155.3,74.6-155.3,121.7c0,37.4,24.9,57.2,60.4,56.8
	c0.8,0,1.5,0,2.3,0.1c0.6,0,1.3-0.1,1.9-0.1c16.5,1.8,18.7,16.4,35.3,59.3c2.9,7.3,8.1,22.1,26.2,22.1s77.8,0.7,95.9,0.7
	c18,0,18.7-15.7,21.5-24.5c2.7-8.8,16-48.4,20.4-54.1c0.2-0.3,0.5-0.5,0.9-0.9h0.1c9.5-7.9,51.6-9.2,51.6-54.4
	C436.3,261.2,422.4,227.7,395.5,200.2z M362.1,357.4c-2.9,9.4-6.4,20.8-11.5,30.6c-7.6,14.7-14.1,15.1-31.2,14.9
	c-9.3-0.2-37.8-1.7-67.1-4.1c-26.2-2.1-31.6-28.9-34.4-38c-5.5-17.8-6.4-29.7-3.9-36.1l0,0c4.3-3.5,7-6.6,13.3-3.6
	c8.8,4.2,11.7,6.7,20.1,6.7c13,0,18.4-7.3,23.8-7.3c5.3,0,10.4,11.4,24.4,11.4c9.6,0,23.5-9.3,27-9.3c3.4,0,11.8,8.4,20,8.4
	c8.1,0,9.8-6.8,16.7-8.4c2.2-0.5,4.6-0.5,6.7,0.5C366.8,327.4,365.9,344.8,362.1,357.4z M390.8,317.6c-10.4,0-12.4-12.5-22.2-12.5
	c-13.4,0-15.9,14.8-24.3,14.8c-10.2,0-9.8-16.5-19.5-16.5c-9.7,0-18,16.5-30.2,16.5c-13.4,0-12-20.5-20.5-20.5
	c-11.2,0-19.5,17.7-22.8,17.7c-12.9,0-16.1-14.2-26.9-14.2c-12.5,0-12.6,11.9-21.1,14.2c-7.7,2.1-16.5,4-40.7,0.5
	c-16-2.4-29.7-15.1-29.7-39.1c0-42.8,47.1-105.4,147.5-105.4c94.5,0,141.2,59.4,141.2,107.2C421.5,316.5,396,317.6,390.8,317.6z"/>
</svg>
