<?xml version="1.0" encoding="utf-8"?>
<!-- Generator: Adobe Illustrator 22.0.1, SVG Export Plug-In . SVG Version: 6.00 Build 0)  -->
<svg version="1.1" id="Layer_1" xmlns="http://www.w3.org/2000/svg" xmlns:xlink="http://www.w3.org/1999/xlink" x="0px" y="0px"
	 viewBox="0 0 792 612" style="enable-background:new 0 0 792 612;" xml:space="preserve">
<style type="text/css">
	.st0{fill:#4B2418;}
</style>
<g>
	<path class="st0" d="M673.1,241.8c0-0.9-0.1-1.8-0.2-2.8c-0.1-1.8-0.6-3.6-1-5.4c-0.5-1.8-1-3.5-1.8-5.2c-0.7-1.7-1.5-3.3-2.4-4.9
		c-0.5-0.8-1-1.5-1.5-2.3l-0.8-1.1l-0.9-1.1c-2.2-2.9-4.9-5.4-7.8-7.5l-2.2-1.5c-0.8-0.5-1.6-0.9-2.4-1.3l-1.2-0.6
		c-0.4-0.2-0.9-0.4-1.3-0.6l-2.6-1.1L646,206l-1.1-0.4l-2.1-0.7l-4.2-1.5l-8.4-3l-16.8-6.1c-11.2-4.1-22.4-8.3-33.5-12.5
		c-11.2-4.2-22.3-8.5-33.3-12.9l-33.2-13.3l-0.6-0.2l0-16.6c0.1-8.9-2.9-17.9-8.5-24.9c-5.5-7.1-13.4-12.2-22.2-14.3
		c-2.2-0.5-4.4-0.9-6.6-1c-1.1-0.1-2.4-0.1-3.5-0.1l-2.8,0.1L458,99c-14.8,0.4-29.6,0.7-44.4,0.8c-14.8,0.2-29.6,0.2-44.3,0.2
		c-14.8-0.1-29.5-0.3-44.3-0.7c-14.8-0.3-29.6-0.8-44.4-1.3l-44.4-1.6l-22.2-0.8l-11.1-0.4l-5.5-0.2l-1.4-0.1l-0.8,0
		c-0.3,0-0.5,0-0.8,0l-2,0l-1.9,0.1c-10,0.9-19.7,5.7-26.4,13.3c-3.4,3.8-6.1,8.1-7.9,12.9c-0.9,2.4-1.5,4.8-2,7.3
		c-0.2,1.2-0.4,2.5-0.5,3.8c-0.1,0.6-0.1,1.3-0.1,1.9c0,0.6,0,1.3,0,1.7c0,14.8,0.2,29.6,0.4,44.5c0.4,29.6,1.1,59.3,1.6,88.9
		c0.6,29.6,0.9,59.3,0.8,88.9c-0.1,29.6-1,59.3-1.4,88.9l-0.2,22.2l0,5.6l0,2.8c0,1,0,1.6,0,3.2c0.2,5.5,2,11,5.1,15.6
		c3.1,4.6,7.4,8.3,12.5,10.6c2.5,1.2,5.2,2,7.9,2.4c0.7,0.1,1.4,0.2,2.1,0.2l1,0.1l1.1,0c1.4,0,2.1,0,3.1,0l22.2-0.5l44.4-0.9
		c14.8-0.3,29.6-0.5,44.4-0.6l44.4-0.3l35.7-0.1c19.9,7.2,39.7,14.7,59.5,22.3c21.2,8.2,42.3,16.5,63.4,25l7.9,3.2l4,1.6
		c0.8,0.3,1.7,0.6,2.5,0.9l1.3,0.4l1.3,0.3c0.9,0.2,1.7,0.4,2.6,0.5l2.6,0.3c1.8,0,3.5,0.1,5.3-0.1l1.3-0.1c0.4-0.1,0.9-0.1,1.3-0.2
		c0.9-0.2,1.7-0.3,2.6-0.5l2.5-0.7l2.5-0.9c3.2-1.4,6.2-3.2,8.9-5.5c2.7-2.3,4.9-5,6.8-8c0.4-0.8,0.9-1.5,1.3-2.3l1.1-2.4l0.3-0.6
		l0.2-0.5l0.4-1l0.8-2l3.1-8c4.1-10.6,8.2-21.2,12.4-31.8l12.7-31.7l51.3-126.5c8.5-21.1,17-42.2,25.3-63.4
		c2.1-5.3,4.1-10.6,6.1-15.9l0.7-2l0.4-1l0.4-1.3c0.3-0.9,0.6-1.8,0.8-2.7l0.6-2.7c0.2-0.9,0.3-1.8,0.4-2.8c0.1-0.9,0.2-1.8,0.2-2.8
		L673.1,241.8z M411.6,482.2c-8-0.2-16.1-0.4-24.1-0.6c-14.9-0.3-29.7-0.5-44.6-0.6c-14.9-0.1-29.7-0.1-44.6,0
		c-14.9,0.1-29.7,0.2-44.5,0.4l-22.3,0.3l-21.3,0.5l-18.3,0.6c-0.9,0-2,0.1-2.4,0.1l-0.3,0l-0.4,0c-0.2,0-1.5-0.1-1.7-0.1
		c-0.9-0.1-1.8-0.4-2.7-0.8c-1.7-0.8-2.2-2-3.3-3.6c-1.1-1.6-1.7-3.4-1.8-5.3l-0.1-10.7l-0.2-22.2c-0.4-29.6-1.3-52.3-1.4-81.9
		c0-29.6-0.8-59.3-0.2-88.9c0.5-29.6,1.2-55.3,1.6-84.9c0.2-14.8,0.4-29.6,0.4-44.5c0-0.5,0-0.7,0-1.1c0-0.3,0-0.6,0-0.9
		c0-0.6,0.1-1.2,0.2-1.7c0.2-1.2,0.5-2.3,0.9-3.4c0.8-2.2,2-4.3,3.6-6c3.1-3.6,7.5-5.9,12.3-6.5l0.9-0.1l0.8,0c0.1,0,0.3,0,0.5,0
		l0.6,0l1.4,0l5.6,0.1l11.1,0.1l22.3,0.2l41.5,0.2c29.7,0,59.4,0.1,89.2-0.5c29.8-0.6,58.4,2.2,88.1,0.9l11.1-0.5l2.8-0.1
		c0.4,0,0.7,0,1,0c0.3,0,0.6,0,1,0c1.5,0.1,2.9,0.3,4.3,0.6c5.7,1.3,10.9,4.6,14.6,9.2c3.7,4.6,5.7,10.4,5.7,16.4l0,22.2l-0.1,11.1
		l-0.1,11.1l-0.3,22.2l-0.6,36.5c-0.4,29.6-0.8,59.3-1.3,88.9l-0.7,44.5c-0.2,14.8-0.3,29.6-0.4,44.5c0,7.4-0.1,7.8-0.1,15.2
		c0,3.7,0,7.4,0.1,11.1l0.1,5.6l0.1,2.8l0,0.7l0,0.5c0,0.3,0,0.6,0,0.9c-0.1,4.9-2.1,9.8-5.7,13.5c-1.7,1.8-3.8,3.2-6.1,4.3
		c-0.7,0.2-1.5,0.3-2.2,0.3l-0.9,0.1c-0.3,0-0.5,0.1-1,0l-2.9-0.1l-5.9-0.1c-15.6-0.4-31.3-0.4-46.9-0.5
		C420,482.2,415.8,482.2,411.6,482.2z M654.2,246.5l-0.4,1.4c-0.2,0.5-0.4,0.9-0.5,1.4l-0.2,0.7l-0.4,1l-0.8,2
		c-2.1,5.3-4.2,10.6-6.2,15.9c-8.2,21.2-16.1,42.5-24.1,63.9l-47.4,128l-11.9,32c-4,10.6-8.1,21.3-12.2,31.9l-3.1,7.9l-0.8,2l-0.4,1
		l-0.2,0.5l-0.2,0.4l-0.7,1.5l-0.8,1.4c-1.2,1.8-2.6,3.5-4.2,4.9c-1.7,1.4-3.6,2.5-5.6,3.4c-2,0.9-4.2,1.3-6.3,1.5
		c-1.1,0.1-2.2,0-3.2,0l-1.6-0.2c-0.5,0-1.1-0.2-1.6-0.3l-0.8-0.2l-0.7-0.3c-0.5-0.2-0.9-0.3-1.5-0.5l-3.9-1.7l-7.8-3.4
		c-27.2-11.8-54.4-23.3-81.8-34.6c15.3,0.5,30.5,1.1,45.8,1.6l5.8,0.2l2.9,0.1c0.5,0,1.3,0,1.9,0l2-0.1c5.3-0.4,10.4-1.8,15.1-4.1
		c4.7-2.4,8.8-5.7,12.2-9.7c3.4-4,5.9-8.7,7.5-13.6c0.4-1.3,0.7-2.5,1-3.8c0.3-1.3,0.4-2.6,0.6-3.9c0.1-1.3,0.2-2.6,0.2-3.9l0-0.5
		l0-0.4l0-0.7l0-1.5l-0.1-11.7l-0.2-10.3c0.3,0.1,0.5,0.1,0.8,0.2c2.8,0.5,5.7,0.8,8.6,0.5c2.9-0.1,5.8-0.7,8.6-1.6
		c2.8-0.9,5.5-2.2,8-3.8c2.5-1.7,4.8-3.7,6.8-6c0.5-0.6,0.9-1.2,1.4-1.8l0.7-0.9l0.6-1c0.4-0.7,0.8-1.3,1.1-2l0.9-2.1
		c0.3-0.8,0.5-1.2,0.7-1.7l0.6-1.5l1.1-3l8.9-24.4l9.1-24.3l4.6-12.1l2.3-6.1l2.4-6c3.2-7.9,6.6-15.8,10.1-23.6
		c3.6-7.8,7.3-15.6,11-23.3c3.8-7.7,7.6-15.4,11.5-23l0.1-0.3l0.2-0.4c0.8-2.1,1.3-4.3,1.4-6.5c0.1-2.2-0.2-4.4-0.8-6.5
		c-1.2-4.1-3.6-7.7-6.7-10.4c-1.5-1.4-3.2-2.4-5.1-3.3c-0.5-0.2-1-0.5-1.5-0.7c-0.5-0.2-0.9-0.3-1.2-0.4l-1.7-0.6l-7-2.5
		c-9.3-3.3-18.6-6.7-27.9-10.2L541,225.8l-21.9-8.4l-0.1-39.9l21,8.2c11.2,4.3,22.5,8.3,33.8,12.4c11.3,4,22.6,8,34,11.9l17,5.8
		l16.9,5.7c0.4,0.2,0.9,0.5,1.3,0.7c0.2,0.1,0.4,0.2,0.7,0.3l0.7,0.4c0.4,0.3,0.9,0.5,1.3,0.8l1.2,1c1.6,1.4,3,2.8,4.1,4.6l0.4,0.6
		l0.4,0.7c0.2,0.5,0.5,0.9,0.7,1.3c0.4,0.9,0.8,1.9,1.1,2.8c0.4,0.9,0.5,2,0.8,2.9c0.1,1,0.3,2,0.3,3
		C654.9,242.6,654.6,244.6,654.2,246.5z M513.6,235.2c6.9,2.7,13.9,5.4,20.8,8c9.3,3.5,18.7,7,28.1,10.4c9.4,3.4,18.8,6.8,28.3,10
		l7.1,2.4l1.8,0.6c0.7,0.2,0.6,0.2,0.8,0.3c0.4,0.2,0.8,0.4,1.2,0.7c0.7,0.6,1.2,1.3,1.4,1.9c0.1,0.3,0.2,0.6,0.2,0.9
		c0,0.2,0,0.5-0.1,0.7c-7.2,15.6-14,31.3-20.8,47.2c-3.4,8-6.7,16.1-10,24.2l-9.5,24.2l-9.6,24.1l-9.8,24l-1.2,3l-0.6,1.5
		c-0.2,0.5-0.4,1.1-0.6,1.3c-0.5,1.2-1.3,2.2-2.1,3.2c-0.9,0.9-1.9,1.7-3,2.4c-1.2,0.6-2.4,1.2-3.8,1.6c-1.3,0.3-2.7,0.6-4.2,0.6
		c-1.4,0.1-2.8-0.2-4.2-0.5c-0.7-0.2-1.4-0.3-2.1-0.6l-1.1-0.4l-1.5-0.6l-3.1-1.3c-0.1-13.9-0.2-27.8-0.4-41.6l-0.7-44.5
		c-0.5-29.6-0.9-59.3-1.3-88.9L513.6,235.2z"/>
	<path class="st0" d="M472,180.1l0-0.4c0-3.1-0.7-6.2-2-8.9c-1.3-2.7-3.1-5.1-5.3-7.1c-4.3-3.9-9.8-5.9-15.3-6.1l-21.4,0.7
		c-13.9,0.4-27.8,0.6-41.7,0.8l-41.7,0.4c-13.9,0.1-27.8,0.2-41.7,0c-7-0.1-13.9-0.2-20.9-0.3c-7-0.1-13.9-0.5-20.8-0.8l-20.8-1
		l-5.2-0.2l-2.6-0.1c-0.4,0-1.4,0-2,0c-0.7,0-1.3,0.1-2,0.2c-5.3,0.6-10.6,2.9-14.7,6.7c-2.1,1.9-3.9,4.2-5.2,6.8
		c-1.4,2.6-2.2,5.6-2.4,8.5c-0.1,0.7-0.1,1.5-0.1,2.2l0,1.3l0.1,2.6l0.1,5.2c0.2,7,0.3,13.9,0.3,20.9c0,13.9-0.4,27.9-0.6,41.8
		c-0.1,7-0.2,13.9-0.2,20.9c0,3.5,0,7,0.1,10.5c0.1,3.5,0.2,7,0.3,10.4c0.6,13.9,0.8,27.9,1.2,41.8l0.5,20.9l0.1,5.3
		c0,2.6,0.5,5.2,1.4,7.6c1.8,4.9,5.1,9,9.2,11.8c4,2.8,8.8,4.4,13.5,4.8c0.6,0,1.2,0.1,1.8,0.1l1.4,0l2.6,0l5.2,0l20.9,0.1l41.8,0.1
		l41.8-0.1l83.6-0.3c5.6,0,11.3-1.2,16.4-3.7c5.1-2.5,9.7-6.3,13-11.2c3.3-4.8,5.4-10.8,5.5-16.8l0.1-13.7l0.5-54.1
		c0.1-9,0.1-18.1,0.4-26.9c0.2-8.9,0.6-17.8,1.2-26.8c0.5-8.9,1.1-17.9,1.7-26.8c0.6-8.9,1.2-17.9,1.9-26.8L472,180.1z M446.8,210.1
		c-0.6,9.1-1,18.1-1.3,27.2c-0.3,9.1-0.5,14.2-0.6,23.3c0,9.2,0.2,18.2,0.3,27.2l0.7,48.1l0.2,13.4c0,3-1,6-2.8,8.5
		c-3.6,5.2-10.3,8.4-17.1,8.4l-78.6-0.3l-41.8-0.1l-41.8,0.1l-15.9,0.1l-5.2,0l-2.6,0l-0.7,0l-0.5,0c-0.3,0-0.5,0-0.8,0
		c-2.2-0.2-4.3-0.9-6-2c-1.7-1.2-2.9-2.7-3.6-4.4c-0.3-0.8-0.5-1.7-0.5-2.6l0.1-5.1l0.5-20.9c0.3-13.9,0.6-21.9,1.2-35.8
		c0.1-3.5,0.2-7,0.3-10.4c0.1-3.5,0.1-7,0.1-10.5c0-7-0.1-13.9-0.2-20.9c-0.2-13.9-0.6-23.9-0.6-37.8c0-7,0.1-13.9,0.3-20.9l0.1-5.2
		l0.1-2.6l0-1.3c0-0.2,0-0.3,0.1-0.4c0.2-1,0.7-1.9,1.7-2.8c1-0.9,2.4-1.6,4-1.8c0.2,0,0.4,0,0.6-0.1l0.2,0c0,0,0,0,0.1,0l0.3,0
		l2.6,0.1l5.2,0c7,0,9,0,16-0.1c7-0.1,14-0.1,20.9,0l20.9,0.2l41.9,0.5c14,0.1,27.9,0.1,41.9,0c14-0.1,22.9-0.4,36.9-0.7l10.5-0.3
		l9.8-0.3c1.4,0.1,2.9,0.6,3.7,1.5c0.4,0.4,0.8,0.8,0.9,1.3c0.2,0.4,0.2,0.7,0.3,1.1C448,192.5,447.4,201.3,446.8,210.1z"/>
</g>
</svg>
