<?xml version="1.0" encoding="utf-8"?>
<!-- Generator: Adobe Illustrator 22.1.0, SVG Export Plug-In . SVG Version: 6.00 Build 0)  -->
<svg version="1.1" id="Layer_1" xmlns="http://www.w3.org/2000/svg" xmlns:xlink="http://www.w3.org/1999/xlink" x="0px" y="0px"
	 viewBox="0 0 554.7 554.7" style="enable-background:new 0 0 554.7 554.7;" xml:space="preserve">
<style type="text/css">
	.st0{display:none;}
	.st1{display:inline;}
	.st2{fill:#010002;}
	.st3{fill:#FFFFFF;}
</style>
<g id="Layer_1_1_" class="st0">
	<g class="st1">
		<g>
			<path class="st2" d="M468.7,197.8c3.5,4.3,4.7,9.5,3.9,15.5l-16.4,94c-0.6,4.9-2.8,8.9-6.7,12.1c-3.9,3.2-8.3,4.7-13.2,4.7H197.4
				l-4.7,26.7h227.7c5.5,0,10.2,1.9,14.2,5.8s6,8.7,6,14.4s-2,10.6-6,14.4c-4,3.9-8.8,5.8-14.2,5.8H168.5c-6,0-11.2-2.4-15.5-7.3
				c-4-4.9-5.6-10.5-4.7-16.8l10.8-58.7l-16.4-164.8l-46.6-14.7c-5.5-1.7-9.4-5-11.9-9.9c-2.4-4.9-2.9-10.1-1.5-15.5
				c1.7-5.5,5.1-9.4,10.1-11.9c5-2.4,10.1-2.9,15.3-1.5l59.5,19c3.7,1.2,6.8,3.3,9.3,6.5c2.4,3.2,4,6.8,4.5,10.8l3.5,32.8l270,30.2
				C460.9,190.4,465.5,193.2,468.7,197.8z M199.1,402.6c8.6,0,16,3,22,9.1c6,6,9.1,13.4,9.1,22s-3,16-9.1,22.2
				c-6,6.2-13.4,9.3-22,9.3s-16-3.1-22-9.3c-6-6.2-9.1-13.6-9.1-22.2s3-16,9.1-22C183.2,405.7,190.5,402.6,199.1,402.6z
				 M383.3,402.6c8.6,0,16,3,22,9.1c6,6,9.1,13.4,9.1,22s-3,16-9.1,22.2c-6,6.2-13.4,9.3-22,9.3s-16-3.1-22-9.3
				c-6-6.2-9.1-13.6-9.1-22.2s3-16,9.1-22S374.7,402.6,383.3,402.6z"/>
		</g>
	</g>
</g>
<g>
	<path class="st3" d="M466.9,232.2c0-0.6-0.1-1.2-0.1-1.9c-0.1-1.2-0.4-2.5-0.7-3.7c-0.3-1.2-0.7-2.4-1.2-3.6
		c-0.5-1.2-1-2.3-1.7-3.4c-0.3-0.6-0.7-1-1-1.6l-0.6-0.8l-0.6-0.8c-1.5-2-3.4-3.7-5.4-5.2l-1.5-1c-0.6-0.3-1.1-0.6-1.7-0.9l-0.8-0.4
		c-0.3-0.1-0.6-0.3-0.9-0.4l-1.8-0.8l-0.7-0.3l-0.8-0.3l-1.4-0.5l-2.9-1l-5.8-2.1l-11.6-4.2c-7.7-2.8-15.4-5.7-23.1-8.6
		c-7.7-2.9-15.4-5.9-23-8.9l-22.9-9.2l-0.4-0.1v-11.4c0.1-6.1-2-12.3-5.9-17.2c-3.8-4.9-9.2-8.4-15.3-9.9c-1.5-0.3-3-0.6-4.6-0.7
		c-0.8-0.1-1.7-0.1-2.4-0.1l-1.9,0.1l-7.7,0.3c-10.2,0.3-20.4,0.5-30.6,0.6s-20.4,0.1-30.6,0.1c-10.2-0.1-20.3-0.2-30.6-0.5
		c-10.2-0.2-20.4-0.6-30.6-0.9l-30.6-1.1l-15.3-0.6l-7.7-0.3l-3.8-0.1l-1-0.1h-0.6c-0.2,0-0.3,0-0.6,0h-1.4l-1.3,0.1
		c-6.9,0.6-13.6,3.9-18.2,9.2c-2.3,2.6-4.2,5.6-5.4,8.9c-0.6,1.7-1,3.3-1.4,5c-0.1,0.8-0.3,1.7-0.3,2.6c-0.1,0.4-0.1,0.9-0.1,1.3
		c0,0.4,0,0.9,0,1.2c0,10.2,0.1,20.4,0.3,30.7c0.3,20.4,0.8,40.9,1.1,61.3c0.4,20.4,0.6,40.9,0.6,61.3c-0.1,20.4-0.7,40.9-1,61.3
		l-0.1,15.3v3.9v1.9c0,0.7,0,1.1,0,2.2c0.1,3.8,1.4,7.6,3.5,10.8c2.1,3.2,5.1,5.7,8.6,7.3c1.7,0.8,3.6,1.4,5.4,1.7
		c0.5,0.1,1,0.1,1.4,0.1l0.7,0.1h0.8c1,0,1.4,0,2.1,0l15.3-0.3l30.6-0.6c10.2-0.2,20.4-0.3,30.6-0.4l30.6-0.2l24.6-0.1
		c13.7,5,27.4,10.1,41,15.4c14.6,5.7,29.2,11.4,43.7,17.2l5.4,2.2l2.8,1.1c0.6,0.2,1.2,0.4,1.7,0.6l0.9,0.3l0.9,0.2
		c0.6,0.1,1.2,0.3,1.8,0.3l1.8,0.2c1.2,0,2.4,0.1,3.7-0.1l0.9-0.1c0.3-0.1,0.6-0.1,0.9-0.1c0.6-0.1,1.2-0.2,1.8-0.3l1.7-0.5l1.7-0.6
		c2.2-1,4.3-2.2,6.1-3.8c1.9-1.6,3.4-3.4,4.7-5.5c0.3-0.6,0.6-1,0.9-1.6l0.8-1.7l0.2-0.4l0.1-0.3l0.3-0.7l0.6-1.4l2.1-5.5
		c2.8-7.3,5.7-14.6,8.6-21.9l8.8-21.9l35.4-87.2c5.9-14.6,11.7-29.1,17.4-43.7c1.4-3.7,2.8-7.3,4.2-11l0.5-1.4l0.3-0.7l0.3-0.9
		c0.2-0.6,0.4-1.2,0.6-1.9l0.4-1.9c0.1-0.6,0.2-1.2,0.3-1.9c0.1-0.6,0.1-1.2,0.1-1.9L466.9,232.2z M286.5,398
		c-5.5-0.1-11.1-0.3-16.6-0.4c-10.3-0.2-20.5-0.3-30.8-0.4s-20.5-0.1-30.8,0s-20.5,0.1-30.7,0.3l-15.4,0.2l-14.7,0.3l-12.6,0.4
		c-0.6,0-1.4,0.1-1.7,0.1H133h-0.3c-0.1,0-1-0.1-1.2-0.1c-0.6-0.1-1.2-0.3-1.9-0.6c-1.2-0.6-1.5-1.4-2.3-2.5s-1.2-2.3-1.2-3.7
		l-0.1-7.4l-0.1-15.3c-0.3-20.4-0.9-36.1-1-56.5c0-20.4-0.6-40.9-0.1-61.3c0.3-20.4,0.8-38.1,1.1-58.6c0.1-10.2,0.3-20.4,0.3-30.7
		c0-0.3,0-0.5,0-0.8c0-0.2,0-0.4,0-0.6c0-0.4,0.1-0.8,0.1-1.2c0.1-0.8,0.3-1.6,0.6-2.3c0.6-1.5,1.4-3,2.5-4.1
		c2.1-2.5,5.2-4.1,8.5-4.5l0.6-0.1h0.6c0.1,0,0.2,0,0.3,0h0.4h1l3.9,0.1l7.7,0.1l15.4,0.1l28.6,0.1c20.5,0,41,0.1,61.5-0.3
		c20.6-0.4,40.3,1.5,60.8,0.6l7.7-0.3l1.9-0.1c0.3,0,0.5,0,0.7,0s0.4,0,0.7,0c1,0.1,2,0.2,3,0.4c3.9,0.9,7.5,3.2,10.1,6.3
		c2.6,3.2,3.9,7.2,3.9,11.3v15.3l-0.1,7.7l-0.1,7.7l-0.2,15.3l-0.4,25.2c-0.3,20.4-0.6,40.9-0.9,61.3l-0.5,30.7
		c-0.1,10.2-0.2,20.4-0.3,30.7c0,5.1-0.1,5.4-0.1,10.5c0,2.6,0,5.1,0.1,7.7l0.1,3.9l0.1,1.9v0.5v0.3c0,0.2,0,0.4,0,0.6
		c-0.1,3.4-1.4,6.8-3.9,9.3c-1.2,1.2-2.6,2.2-4.2,3c-0.5,0.1-1,0.2-1.5,0.2l-0.6,0.1c-0.2,0-0.3,0.1-0.7,0l-2-0.1l-4.1-0.1
		c-10.8-0.3-21.6-0.3-32.3-0.3C292.3,398,289.4,398,286.5,398z M453.9,235.5l-0.3,1c-0.1,0.3-0.3,0.6-0.3,1l-0.1,0.5l-0.3,0.7
		l-0.6,1.4c-1.4,3.7-2.9,7.3-4.3,11c-5.7,14.6-11.1,29.3-16.6,44.1l-32.7,88.3l-8.2,22.1c-2.8,7.3-5.6,14.7-8.4,22L380,433l-0.6,1.4
		l-0.3,0.7l-0.1,0.3l-0.1,0.3l-0.5,1l-0.6,1c-0.8,1.2-1.8,2.4-2.9,3.4c-1.2,1-2.5,1.7-3.9,2.3c-1.4,0.6-2.9,0.9-4.3,1
		c-0.8,0.1-1.5,0-2.2,0l-1.1-0.1c-0.3,0-0.8-0.1-1.1-0.2l-0.6-0.1l-0.5-0.2c-0.3-0.1-0.6-0.2-1-0.3l-2.7-1.2l-5.4-2.3
		c-18.8-8.1-37.5-16.1-56.4-23.9c10.6,0.3,21,0.8,31.6,1.1l4,0.1l2,0.1c0.3,0,0.9,0,1.3,0l1.4-0.1c3.7-0.3,7.2-1.2,10.4-2.8
		c3.2-1.7,6.1-3.9,8.4-6.7c2.3-2.8,4.1-6,5.2-9.4c0.3-0.9,0.5-1.7,0.7-2.6s0.3-1.8,0.4-2.7c0.1-0.9,0.1-1.8,0.1-2.7v-0.3v-0.3v-0.5
		v-1l-0.1-8.1l-0.1-7.1c0.2,0.1,0.3,0.1,0.6,0.1c1.9,0.3,3.9,0.6,5.9,0.3c2-0.1,4-0.5,5.9-1.1s3.8-1.5,5.5-2.6
		c1.7-1.2,3.3-2.6,4.7-4.1c0.3-0.4,0.6-0.8,1-1.2l0.5-0.6l0.4-0.7c0.3-0.5,0.6-0.9,0.8-1.4l0.6-1.4c0.2-0.6,0.3-0.8,0.5-1.2l0.4-1
		l0.8-2.1l6.1-16.8l6.3-16.8l3.2-8.3l1.6-4.2l1.7-4.1c2.2-5.4,4.6-10.9,7-16.3c2.5-5.4,5-10.8,7.6-16.1c2.6-5.3,5.2-10.6,7.9-15.9
		l0.1-0.2l0.1-0.3c0.6-1.4,0.9-3,1-4.5s-0.1-3-0.6-4.5c-0.8-2.8-2.5-5.3-4.6-7.2c-1-1-2.2-1.7-3.5-2.3c-0.3-0.1-0.7-0.3-1-0.5
		c-0.3-0.1-0.6-0.2-0.8-0.3l-1.2-0.4l-4.8-1.7c-6.4-2.3-12.8-4.6-19.2-7l-19.5-7.3l-15.1-5.8l-0.1-27.5l14.5,5.7
		c7.7,3,15.5,5.7,23.3,8.6c7.8,2.8,15.6,5.5,23.5,8.2l11.7,4l11.7,3.9c0.3,0.1,0.6,0.3,0.9,0.5c0.1,0.1,0.3,0.1,0.5,0.2l0.5,0.3
		c0.3,0.2,0.6,0.3,0.9,0.6l0.8,0.7c1.1,1,2.1,1.9,2.8,3.2l0.3,0.4l0.3,0.5c0.1,0.3,0.3,0.6,0.5,0.9c0.3,0.6,0.6,1.3,0.8,1.9
		c0.3,0.6,0.3,1.4,0.6,2c0.1,0.7,0.2,1.4,0.2,2.1C454.4,232.8,454.2,234.2,453.9,235.5z M356.9,227.7c4.8,1.9,9.6,3.7,14.3,5.5
		c6.4,2.4,12.9,4.8,19.4,7.2c6.5,2.3,13,4.7,19.5,6.9l4.9,1.7l1.2,0.4c0.5,0.1,0.4,0.1,0.6,0.2c0.3,0.1,0.6,0.3,0.8,0.5
		c0.5,0.4,0.8,0.9,1,1.3c0.1,0.2,0.1,0.4,0.1,0.6c0,0.1,0,0.3-0.1,0.5c-5,10.8-9.7,21.6-14.3,32.6c-2.3,5.5-4.6,11.1-6.9,16.7
		l-6.6,16.7l-6.6,16.6l-6.8,16.6l-0.8,2.1l-0.4,1c-0.1,0.3-0.3,0.8-0.4,0.9c-0.3,0.8-0.9,1.5-1.4,2.2c-0.6,0.6-1.3,1.2-2.1,1.7
		c-0.8,0.4-1.7,0.8-2.6,1.1c-0.9,0.2-1.9,0.4-2.9,0.4c-1,0.1-1.9-0.1-2.9-0.3c-0.5-0.1-1-0.2-1.4-0.4l-0.8-0.3l-1-0.4l-2.1-0.9
		c-0.1-9.6-0.1-19.2-0.3-28.7l-0.5-30.7c-0.3-20.4-0.6-40.9-0.9-61.3L356.9,227.7z"/>
	<path class="st3" d="M328.2,189.7v-0.3c0-2.1-0.5-4.3-1.4-6.1s-2.1-3.5-3.7-4.9c-3-2.7-6.8-4.1-10.6-4.2l-14.8,0.5
		c-9.6,0.3-19.2,0.4-28.8,0.6l-28.8,0.3c-9.6,0.1-19.2,0.1-28.8,0c-4.8-0.1-9.6-0.1-14.4-0.2c-4.8-0.1-9.6-0.3-14.3-0.6l-14.3-0.7
		l-3.6-0.1l-1.8-0.1c-0.3,0-1,0-1.4,0c-0.5,0-0.9,0.1-1.4,0.1c-3.7,0.4-7.3,2-10.1,4.6c-1.4,1.3-2.7,2.9-3.6,4.7
		c-1,1.8-1.5,3.9-1.7,5.9c-0.1,0.5-0.1,1-0.1,1.5v0.9l0.1,1.8l0.1,3.6c0.1,4.8,0.2,9.6,0.2,14.4c0,9.6-0.3,19.2-0.4,28.8
		c-0.1,4.8-0.1,9.6-0.1,14.4c0,2.4,0,4.8,0.1,7.2s0.1,4.8,0.2,7.2c0.4,9.6,0.6,19.2,0.8,28.8l0.3,14.4l0.1,3.7c0,1.8,0.3,3.6,1,5.2
		c1.2,3.4,3.5,6.2,6.3,8.1s6.1,3,9.3,3.3c0.4,0,0.8,0.1,1.2,0.1h1h1.8h3.6l14.4,0.1l28.8,0.1l28.8-0.1l57.7-0.2
		c3.9,0,7.8-0.8,11.3-2.6s6.7-4.3,9-7.7c2.3-3.3,3.7-7.4,3.8-11.6l0.1-9.4l0.3-37.3c0.1-6.2,0.1-12.5,0.3-18.6
		c0.1-6.1,0.4-12.3,0.8-18.5c0.3-6.1,0.8-12.3,1.2-18.5c0.4-6.1,0.8-12.3,1.3-18.5v-0.1H328.2z M310.8,210.4
		c-0.4,6.3-0.7,12.5-0.9,18.8s-0.3,9.8-0.4,16.1c0,6.3,0.1,12.6,0.2,18.8l0.5,33.2l0.1,9.2c0,2.1-0.7,4.1-1.9,5.9
		c-2.5,3.6-7.1,5.8-11.8,5.8l-54.2-0.2l-28.8-0.1l-28.8,0.1l-11,0.1h-3.6h-1.8h-0.5h-0.3c-0.2,0-0.3,0-0.6,0c-1.5-0.1-3-0.6-4.1-1.4
		c-1.2-0.8-2-1.9-2.5-3c-0.2-0.6-0.3-1.2-0.3-1.8l0.1-3.5l0.3-14.4c0.2-9.6,0.4-15.1,0.8-24.7c0.1-2.4,0.1-4.8,0.2-7.2
		c0.1-2.4,0.1-4.8,0.1-7.2c0-4.8-0.1-9.6-0.1-14.4c-0.1-9.6-0.4-16.5-0.4-26.1c0-4.8,0.1-9.6,0.2-14.4l0.1-3.6l0.1-1.8v-0.9
		c0-0.1,0-0.2,0.1-0.3c0.1-0.7,0.5-1.3,1.2-1.9c0.7-0.6,1.7-1.1,2.8-1.2c0.1,0,0.3,0,0.4-0.1h0.1c0,0,0,0,0.1,0h0.2l1.8,0.1h3.6
		c4.8,0,6.2,0,11-0.1s9.7-0.1,14.4,0l14.4,0.1l28.9,0.3c9.7,0.1,19.2,0.1,28.9,0c9.7-0.1,15.8-0.3,25.5-0.5l7.2-0.2l6.8-0.2
		c1,0.1,2,0.4,2.6,1c0.3,0.3,0.6,0.6,0.6,0.9c0.1,0.3,0.1,0.5,0.2,0.8C311.7,198.2,311.2,204.3,310.8,210.4z"/>
</g>
</svg>
