<?xml version="1.0" encoding="utf-8"?>
<!-- Generator: Adobe Illustrator 22.0.1, SVG Export Plug-In . SVG Version: 6.00 Build 0)  -->
<svg version="1.1" id="Layer_1" xmlns="http://www.w3.org/2000/svg" xmlns:xlink="http://www.w3.org/1999/xlink" x="0px" y="0px"
	 viewBox="0 0 792 612" style="enable-background:new 0 0 792 612;" xml:space="preserve">
<style type="text/css">
	.st0{fill:#4B2418;}
</style>
<g>
	<path class="st0" d="M560.8,485.2c-23,0.1-78.1,0-101.1-0.5l-68.9-1.5l-68.6-1.2l-55.9-0.7l-8.6-0.1l-4.3-0.1h-0.3h-0.3H252
		l-1.4-0.1c-1,0-1.8-0.2-2.8-0.3c-3.8-0.6-7.3-1.7-10.6-3.4c-3.3-1.7-6.3-3.9-8.8-6.5c-2.5-2.6-4.6-5.6-6.1-8.8
		c-1.5-3.2-2.4-6.7-2.7-10.2l-0.1-1.3c0-0.4,0-0.9,0-1.2v-2v-4v-8c-0.1-10.7-0.1-21.4-0.3-32c-0.1-10.7-0.3-21.4-0.5-32l-0.6-32
		c-0.4-21.4-1-42.7-1.3-64.1l-0.3-16l-0.1-8v-2v-0.5V248l0.1-1.4l0.1-1.4l0.2-1.4c0.1-1,0.2-1.9,0.5-2.8c1.7-7.6,6.6-14.4,13-19.2
		c3.2-2.4,6.9-4.3,10.8-5.5c3.9-1.3,8.1-2,12.1-2c23-0.4,67.4-1.1,90.4-1.9c23-0.7,45.9-1.5,68.9-1.6c5.7-0.1,11.5,0,17.2-0.1
		c5.7,0,11.5,0,17.2,0.1c11.5,0.1,23,0.4,34.4,0.9c11.5,0.4,55.2,1.1,66.6,1.7l8.6,0.4l4.3,0.2h0.6l0.8,0.1l1.5,0.1
		c1.1,0.1,2,0.3,3.1,0.4c4.1,0.7,8.1,2.1,11.6,4c3.5,1.9,6.8,4.4,9.3,7.2c2.7,2.9,4.8,6.1,6.3,9.6c1.5,3.5,2.4,7.2,2.6,10.9v1.4v0.7
		v0.3v0.3v2l-0.1,4l-0.1,8l-0.6,32c-0.4,21.4-0.6,42.7-0.9,64.1c-0.1,21.4-0.1,42.7,0,64.1l0.1,16l0.1,8v2v0.5v0.7l-0.1,1.3
		l-0.1,1.3l-0.2,1.3c-0.1,0.9-0.2,1.8-0.5,2.6c-0.9,3.5-2.3,6.9-4.1,10.1c-1.8,3.2-4.1,6.3-6.9,9c-2.8,2.8-6.2,5.1-10.1,6.8
		C569.4,484.3,565.1,485.2,560.8,485.2z M560.8,461.6c1.5,0,2.9,0,4.5-0.1c1.5-0.1,3.2-0.3,4.9-0.9s3.3-1.5,4.6-2.8
		c0.3-0.3,0.6-0.7,0.9-1l0.8-1.1c0.2-0.4,0.3-0.8,0.5-1.2c0.2-0.4,0.2-0.8,0.4-1.3c0.1-0.4,0.2-0.9,0.3-1.3l0.1-0.7v-0.7v-0.7v-0.3
		V449v-2l0.1-8l0.1-16c0.1-21.4,0.2-42.7,0-64.1c-0.2-21.4-0.4-42.7-0.9-64.1l-0.6-32l-0.1-8l-0.1-4v-2v-0.3v-0.2V248l-0.1-0.6
		c-0.4-3.2-1.9-6.2-4.4-8.3c-1.2-1.1-2.6-1.9-4.1-2.6c-1.5-0.6-3.1-0.9-4.6-1c-0.4,0-0.8-0.1-1.2,0h-1.3l-4.3,0.2l-8.6,0.4
		c-11.5,0.6-55.2,1.2-66.6,1.7c-11.5,0.5-23,0.8-34.4,0.9c-5.7,0.1-11.5,0.1-17.2,0.1c-5.7,0-11.5,0-17.2-0.1
		c-23-0.1-45.9-0.8-68.9-1.6c-23-0.8-67.4-1.5-90.4-1.9c-1.6,0-3.2,0.2-4.7,0.7s-2.9,1.2-4.2,2.2c-2.5,1.9-4.3,4.5-5,7.4
		c-0.1,0.3-0.2,0.7-0.2,1.1l-0.1,0.6v0.6v0.6v0.3v0.5v2l-0.1,8l-0.3,16c-0.3,21.4-0.9,42.7-1.3,64.1l-0.6,32
		c-0.2,10.7-0.4,21.4-0.5,32c-0.1,10.7-0.2,21.4-0.3,32v8v4v2c0,0.4,0,0.5,0,0.8v0.7c0.1,1.8,0.6,3.6,1.4,5.3
		c0.8,1.7,1.9,3.2,3.2,4.6c1.4,1.3,2.9,2.5,4.6,3.3c1.7,0.9,3.7,1.4,5.6,1.6c0.5,0.1,1,0.2,1.5,0.1h0.8h0.3h0.2h0.2l4.3-0.1l8.6-0.1
		l55.9-0.7l68.9-1.2l68.9-1.5C482.7,461.7,537.9,461.5,560.8,461.6z"/>
</g>
<g>
	<path class="st0" d="M436.5,227.1c-1.3,3.1-7.6,7-11.9,6.1c-3.7-0.5-1.1-0.2-1.9-0.4c0-0.1-0.1-0.2-0.1-0.2l-0.2-0.6
		c-0.1-0.4-0.4-0.7-0.5-1l-0.5-1l-0.5-0.8c-0.7-1.1-1.4-2-2.3-2.9c-1.6-1.7-3.1-2.9-4.8-3.7s-3.5-1.2-5.3-1.7l-5.3-1.4l-10.7-3
		l-10.6-3.1c-14.2-4.3-28.3-8.9-42.3-15c-7-3-13.9-6.4-20.6-10.4c-6.8-4-13.3-8.7-19.3-14.5c-3-2.9-5.8-6.1-8.3-9.8
		s-4.8-7.6-6.5-11.9c-1.7-4.3-2.9-9-3.3-13.7c-0.2-2.4-0.2-4.7-0.2-7.1c0.1-2.4,0.4-4.9,1.1-7.8c0.4-1.4,0.8-2.9,1.6-4.5
		c0.7-1.6,1.6-3.1,2.8-4.8c1.2-1.6,2.8-3.1,4.6-4.5c1.8-1.3,3.9-2.3,5.8-2.9c4-1.3,7.6-1.2,10.5-0.8c3,0.4,5.5,1.1,7.8,1.8
		c4.6,1.7,8.3,3.6,11.9,5.8c3.5,2.2,6.8,4.5,9.9,6.9c12.4,9.5,22.8,20.4,32.9,31.3c5.1,5.5,9.9,11.1,14.7,16.8l14.5,16.8
		c2.4,2.8,4.8,5.5,7.2,8.3l3.6,4.2l3.6,4.1l3.6,4.1l3.7,4.1l3.6,4.1c0.4,0.4,0.6,0.7,1,1c0.5,0.2,1.1,0.2,1.8,0.2
		c0.4-0.1,0.8-0.1,1.3-0.2l0.4-0.1l0.5-0.1l0.8-0.4l0.5-0.1l0.5-0.2l1.1-0.5l0.4-0.1c0-0.2,0.5,0.1,1,0.6c0.8,0.8,1.8,2,2.4,3.6
		c0.6,1.6,1.1,3.4,1.1,5.1C437.2,224.4,436.8,225.9,436.5,227.1z M414.3,214.2c-0.5,1.2-0.8,2.5-0.8,4.2c-0.1,1.6,0.2,3.4,0.8,4.8
		s1.4,2.5,2.3,3.4c0.5,0.4,0.8,0.7,0.8,0.5l0.2-0.2l0.6-1l0.4-0.5l0.2-0.4l0.5-0.8l0.2-0.4l0.1-0.4c0.2-0.5,0.4-0.8,0.5-1.3
		c0.2-0.7,0.2-1.3,0-1.8c-0.1-0.5-0.5-0.7-0.8-1.1l-3.6-4.1l-3.7-4l-3.7-4l-3.9-4l-3.9-3.9c-2.5-2.5-5.2-5.1-8-7.6
		c-5.3-4.9-10.9-9.8-16.4-14.5c-5.5-4.7-11.2-9.3-17-13.6c-5.7-4.5-11.6-8.7-17.4-12.9c-5.8-4.1-11.7-8.1-17.5-11.7
		c-2.9-1.8-5.8-3.5-8.7-4.8c-2.8-1.4-5.7-2.7-8-3.4c-1.2-0.4-2.2-0.6-2.9-0.6c-0.6-0.1-0.8,0.1-0.4,0c0.5-0.1,1.4-0.8,1.6-1.1
		c0.2-0.4,0-0.1-0.2,0.6c-0.4,1.4-0.7,4.5-0.6,6.9c0.1,2.5,0.6,5.1,1.3,7.6c0.8,2.5,1.9,5.2,3.4,7.7c1.4,2.5,3.1,5.1,5.2,7.6
		c4,4.9,8.8,9.6,14,14c5.3,4.3,11.1,8.4,17,12.2c12.1,7.5,25.1,13.7,38.7,18.9c3.4,1.3,6.8,2.5,10.2,3.6s6.9,2.3,10.4,3.3l5.2,1.4
		c1.8,0.5,3.5,1,5.3,1.1c1.8,0,3.7-0.2,5.8-1.1c1-0.5,2-1,3.1-1.7l0.8-0.6l0.8-0.7c0.2-0.2,0.5-0.5,0.8-0.7l0.4-0.4
		c0.1-0.1,0.1-0.1,0.2-0.2c-0.8-0.1,1.9,0.1-1.8-0.4C421.8,207.2,415.6,211.1,414.3,214.2z"/>
</g>
<g>
	<path class="st0" d="M421.3,214.2c-1.3-3.1-7.5-7-11.7-6.3c-3.6,0.5-1,0.2-1.8,0.4c0.1,0.1,0.1,0.1,0.2,0.2l0.4,0.4
		c0.2,0.2,0.5,0.5,0.8,0.7l0.8,0.7l0.8,0.6c1.1,0.7,2,1.2,3.1,1.7c2,0.8,4,1.1,5.8,1.1c1.8,0,3.6-0.6,5.3-1.1l5.2-1.4
		c3.5-1,7-2,10.4-3.3c3.5-1.1,6.9-2.3,10.2-3.6c13.5-5.1,26.6-11.3,38.7-18.9c6-3.7,11.8-7.8,17-12.2c5.3-4.3,10.1-9,14-14
		c1.9-2.4,3.7-5.1,5.2-7.6c1.4-2.5,2.5-5.2,3.4-7.7s1.2-5.1,1.3-7.6c0.1-2.4-0.1-5.4-0.6-6.9c-0.2-0.7-0.5-1-0.2-0.6
		c0.1,0.4,1.1,1.1,1.6,1.1c0.5,0.1,0.4,0-0.4,0c-0.6,0-1.7,0.2-2.9,0.6c-2.4,0.7-5.2,1.9-8,3.4c-2.9,1.4-5.8,3.1-8.7,4.8
		c-5.8,3.5-11.7,7.6-17.5,11.7c-5.8,4.1-11.7,8.4-17.4,12.9c-5.7,4.5-11.5,9-17,13.6c-5.5,4.7-11.1,9.5-16.4,14.5
		c-2.7,2.5-5.3,5.1-8,7.6l-3.9,3.9l-3.9,4l-3.7,4l-3.7,4l-3.6,4.1c-0.2,0.4-0.7,0.6-0.8,1.1c-0.1,0.5-0.1,1.1,0,1.8
		c0.1,0.4,0.2,0.8,0.5,1.3l0.1,0.4l0.2,0.4l0.5,0.8l0.2,0.4l0.4,0.5l0.6,1l0.2,0.2c-0.1,0.2,0.4,0,0.8-0.5c0.8-0.7,1.7-1.9,2.3-3.4
		c0.6-1.4,0.8-3.1,0.8-4.8C422.1,216.8,421.8,215.3,421.3,214.2z M399.1,227.1c-0.4-1.2-0.6-2.8-0.6-4.5c0-1.7,0.4-3.5,1.1-5.1
		c0.6-1.6,1.6-2.8,2.4-3.6c0.5-0.5,1-0.8,1-0.6l0.4,0.1l1.1,0.5l0.5,0.2l0.5,0.1l0.8,0.4l0.5,0.1l0.4,0.1c0.5,0.1,1,0.2,1.3,0.2
		c0.8,0.1,1.4,0,1.8-0.2c0.5-0.2,0.7-0.6,1-1l3.6-4.1l3.7-4.1l3.6-4.1l3.6-4.1l3.6-4.2c2.4-2.8,4.8-5.5,7.2-8.3l14.5-16.8
		c4.8-5.7,9.6-11.2,14.7-16.8c10-11,20.5-21.8,32.9-31.3c3.1-2.4,6.4-4.7,9.9-6.9c3.6-2.2,7.4-4.1,11.9-5.8c2.3-0.8,4.8-1.4,7.8-1.8
		s6.5-0.4,10.5,0.8c1.9,0.6,4,1.6,5.8,2.9c1.8,1.3,3.4,2.9,4.6,4.5c1.2,1.6,2.2,3.3,2.8,4.8c0.7,1.6,1.2,3,1.6,4.5
		c0.7,2.8,1,5.4,1.1,7.8c0.1,2.4,0,4.8-0.2,7.1c-0.4,4.7-1.6,9.4-3.3,13.7c-1.7,4.3-4,8.3-6.5,11.9c-2.5,3.6-5.4,6.9-8.3,9.8
		c-6,5.9-12.5,10.5-19.3,14.5s-13.6,7.4-20.6,10.4c-14,5.9-28.2,10.6-42.3,15l-10.6,3.1l-10.7,3l-5.3,1.4c-1.8,0.5-3.6,0.8-5.3,1.7
		c-1.7,0.8-3.4,2-4.8,3.7c-0.7,0.8-1.6,1.8-2.3,2.9l-0.5,0.8l-0.5,1c-0.1,0.4-0.4,0.6-0.5,1l-0.2,0.6c0,0.1-0.1,0.1-0.1,0.2
		c-0.8,0.1,1.8-0.1-1.9,0.4C406.7,234.1,400.4,230.3,399.1,227.1z"/>
</g>
<g>
	<path class="st0" d="M227.2,349.2c0-0.8,0.1-1.2,0.1-1.8c0-0.6,0.1-0.9,0.2-1.3c0.1-0.3,0.1-0.6,0.2-0.9c0.1-0.2,0.2-0.4,0.2-0.5
		c0.2-0.3,0.4-0.2,0.5-0.2h0.6l2.4-0.2l4.7-0.4l9.5-0.7l18.9-1.3c12.7-0.9,46.7-1.7,59.4-2.4c12.7-0.6,25.2-1.3,37.9-1.8
		c12.7-0.6,25.2-1,37.9-1.3c25.4-0.8,50.6-0.9,75.9-0.8c25.4,0.2,83,0.9,108.2,2.4c4.2,0.2,7.3,3.6,7.1,7.4
		c-0.2,3.6-3.4,6.5-7.3,6.6h-0.1c-25.1,0.6-82.4,1.1-107.6,2.1c-6.2,0.2-12.6,0.5-18.8,0.7c-6.2,0.3-12.6,0.5-18.8,0.8l-18.8,0.9
		l-18.8,1l-37.6,2.2c-12.6,0.7-25,1.6-37.6,2.4l-18.8,1.3l-40.3,1.3l-18.8,1.4l-9.3,0.8l-4.7,0.4l-2.4,0.2l-0.5,0.1
		c-0.2,0-0.4,0.1-0.6-0.1c-0.1-0.1-0.2-0.3-0.3-0.5c-0.1-0.2-0.2-0.5-0.3-0.8c-0.1-0.4-0.2-0.7-0.4-1.3c-0.1-0.5-0.3-1-0.4-1.8v-0.2
		C227.6,358.4,227.2,353.6,227.2,349.2z"/>
</g>
<g>
	<path class="st0" d="M432.4,227.2c-0.9,10.5-1.9,20.9-2.9,31.3c-1.1,10.4-2.2,20.8-3.4,31.2c-2.4,20.8-5,41.5-7.9,62.2
		c-2.8,20.7-6.1,41.3-9.6,62c-3.5,20.6-7.5,41.1-11.8,61.6c-0.8,3.6-4.3,5.8-7.8,5.1c-3.5-0.7-5.7-4.1-5.1-7.5V473
		c3.4-20.4,6.5-40.9,9.1-61.4c2.6-20.6,4.9-41.1,6.9-61.8c2-20.6,3.7-41.3,5.2-62c0.7-10.3,1.4-20.7,2-31
		c0.6-10.3,1.2-20.7,1.6-30.9v-0.1c0.3-6.6,5.8-11.6,12.4-11.4c6.6,0.3,11.6,5.8,11.4,12.4C432.4,226.8,432.4,227,432.4,227.2z"/>
</g>
</svg>
