<?xml version="1.0" encoding="utf-8"?>
<!-- Generator: Adobe Illustrator 22.1.0, SVG Export Plug-In . SVG Version: 6.00 Build 0)  -->
<svg version="1.1" id="Layer_1" xmlns="http://www.w3.org/2000/svg" xmlns:xlink="http://www.w3.org/1999/xlink" x="0px" y="0px"
	 viewBox="0 0 554.7 554.7" style="enable-background:new 0 0 554.7 554.7;" xml:space="preserve">
<style type="text/css">
	.st0{display:none;}
	.st1{display:inline;}
	.st2{fill:#010002;}
	.st3{fill:#4B2418;}
</style>
<g id="Layer_1_1_" class="st0">
	<g class="st1">
		<g>
			<path class="st2" d="M468.7,197.8c3.5,4.3,4.7,9.5,3.9,15.5l-16.4,94c-0.6,4.9-2.8,8.9-6.7,12.1c-3.9,3.2-8.3,4.7-13.2,4.7H197.4
				l-4.7,26.7h227.7c5.5,0,10.2,1.9,14.2,5.8s6,8.7,6,14.4s-2,10.6-6,14.4c-4,3.9-8.8,5.8-14.2,5.8H168.5c-6,0-11.2-2.4-15.5-7.3
				c-4-4.9-5.6-10.5-4.7-16.8l10.8-58.7l-16.4-164.8l-46.6-14.7c-5.5-1.7-9.4-5-11.9-9.9c-2.4-4.9-2.9-10.1-1.5-15.5
				c1.7-5.5,5.1-9.4,10.1-11.9c5-2.4,10.1-2.9,15.3-1.5l59.5,19c3.7,1.2,6.8,3.3,9.3,6.5c2.4,3.2,4,6.8,4.5,10.8l3.5,32.8l270,30.2
				C460.9,190.4,465.5,193.2,468.7,197.8z M199.1,402.6c8.6,0,16,3,22,9.1c6,6,9.1,13.4,9.1,22s-3,16-9.1,22.2
				c-6,6.2-13.4,9.3-22,9.3s-16-3.1-22-9.3c-6-6.2-9.1-13.6-9.1-22.2s3-16,9.1-22C183.2,405.7,190.5,402.6,199.1,402.6z
				 M383.3,402.6c8.6,0,16,3,22,9.1c6,6,9.1,13.4,9.1,22s-3,16-9.1,22.2c-6,6.2-13.4,9.3-22,9.3s-16-3.1-22-9.3
				c-6-6.2-9.1-13.6-9.1-22.2s3-16,9.1-22S374.7,402.6,383.3,402.6z"/>
		</g>
	</g>
</g>
<path class="st3" d="M437.8,232.7c-1.2-2.9-3-5.5-5.2-7.9c-2-2.3-4.8-4.3-7.6-5.9c-2.9-1.6-6.1-2.7-9.5-3.3
	c-0.9-0.1-1.6-0.2-2.5-0.3l-1.2-0.1l-0.7-0.1h-0.5L407,215l-7.1-0.3c-9.3-0.5-45.2-1.1-54.6-1.4c-4-0.2-7.9-0.3-11.9-0.4
	c8.2-2.7,16.3-5.6,24.4-9c5.7-2.5,11.3-5.2,16.9-8.5c5.6-3.3,10.9-7.1,15.8-11.9c2.4-2.4,4.8-5.1,6.8-8s3.9-6.2,5.3-9.8
	s2.4-7.4,2.7-11.2c0.2-1.9,0.2-3.9,0.2-5.8s-0.3-4.1-0.9-6.4c-0.3-1.2-0.7-2.4-1.3-3.7c-0.5-1.2-1.3-2.6-2.3-3.9s-2.3-2.6-3.8-3.7
	c-1.5-1.1-3.2-1.9-4.8-2.4c-3.3-1-6.1-1-8.6-0.7s-4.5,0.8-6.4,1.5c-3.7,1.4-6.8,3-9.8,4.8c-2.9,1.8-5.6,3.7-8.1,5.7
	c-10.2,7.8-18.8,16.6-27,25.7c-4.2,4.6-8.1,9.1-12.1,13.8L308.7,193c-2,2.3-3.9,4.5-5.9,6.8l-3,3.4l-3,3.4l-3,3.4l-0.5,0.6l-0.4-0.4
	l-3-3.4l-3-3.4l-3-3.4c-2-2.3-3.9-4.5-5.9-6.8l-11.9-13.8c-3.9-4.7-7.9-9.3-12.1-13.8c-8.3-8.9-16.8-17.9-27-25.7
	c-2.5-2-5.2-3.9-8.1-5.7c-3-1.8-6-3.4-9.8-4.8c-1.9-0.6-3.9-1.1-6.4-1.5c-2.4-0.3-5.3-0.4-8.6,0.7c-1.6,0.5-3.3,1.3-4.8,2.4
	c-1.5,1.1-2.8,2.4-3.8,3.7c-1,1.4-1.7,2.6-2.3,3.9c-0.7,1.3-1,2.5-1.3,3.7c-0.6,2.4-0.8,4.4-0.9,6.4c0,2,0,3.9,0.2,5.8
	c0.3,3.9,1.3,7.7,2.7,11.2c1.4,3.5,3.3,6.7,5.3,9.8c2,3,4.3,5.7,6.8,8c4.9,4.8,10.2,8.6,15.8,11.9c5.5,3.3,11.1,6.1,16.9,8.5
	c8.2,3.6,16.4,6.5,24.7,9.2c-7.1,0.2-14.3,0.4-21.5,0.6c-18.9,0.7-55.3,1.2-74.1,1.6c-3.3,0-6.7,0.6-9.9,1.6c-3.2,1-6.2,2.5-8.9,4.5
	c-5.2,3.9-9.3,9.5-10.7,15.7c-0.2,0.7-0.3,1.5-0.4,2.3l-0.2,1.1l-0.1,1.1l-0.1,1.1v0.6v0.4v1.6l0.1,6.6l0.2,13.1
	c0.2,17.5,0.7,35,1.1,52.6l0.5,26.2c0.2,8.7,0.3,17.5,0.4,26.2c0.2,8.7,0.2,17.5,0.2,26.2v6.6v3.3v1.6c0,0.2,0,0.7,0,1l0.1,1.1
	c0.2,2.9,1,5.7,2.2,8.4c1.2,2.6,3,5.1,5,7.2s4.5,3.9,7.2,5.3c2.7,1.4,5.6,2.3,8.7,2.8c0.8,0.1,1.5,0.2,2.3,0.2l1.1,0.1h0.7h0.2h0.2
	l3.5,0.1l7.1,0.1l45.8,0.6l56.2,1l56.5,1.2c18.9,0.4,64,0.5,82.9,0.4c3.5,0,7.1-0.7,10.1-2c3.2-1.4,6-3.3,8.3-5.6
	c2.3-2.2,4.2-4.8,5.7-7.4c1.5-2.6,2.6-5.4,3.4-8.3c0.2-0.7,0.3-1.4,0.4-2.1l0.2-1.1l0.1-1.1l0.1-1.1v-0.6V408v-1.6l-0.1-6.6
	l-0.1-13.1c-0.1-17.5-0.1-35,0-52.6c0.2-17.5,0.4-35,0.7-52.6l0.5-26.2l0.1-6.6l0.1-3.3v-1.6v-0.2v-0.2v-0.6v-1.1
	C439.7,238.6,439,235.6,437.8,232.7z M386.4,147.9C386.6,147.9,386.5,147.9,386.4,147.9L386.4,147.9z M299.7,212.3
	C299.9,212.3,299.9,212.3,299.7,212.3l1.2-1.3l3.2-3.3l3.2-3.2c2.2-2,4.3-4.2,6.6-6.2c4.3-4.1,8.9-8,13.4-11.9
	c4.5-3.8,9.3-7.5,13.9-11.1c4.7-3.7,9.5-7.2,14.3-10.6c4.8-3.4,9.6-6.7,14.3-9.6c2.4-1.4,4.8-2.8,7.1-3.9c2.3-1.2,4.6-2.2,6.6-2.8
	c0.6-0.2,1.2-0.3,1.7-0.4c0.3,1.3,0.4,3.4,0.4,5.2c-0.1,2-0.3,4.2-1.1,6.2c-0.7,2-1.6,4.3-2.8,6.3c-1.2,2-2.7,4.3-4.3,6.2
	c-3.2,4.1-7.1,8-11.5,11.5c-4.3,3.6-9,7-13.9,10c-9.9,6.2-20.7,11.3-31.7,15.5c-2.7,1.1-5.5,2-8.4,3c-0.6,0.2-1.2,0.5-1.9,0.7
	c-2.4,0-4.7,0-7.1,0c-1.2,0-2.3,0-3.5,0L299.7,212.3z M300.1,277.2c1-8.5,1.9-17.1,2.8-25.6c0.5-5.4,1-10.8,1.5-16.2
	c4.2,0,8.4,0,12.6-0.1c9.3-0.1,18.8-0.3,28.2-0.7c9.3-0.4,45.2-0.9,54.6-1.4l7.1-0.3l3.5-0.2h1.1c0.3-0.1,0.7,0,1,0
	c1.2,0.1,2.5,0.3,3.8,0.8c1.2,0.6,2.4,1.2,3.4,2.1c2,1.7,3.3,4.2,3.6,6.8l0.1,0.5v0.2v0.2v0.2v1.6l0.1,3.3l0.1,6.6l0.5,26.2
	c0.3,11.7,0.4,23.4,0.6,35.2c-22.5-1.1-64.5-1.6-83.8-1.7c-15.1-0.1-30.2,0-45.3,0.2C297.1,302.5,298.6,289.9,300.1,277.2z
	 M198.5,148C198.3,148.1,198.3,148,198.5,148C198.6,148,198.5,148,198.5,148z M232.7,193.5c-4.8-3.1-9.6-6.5-13.9-10
	c-4.3-3.6-8.2-7.5-11.5-11.5c-1.7-2-3.1-4.2-4.3-6.2c-1.2-2-2.1-4.3-2.8-6.3c-0.6-2-1-4.2-1.1-6.2c-0.1-1.7,0.1-3.9,0.4-5.2
	c0.5,0.1,1,0.2,1.7,0.4c1.9,0.6,4.3,1.6,6.6,2.8c2.4,1.1,4.8,2.5,7.1,3.9c4.8,3,9.6,6.2,14.3,9.6c4.8,3.4,9.6,6.9,14.3,10.6
	c4.8,3.5,9.4,7.3,13.9,11.1c4.5,3.9,9.1,7.9,13.4,11.9c2.3,2,4.5,4.2,6.6,6.2l3.2,3.2l3.2,3.3l1.3,1.4c-3.4,0-6.8,0.1-10.2,0.1
	c-0.7-0.2-1.5-0.5-2.2-0.7c-2.8-0.9-5.6-1.9-8.4-3C253.3,204.8,242.6,199.7,232.7,193.5z M145.2,317.9c0.3-17.5,0.8-35,1.1-52.6
	l0.2-13.1l0.1-6.6V244v-0.4v-0.2v-0.5v-0.5l0.1-0.5c0-0.3,0.1-0.7,0.2-0.9c0.6-2.4,2-4.5,4.1-6.1c1.1-0.8,2.2-1.4,3.4-1.8
	s2.5-0.6,3.9-0.6c18.9,0.3,55.3,0.9,74.1,1.6c17.7,0.6,35.3,1.1,53.1,1.3c-0.3,5-0.5,9.9-0.8,14.9c-0.5,8.4-1.1,17-1.6,25.4
	c-1,13.3-2,26.6-3.2,39.8c-0.4,0-0.8,0-1.2,0c-10.4,0.2-20.7,0.6-31.1,1.1c-10.4,0.4-20.7,1-31.1,1.5c-10.4,0.6-38.3,1.2-48.7,2
	l-15.5,1.1l-7,0.5L145.2,317.9z M273,377.2c-1.8,14.3-3.9,28.5-6.2,42.7l-51.7,0.9l-45.8,0.6l-7.1,0.1l-3.5,0.1h-0.2h-0.2H158h-0.7
	c-0.4,0.1-0.8,0-1.2-0.1c-1.6-0.2-3.2-0.6-4.6-1.3c-1.4-0.7-2.6-1.6-3.8-2.7c-1.1-1.1-2-2.4-2.6-3.8c-0.7-1.4-1.1-2.9-1.1-4.3v-0.6
	c0-0.2,0-0.3,0-0.7v-1.6v-3.3v-6.6c0.1-8.7,0.2-17.5,0.2-26.2c0.1-8.7,0.2-17.5,0.4-26.2l0.1-3.5l1.4-0.1l7.6-0.7l15.4-1.1l33-1.1
	l15.4-1.1c10.3-0.7,20.5-1.4,30.8-2l29.5-1.7C276.5,347.7,274.8,362.4,273,377.2z M424.6,386.5l-0.1,13.1l-0.1,6.6v1.6v0.4v0.2v0.6
	v0.6l-0.1,0.6c-0.1,0.3-0.2,0.7-0.2,1.1c-0.2,0.4-0.2,0.7-0.3,1.1c-0.2,0.3-0.2,0.7-0.4,1l-0.7,0.9c-0.2,0.2-0.5,0.6-0.7,0.8
	c-1.1,1.1-2.4,1.8-3.8,2.3c-1.4,0.5-2.8,0.7-4,0.7c-1.3,0.1-2.5,0.1-3.7,0.1c-18.8-0.1-64,0.1-82.6,0.4l-49.9,1.1
	c2.8-13.5,5.3-27,7.6-40.6c2.7-15.7,5.1-31.3,7.3-47l1.6-0.1l15.4-0.7c5.1-0.2,10.3-0.4,15.4-0.7c5.1-0.2,10.3-0.4,15.4-0.6
	c19.3-0.8,61.4-1.2,83.7-1.6c0,1.9,0,3.7,0.1,5.6C424.8,351.5,424.7,369,424.6,386.5z"/>
</svg>
